<svg width="124" height="93" viewBox="0 0 124 93" fill="none" xmlns="http://www.w3.org/2000/svg">
<path fill-rule="evenodd" clip-rule="evenodd" d="M12.4711 83.1735C13.7291 83.318 15.7567 83.1969 17.0811 83.1969C18.3098 83.1969 20.1752 83.1969 21.0758 82.5816C22.6385 81.5248 22.9334 79.001 21.7888 77.6688C21.3981 77.2176 21.0074 77.073 20.3178 76.7722C20.562 76.487 20.8667 76.5945 21.443 75.858C22.3709 74.6743 22.0974 72.2892 20.48 71.4785C19.4154 70.9453 17.9406 71.1035 16.6689 71.1035C15.3973 71.1035 13.7193 71.0097 12.4945 71.1211L12.4711 83.1735ZM15.8797 73.5901C17.2276 73.5237 18.7102 73.3323 18.6887 74.7114C18.6672 76.0514 17.2432 75.9147 15.8504 75.8053L15.8797 73.5901ZM15.8543 78.1611C17.3467 78.038 19.1614 77.8759 19.1185 79.4073C19.0794 80.8861 17.2784 80.6692 15.8583 80.6009L15.8543 78.1611Z" fill="black"/>
<path fill-rule="evenodd" clip-rule="evenodd" d="M41.1136 83.1461C41.5473 83.2672 43.864 83.2145 44.4344 83.1852C44.4813 82.4605 44.2527 80.4504 44.5965 80.0598L46.1729 78.3017L48.4623 83.2067H52.5469C52.4531 82.8394 51.7655 81.7006 51.5565 81.3021C51.2166 80.6673 50.8826 80.0637 50.5368 79.4366C50.1911 78.8096 48.5873 75.9869 48.4857 75.5963L51.4041 72.2755C51.7492 71.9104 52.0647 71.5185 52.3476 71.1035H47.972L46.2315 73.3635C45.9268 73.7542 44.7157 75.397 44.4618 75.5924L44.4481 71.1113H41.1273L41.1136 83.1461Z" fill="black"/>
<path fill-rule="evenodd" clip-rule="evenodd" d="M90.1926 83.1813L93.5134 83.1989C93.5739 82.4175 93.3181 80.5559 93.6716 80.0832C93.7927 79.9152 93.9197 79.8156 94.0623 79.6456C94.1801 79.4902 94.3074 79.3422 94.4432 79.2022C94.6893 78.9463 94.9823 78.5478 95.2246 78.2763C95.4394 78.4717 97.2541 82.5738 97.5315 83.1871H101.634L97.5764 75.6959C97.803 75.2212 101.268 71.4805 101.425 71.0956H97.0354L95.289 73.3733C95.037 73.6976 93.7029 75.5064 93.531 75.5748V71.0956H90.2141L90.1926 83.1813Z" fill="black"/>
<path fill-rule="evenodd" clip-rule="evenodd" d="M106.605 70.9785C102.921 71.6192 101.767 74.9106 102.175 78.2842C102.603 81.812 104.874 83.8591 108.805 83.3532C112.207 82.9156 113.669 79.8371 113.276 76.026C112.924 72.5959 110.498 70.3006 106.605 70.9785ZM107.347 73.7796C109.211 73.4534 109.897 75.0259 109.977 76.6882C110.061 78.4463 109.801 80.3118 108.16 80.5755C106.181 80.8939 105.554 79.3136 105.466 77.5966C105.374 75.7721 105.718 74.0629 107.347 73.7796Z" fill="black"/>
<path fill-rule="evenodd" clip-rule="evenodd" d="M52.9376 83.1715L56.3385 83.1969L56.8678 81.2181H60.6731L61.2063 83.1715L64.6717 83.191L60.632 71.1035H56.9948L52.9376 83.1715ZM57.6258 78.5752C57.6785 78.0048 58.0164 77.0125 58.1805 76.4128L58.7197 74.4828L59.9308 78.5732L57.6258 78.5752Z" fill="black"/>
<path fill-rule="evenodd" clip-rule="evenodd" d="M76.9994 83.1735L80.4002 83.1969L80.9277 81.2201H84.7329L85.2661 83.1735L88.7295 83.1989L84.6997 71.1035H81.0664L76.9994 83.1735ZM81.6993 78.5771C81.7325 78.1298 82.4572 75.6666 82.6759 74.8559C82.6994 74.77 82.715 74.6821 82.7424 74.6L82.883 74.3793L83.9964 78.5732L81.6993 78.5771Z" fill="black"/>
<path fill-rule="evenodd" clip-rule="evenodd" d="M10.5489 79.2589C10.0293 79.0362 8.1482 78.3544 7.63251 78.2822C7.32778 79.6359 6.8199 80.8216 5.12826 80.5852C3.74135 80.3899 3.43467 78.9717 3.40146 77.5164C3.3663 75.9537 3.54406 74.5238 4.60671 73.9398C5.66935 73.3557 7.06798 73.7444 7.50554 75.3755L10.4356 74.6625C10.2872 73.3811 9.14834 72.0235 8.3748 71.5586C6.103 70.1912 -0.165432 70.1678 0.0611616 77.5164C0.149064 80.3235 1.42854 82.9371 4.49927 83.3395C6.13621 83.5544 7.55437 83.3805 8.69515 82.5581C9.53707 81.9428 10.3243 80.7532 10.5587 79.2647" fill="black"/>
<path fill-rule="evenodd" clip-rule="evenodd" d="M23.7909 74.0199C24.416 74.1976 26.3635 74.0199 27.1859 74.0902L27.2113 83.1852L30.5321 83.1969L30.5516 74.1L33.9642 74.0687V71.123L23.8065 71.1054L23.7909 74.0199Z" fill="black"/>
<path fill-rule="evenodd" clip-rule="evenodd" d="M123.998 83.1559V80.2258L118.792 80.2102L118.777 71.1035L115.477 71.1347L115.446 83.1598C115.966 83.2633 123.455 83.2575 124 83.1598" fill="black"/>
<path fill-rule="evenodd" clip-rule="evenodd" d="M22.3669 92.0439L23.4003 92.0634L23.4159 89.1821C23.7265 89.7017 23.8867 91.8075 24.334 92.0693H25.1408L25.6662 90.0299C25.7424 89.7232 25.7424 89.5591 25.9221 89.3228L25.9417 92.0341L26.9613 92.079V87.9867L25.3381 87.9769C25.1271 88.4535 24.8321 89.7818 24.6934 90.3757C24.4082 89.9537 24.2735 88.5082 23.9883 87.9808H22.3923L22.3669 92.0439Z" fill="black"/>
<path fill-rule="evenodd" clip-rule="evenodd" d="M106.07 89.143C106.289 89.4849 106.701 91.4539 106.871 92.0731L107.804 92.0477L108.586 89.2036L108.607 92.0692L109.631 92.0516L109.604 87.9808H108.004C107.709 88.5668 107.636 89.7701 107.336 90.3248C107.031 89.8541 106.925 88.5766 106.654 87.9691L105.029 87.9827L105.04 92.0634H106.052L106.07 89.143Z" fill="black"/>
<path fill-rule="evenodd" clip-rule="evenodd" d="M28.9108 89.1411C29.1159 89.481 29.5495 91.4852 29.7058 92.0712C30.9052 92.0712 30.5555 92.374 31.1845 89.942C31.2171 89.6928 31.3031 89.4536 31.4365 89.2407L31.4502 92.0731L32.4718 92.0517L32.4464 87.9847H30.8525C30.5927 88.4906 30.4169 89.7291 30.1942 90.3483C29.8426 89.856 29.7781 88.6078 29.5027 87.9827L27.8696 87.9925L27.8853 92.079H28.8991L28.9108 89.1411Z" fill="black"/>
<path fill-rule="evenodd" clip-rule="evenodd" d="M56.188 92.0282C56.7369 92.1473 58.9071 92.0926 59.3583 91.8954C59.5588 91.8047 59.7257 91.6534 59.8355 91.4627C59.9452 91.272 59.9922 91.0516 59.9698 90.8327C59.9405 90.1842 59.5537 90.1373 59.206 89.8443C60.0772 89.436 59.9268 88.346 59.1005 88.0589C58.7528 87.9378 56.6197 87.9202 56.2153 88.0062L56.188 92.0282ZM57.4889 89.5728L57.4772 88.807C58.1902 88.7758 58.534 88.6859 58.5223 89.3579C58.2117 89.6607 58.0027 89.6001 57.4889 89.5728ZM57.9636 91.1824L57.4694 91.1687L57.4889 90.3678H57.8796C58.4305 90.3678 58.7157 90.3444 58.6707 90.9226C58.4461 91.2019 58.4285 91.1824 57.9636 91.1824Z" fill="black"/>
<path fill-rule="evenodd" clip-rule="evenodd" d="M39.4084 89.9205L39.6564 90.1822C41.1469 92.331 40.5706 92.077 42.1412 92.0575L42.108 87.9671L40.9457 88.0062L40.932 90.1119C40.8168 90.0279 40.8656 90.0826 40.7679 89.981C40.7679 89.9713 40.6605 89.8365 40.6585 89.8345L39.3908 87.9827C38.8809 87.9437 38.2891 87.8597 38.2188 88.1292V92.0575H39.3908L39.4084 89.9205Z" fill="black"/>
<path fill-rule="evenodd" clip-rule="evenodd" d="M96.7874 90.2565C97.1898 90.0123 97.5258 89.897 97.6215 89.3501C97.6744 89.127 97.6573 88.8931 97.5723 88.6802C97.4874 88.4673 97.3388 88.2858 97.1468 88.1605C96.6643 87.8616 94.6504 87.9651 93.955 87.9827L93.9725 92.0673H95.2227V90.4225C95.8244 90.4225 96.1135 91.2038 96.5354 92.0692H97.934C97.7602 91.5086 97.3304 90.7272 96.8616 90.3424C96.8616 90.3424 96.8264 90.3268 96.8186 90.3033C96.8108 90.2799 96.7913 90.276 96.7796 90.2623M95.2481 88.8129C95.7306 88.7875 96.3498 88.7113 96.3635 89.1919C96.3752 89.7251 95.6388 89.649 95.2129 89.6197L95.2481 88.8129Z" fill="black"/>
<path fill-rule="evenodd" clip-rule="evenodd" d="M73.62 92.0556C75.675 92.1845 77.3939 92.2685 77.3803 90.0084C77.3666 87.7776 75.6671 87.8284 73.6532 87.9828L73.62 92.0556ZM74.9112 91.1121L74.8936 88.9106C75.8117 88.8442 76.1047 89.106 76.1145 90.0084C76.1242 90.9773 75.884 91.2234 74.9112 91.1121Z" fill="black"/>
<path fill-rule="evenodd" clip-rule="evenodd" d="M21.5446 90.7507C22.4021 87.5217 18.1398 87.006 17.4894 89.27C16.5713 92.4638 20.9234 93.085 21.5446 90.7507ZM19.2337 88.9184C20.5816 88.432 20.6812 90.821 19.851 91.1296C19.1771 91.3797 18.7337 90.8933 18.679 90.3307C18.6047 89.6294 18.7083 89.1079 19.2337 88.9184Z" fill="black"/>
<path fill-rule="evenodd" clip-rule="evenodd" d="M88.2529 90.5026C88.796 87.2717 84.4809 87.1232 84.0941 89.5103C83.8636 90.9285 84.5122 91.9169 85.6861 92.0985C87.0789 92.3173 88.0478 91.7196 88.2529 90.5026ZM85.9088 88.9086C87.2391 88.4965 87.3602 90.8405 86.5339 91.1257C85.8366 91.3641 85.401 90.9304 85.3365 90.3444C85.2564 89.6334 85.3638 89.0747 85.9049 88.9086H85.9088Z" fill="black"/>
<path fill-rule="evenodd" clip-rule="evenodd" d="M89.1455 87.9788C89.0615 88.4144 89.0732 90.5397 89.1748 90.9324C89.3955 91.7879 89.9952 92.1044 91.013 92.1298C93.5289 92.1767 93.0132 90.1451 93.0249 87.973L91.7591 87.9945C91.7591 88.6664 91.7591 89.3384 91.7591 90.0084C91.7591 90.6784 91.7592 91.2156 91.013 91.1804C89.8702 91.1238 90.634 89.2739 90.3254 87.973L89.1455 87.9788Z" fill="black"/>
<path fill-rule="evenodd" clip-rule="evenodd" d="M33.4212 87.9749C33.3313 88.4262 33.3489 90.5143 33.4525 90.9402C33.6615 91.7899 34.3002 92.1122 35.2945 92.1298C37.8066 92.1747 37.287 90.1315 37.3045 87.973L36.0387 88.0023C36.0387 88.6703 36.0387 89.3403 36.0387 90.0084C36.0387 90.6765 36.0251 91.2039 35.2926 91.1804C34.1557 91.1433 34.9019 89.2993 34.603 87.973L33.4212 87.9749Z" fill="black"/>
<path fill-rule="evenodd" clip-rule="evenodd" d="M69.4281 92.0477L72.8602 92.0673L72.8739 91.1609L70.7134 91.1238L70.6939 90.3815L72.6297 90.3288L72.659 89.5044L70.7056 89.4907L70.69 88.9047C71.1822 88.7602 72.2214 88.8598 72.786 88.8442L72.7957 87.9847H69.4554L69.4281 92.0477Z" fill="black"/>
<path fill-rule="evenodd" clip-rule="evenodd" d="M101.729 90.6511L100.63 90.7077C100.462 92.2704 103.118 92.5341 103.931 91.6336C104.693 90.7878 104.368 89.7994 102.825 89.4067C102.358 89.2876 101.786 89.311 101.978 88.766C102.718 88.4847 102.71 88.811 103.048 89.1841L104.075 89.1352C104.326 88.3265 103.31 87.8616 102.306 87.9065C101.433 87.9456 100.522 88.4046 100.782 89.397C100.993 90.2076 101.968 90.2311 102.716 90.5065C103.253 90.7018 103.167 91.2605 102.628 91.3211C102.022 91.3914 101.952 91.0085 101.729 90.6511Z" fill="black"/>
<path fill-rule="evenodd" clip-rule="evenodd" d="M66.1228 90.653L65.0172 90.7077C64.8649 92.2802 67.4941 92.5478 68.3224 91.6297C68.8263 91.0691 68.8361 90.235 68.17 89.774C67.5039 89.313 66.2518 89.4028 66.3065 88.9379C66.4256 88.7133 66.5389 88.5941 66.9394 88.6899C67.2382 88.7621 67.2714 89.0044 67.4414 89.1841L68.5333 89.1274C68.3048 87.1428 64.5933 87.7034 65.1911 89.4615C65.4606 90.2545 66.705 90.3268 67.1679 90.53C67.6309 90.7331 67.5351 91.2644 67.0214 91.3211C66.4022 91.3914 66.3572 91.0203 66.1228 90.653Z" fill="black"/>
<path fill-rule="evenodd" clip-rule="evenodd" d="M61.513 92.0653C61.7669 91.2176 61.556 91.3934 63.1577 91.409L63.3531 92.0614H64.6736L63.1206 87.9769H61.7845L60.2628 92.0653H61.513ZM62.4604 89.1196L62.8511 90.5046H62.3393L61.9974 90.4811L62.4604 89.1196Z" fill="black"/>
<path fill-rule="evenodd" clip-rule="evenodd" d="M16.7725 90.7507L15.7665 90.4108C15.4872 90.8327 15.5419 91.2175 14.8562 91.1922C13.7955 91.1355 13.9557 89.2095 14.5906 88.9282C15.2254 88.6469 15.5009 89.0708 15.6825 89.4224L16.753 89.1958C16.4561 87.4377 12.7856 87.1858 12.8462 90.1022C12.9028 92.8525 16.5928 92.6611 16.7725 90.7605" fill="black"/>
<path fill-rule="evenodd" clip-rule="evenodd" d="M49.3042 87.9691C49.3463 88.1465 49.4292 88.3118 49.5464 88.4515C51.1638 90.8151 50.7321 89.8541 50.8278 92.0634L52.0819 92.0419C52.1601 90.4792 51.8163 90.7233 52.5625 89.6353C52.873 89.1821 53.4376 88.4164 53.6329 87.973L52.3027 87.9827L51.451 89.27C51.0994 88.9165 50.9157 88.3441 50.611 87.9632L49.3042 87.9691Z" fill="black"/>
<path fill-rule="evenodd" clip-rule="evenodd" d="M82.5022 88.9926L83.7582 88.9594L83.7231 87.9691L79.9139 87.9984L79.9374 88.9829L81.2032 89.0063L81.2188 92.0653L82.4612 92.0634L82.5022 88.9926Z" fill="black"/>
<path fill-rule="evenodd" clip-rule="evenodd" d="M45.1533 88.9829L46.4191 89.0083L46.4308 92.0673L47.6771 92.0653L47.6791 89.0024L48.9624 88.9751L48.937 87.9691L45.1299 87.9964L45.1533 88.9829Z" fill="black"/>
<path fill-rule="evenodd" clip-rule="evenodd" d="M58.6981 24.1458C58.7743 24.3412 59.2841 24.7905 59.5518 24.9389C59.9352 25.175 60.3752 25.3032 60.8254 25.3101C61.7083 25.3101 62.8725 24.8998 63.3062 24.4213C63.118 24.1384 62.8881 23.8855 62.6244 23.6712L62.5483 23.7298C61.8177 24.4193 61.7669 25.0014 61.2512 24.8354C61.2649 24.4017 62.0931 23.7591 62.2279 23.384L61.8939 23.3371C61.7591 23.9524 61.6653 23.8567 61.3782 24.2044C61.2141 24.3998 60.9328 24.894 60.6867 24.8608C60.3448 24.6967 60.882 24.179 61.0109 23.9759L61.4719 23.3899C61.6282 23.1945 61.6009 23.2316 61.5266 23.1672C61.3801 23.0422 61.136 23.5579 60.8078 23.9075C60.6652 24.0599 60.507 24.1712 60.378 24.2982C60.2491 24.4252 60.1436 24.6147 60.0225 24.7533H59.6807C59.4385 24.1263 60.4152 23.7649 60.8683 23.091C60.0479 23.091 59.501 23.5696 59.165 23.7903C58.87 23.9857 58.8954 23.7903 58.7059 24.1439" fill="black"/>
<path fill-rule="evenodd" clip-rule="evenodd" d="M98.559 92.0595L99.8209 92.0438L99.7857 87.973L98.5531 88.0023L98.559 92.0595Z" fill="black"/>
<path fill-rule="evenodd" clip-rule="evenodd" d="M43.1666 92.0634L44.4227 92.038L44.3973 87.973L43.1588 87.9984L43.1666 92.0634Z" fill="black"/>
<path fill-rule="evenodd" clip-rule="evenodd" d="M74.0752 78.2958C73.9674 78.2067 73.8461 78.1355 73.7158 78.0849L73.3446 77.827C76.1497 77.2098 76.5775 73.5628 74.8214 71.8672C73.999 71.0722 72.2956 71.1035 70.9087 71.1035C69.3187 71.1035 67.7169 71.0859 66.1268 71.1035L66.0995 83.1891H69.4417L69.4652 78.3056C70.7642 78.1943 70.9615 79.0381 71.567 80.302C72.028 81.265 72.5066 82.2651 72.9598 83.1754H76.6986C76.558 82.6285 74.8937 78.9659 74.0752 78.2958ZM71.1041 75.9479H69.5101V73.6233C70.2563 73.6233 70.8912 73.6233 71.6061 73.6878C72.7234 73.7288 73.0965 75.8443 71.1041 75.9479Z" fill="black"/>
<path fill-rule="evenodd" clip-rule="evenodd" d="M99.44 61.5182L97.6058 58.5686C97.4955 58.396 97.3963 58.2166 97.3089 58.0314L95.7657 55.5701C95.5117 55.1794 94.6249 53.812 94.6425 53.5171L123.5 53.9781C123.475 53.73 123.269 53.4643 123.123 53.2377C122.976 53.0112 122.873 52.7963 122.717 52.5365L119.771 47.6022C118.665 45.6684 117.013 43.1094 116.013 41.2674L114.323 38.4662C114.202 38.2252 114.066 37.9923 113.915 37.7688C113.524 37.2356 111.18 33.2311 110.545 32.1489C110.41 31.9204 110.256 31.7055 110.115 31.4691L108.867 29.3341C107.976 27.9374 106.838 25.8864 105.937 24.3901C103.984 21.1474 102.063 17.8032 100.077 14.5567L96.7053 8.91333C96.4377 9.00318 96.2853 9.36652 96.129 9.60678C96.0363 9.72917 95.9552 9.85997 95.8868 9.99746L93.7967 13.2831C92.5758 15.1661 91.2358 17.3637 90.0129 19.1764C89.6887 19.657 89.3839 20.1336 89.0636 20.6454C88.4424 21.6377 87.8173 22.5988 87.1825 23.6028L82.4807 31.0023C82.3107 31.2914 81.7872 32.2661 81.4669 32.4009C80.998 31.307 79.0915 28.5352 78.3668 27.2713C77.4937 25.7477 76.2005 23.8275 75.2414 22.1749C75.0207 21.7842 74.8116 21.542 74.5948 21.1552L74.0088 20.1571C73.5654 19.571 73.1981 18.7897 72.7703 18.147C71.5143 16.2698 70.2173 13.9296 69.0023 12.0915C68.8069 11.8024 68.5315 11.3531 68.3713 11.0679C67.5489 9.59311 66.1601 7.53228 65.2361 5.97347L64.5935 4.95966C64.1832 4.26425 61.7161 0.167992 61.4778 0C60.4542 1.50216 59.3291 3.53173 58.2938 5.09054L56.3638 8.15346C56.1685 8.41912 56.0415 8.61641 55.8774 8.89575L49.0405 19.7547C48.3881 20.7313 47.8099 21.708 47.1809 22.6652L45.3818 25.564C44.745 26.5075 44.1688 27.4842 43.5437 28.4277L41.8364 31.1468C41.7134 31.3168 41.8052 31.2054 41.6802 31.2914C41.5317 31.1918 40.8422 30.01 40.7523 29.842C40.2386 28.8555 38.7989 26.6052 38.1328 25.482L34.6382 19.7117C34.0268 18.6666 33.4662 17.7817 32.8801 16.7816C31.2197 13.9921 29.3113 11.0152 27.6294 8.15932L27.4614 8.12416L20.5874 19.2331C19.5424 21.0126 18.1945 23.0168 17.1631 24.7944C16.3173 26.2536 14.4284 29.0313 13.7193 30.3381L7.71849 40.027C7.40399 40.5114 7.10707 40.9724 6.84337 41.4334L0.0553285 52.3509C-0.0618751 52.6674 0.0357946 52.4798 0.0865828 52.5462C0.219413 52.6556 18.3567 52.7025 21.0777 52.726C22.2341 52.7377 23.4511 52.6947 24.5938 52.7396L28.0728 52.81C28.0924 52.8607 28.2682 52.681 27.9791 53.1733C27.8638 53.3686 27.8423 53.3686 27.731 53.5503C27.5591 53.8218 27.4243 54.0328 27.2544 54.316L22.1072 62.4421C21.9568 62.6863 21.7868 62.9676 21.6286 63.2079C21.4704 63.4481 21.3395 63.663 21.1774 63.9326C21.0152 64.2021 20.7574 64.4151 20.7339 64.7256C21.0797 64.8272 25.0314 64.7999 25.7034 64.8018C37.5194 64.8214 49.3668 65.0108 61.1672 65.0382C67.9279 65.0558 74.6827 65.171 81.4219 65.1827C84.8032 65.1827 88.2041 65.1827 91.5796 65.2335C92.7125 65.2492 101.347 65.38 101.72 65.2589C101.608 64.9561 101.364 64.7042 101.182 64.3857L99.44 61.5182ZM24.1153 31.1214C24.7501 30.0002 24.42 30.0803 25.9104 29.3185C26.0569 28.3242 26.2699 27.5252 27.2231 28.2304C28.0045 28.8164 27.4184 29.5001 26.7523 29.8615C26.8031 30.5511 27.0082 30.2522 26.6976 30.9417C26.5501 31.2632 26.4545 31.6061 26.4144 31.9575C26.573 32.1559 26.7539 32.3355 26.9535 32.4927C27.2641 32.4283 27.4282 32.2388 27.6372 32.0864C28.2367 31.7202 28.8834 31.4376 29.5594 31.2465C29.7938 31.1957 29.7938 31.2719 29.8563 31.4027C29.7254 31.5512 29.2703 31.6899 28.6842 32.1685C27.6529 33.0045 27.1782 33.9832 26.684 33.7448C26.4837 33.6286 26.2976 33.4897 26.1292 33.3307L25.6506 32.9244C25.633 32.6549 26.01 31.3969 26.1292 31.1664C26.0237 30.8362 26.1097 31.1468 26.0218 30.9515L25.8714 30.2619C25.09 30.6175 25.3322 30.5471 24.8947 31.2074C24.6466 31.5727 24.3086 31.9887 23.8437 31.9887C23.7754 31.6547 23.9512 31.4145 24.1153 31.1214ZM26.936 36.0362C26.9519 35.9444 26.9887 35.8576 27.0434 35.7822C27.0942 35.6982 27.0805 35.7373 27.1274 35.6592L27.1508 35.6142L27.4888 35.1884C27.7544 34.9364 27.8404 34.6747 28.0553 34.3738C28.6862 33.4909 28.9226 33.4811 29.2839 32.899C29.532 32.7935 29.5359 32.7467 29.8465 32.7994C29.8465 33.5534 29.0476 34.2508 28.6491 34.827C28.3658 35.2333 27.9048 35.9522 27.8072 36.4054C27.6538 37.2449 27.5514 38.0929 27.5005 38.9448C27.4595 39.4214 27.27 39.6851 27.2622 40.0523C27.2337 40.4245 27.1815 40.7944 27.1059 41.1599C26.893 41.2224 26.9379 41.2478 26.7269 41.1736C26.5961 40.9255 26.8227 39.1206 26.8695 38.6518C26.9438 37.8958 26.8285 36.7238 26.936 36.0362ZM18.8977 33.7195C19.3021 33.3913 19.4838 33.1764 20.1772 33.1491C21.402 33.1002 21.7399 32.9537 22.8045 33.0826C23.0975 33.1198 23.3261 33.0201 23.5859 33.0377C23.5859 33.4284 23.4316 34.034 23.1952 34.2098C22.696 34.1981 22.1979 34.1596 21.7028 34.0945C20.6636 33.95 20.5972 33.8757 19.5541 34.0261C18.886 34.1238 17.7589 35.165 17.714 34.3856C18.1386 34.2217 18.5373 33.9974 18.8977 33.7195ZM17.628 39.6363C17.6906 39.1557 18.1516 37.6692 18.1047 36.9347C18.0871 36.673 18.0754 36.4112 18.0578 36.1534C18.0405 35.9268 18.0012 35.7024 17.9406 35.4834C18.2023 35.1552 18.4426 35.2099 18.8509 35.288C18.8509 35.6279 18.761 35.5068 18.8255 35.9502C18.9433 36.6025 18.8721 37.2748 18.6204 37.888C18.8352 37.8118 18.8899 37.5696 19.0228 37.3723C19.1556 37.175 19.2962 37.05 19.4252 36.8742C19.8666 36.2764 19.7338 36.0225 20.3862 36.1729C20.7769 35.8311 21.8454 35.9053 22.3904 35.9131C22.8495 35.9131 24.0821 36.126 24.3438 36.0596C24.3946 35.5205 24.7345 34.7489 25.2951 34.3953C25.4331 34.4824 25.5425 34.608 25.6096 34.7567C25.9417 35.3427 25.7385 34.5789 26.4711 35.9287C26.2132 36.38 26.514 37.2688 26.1331 37.7688C25.8616 37.7356 25.8928 37.7141 25.7874 37.5051C24.2246 37.3489 22.1755 36.2589 20.5269 36.6124C20.1206 37.4016 18.7356 39.2065 18.5579 39.5953C18.3514 40.0058 18.233 40.4549 18.2102 40.9138C18.0041 41.0756 17.7472 41.1587 17.4854 41.1482C17.5089 40.7302 17.5812 40.0445 17.628 39.6363ZM31.5635 44.5198C31.1533 44.5315 30.0126 44.301 29.5711 44.2209C27.9088 43.9181 27.2895 43.7951 25.549 43.5978C25.1447 43.5509 24.7911 43.588 24.3965 43.5685C24.0703 43.5528 23.7129 43.4766 23.3593 43.4727C22.4979 43.4727 21.5016 43.7384 21.2789 43.7521C19.5814 43.8478 18.6887 43.8654 16.9111 44.047C16.3251 44.1056 15.3914 44.3166 14.8503 44.2873C14.9656 43.9533 14.9285 44.092 15.2586 43.9806C16.2939 43.6329 19.1009 42.6972 19.8959 42.5468C22.5701 42.0468 22.953 41.7498 25.8987 42.1464L28.0943 42.6445C28.403 42.7754 28.7077 42.9238 29.0554 43.0645C29.3649 43.177 29.6626 43.3196 29.9442 43.4903C31.1338 44.2932 31.6456 43.9513 31.5635 44.5119V44.5198ZM32.0695 33.6941C31.755 33.6062 32.0792 33.7038 31.8507 33.5749L30.1356 32.9889L30.331 32.7252C30.7099 32.7154 30.7783 32.8307 31.1651 32.9205C31.5518 33.0104 31.7354 33.2018 32.0421 33.2038C32.1906 32.7623 31.6983 32.7115 31.3252 32.4341C31.0126 32.2169 30.7204 31.9717 30.4521 31.7016C30.5341 31.3226 30.4267 30.9066 30.874 30.8948C31.0205 31.0687 30.9502 30.9476 31.001 31.2406C31.3096 31.3148 31.1826 31.4203 31.4444 31.6313C31.7608 31.8774 32.5441 32.4869 32.7082 32.7447C32.5531 33.0941 32.3368 33.4129 32.0695 33.6862V33.6941ZM80.16 50.7882C80.5077 51.3586 80.3554 50.7687 80.5507 51.3742C80.6464 51.6672 81.125 52.3509 80.6972 53.2768C80.5937 53.5073 80.4726 53.7398 80.2518 53.689C79.9627 53.5327 80.2343 53.1557 80.3046 52.7123C79.4783 52.6986 79.1326 53.1498 78.9372 52.5853L80.3163 52.4154C80.3651 51.4113 79.7459 50.5284 78.7536 50.4249C78.3922 51.3176 78.609 51.5832 78.2008 51.7414C77.8374 51.3508 78.2008 50.8253 78.2184 50.2022C77.8453 50.1612 77.687 50.2178 77.6323 49.8467C78.2008 49.7822 79.8045 50.2022 80.16 50.7882ZM76.8393 52.5228C76.8393 52.5111 76.8627 52.5501 76.8744 52.5619C76.4837 52.935 76.2884 52.7338 75.7024 52.7689C75.7258 53.5503 76.5873 54.3746 77.2983 54.527C77.3608 54.2672 77.4058 53.8374 77.6069 53.6577L77.8023 53.5347C77.8121 53.5054 77.8414 53.5132 77.8589 53.5015C77.9976 54.1129 77.7281 54.2105 77.6988 54.7966C78.2041 54.8898 78.7246 54.8576 79.2146 54.7028C79.9413 54.4977 79.7088 54.2672 80.2206 53.98C80.3339 54.7966 79.2849 55.0896 78.6579 55.2497C78.4313 55.3083 78.1031 55.4314 77.9722 55.4588C77.5523 55.5428 76.64 55.4236 76.3626 55.2283C75.2414 54.4469 75.6633 54.9118 75.1359 54.0992C74.6085 53.2866 74.7023 52.1458 75.0421 51.3644C75.2531 50.8761 76.1282 50.1924 76.5677 50.0537C77.1538 49.8584 76.7221 50.2491 77.144 49.9033C77.2221 50.1924 77.0834 50.3584 76.8627 50.4893C76.472 50.7218 76.5873 50.5245 76.2767 50.9445C76.0052 51.3078 75.6907 51.7395 75.7043 52.3665L76.8393 52.5228ZM78.2164 52.2513C78.2365 52.3988 78.202 52.5487 78.1192 52.6725C78.0364 52.7963 77.9112 52.8855 77.7671 52.9232C77.355 52.5755 77.4429 51.7942 78.2125 52.2454L78.2164 52.2513ZM75.134 46.4478L75.55 46.4282C75.7708 46.7212 76.0599 46.7681 76.6517 47.3854C77.0522 47.8034 77.8882 48.407 77.1811 49.2118C76.9408 49.4872 76.474 49.6025 76.0657 49.6865C74.4503 50.0342 74.5694 49.8115 74.1827 51.0539C74.1416 51.1886 74.0713 51.6731 74.0322 51.7414C73.7939 52.1478 73.7549 51.7219 73.7549 51.4582C73.7549 50.8605 73.833 50.5128 73.8584 49.96C74.0505 49.8354 74.2181 49.6764 74.3526 49.4911C74.5733 49.204 75.6789 48.366 75.8215 48.1374C75.5461 47.8327 75.3 47.8327 75.1808 47.4791C75.1047 47.2584 75.0519 46.6216 75.13 46.4419L75.134 46.4478ZM66.9297 53.0092C67.096 53.0185 67.2609 53.0447 67.422 53.0873C67.7697 53.187 67.6329 53.1127 67.6798 53.3217C67.5392 53.4057 66.2617 53.5308 66.0214 53.1166C66.0184 53.663 66.2197 54.1907 66.5858 54.5962C66.9519 55.0017 67.4564 55.2557 68.0002 55.3083C68.1154 54.7985 68.0881 54.4156 68.3459 54.2281C68.7073 54.4332 68.4905 54.8239 68.5022 55.4002C68.8811 55.4373 69.1722 55.3201 69.5219 55.2419C69.9418 55.1462 70.063 55.2048 70.4302 54.9782C71.6022 54.2555 71.0279 54.2906 71.5378 53.7671C71.6218 53.9625 71.5378 54.189 71.4948 54.3531L71.5573 54.3805L71.6296 54.4215C71.5671 54.8747 71.0982 55.324 70.7115 55.7381C70.3247 56.1522 69.7953 56.2049 69.1859 56.4237C68.7385 56.5839 68.9905 56.7578 68.3362 56.5839C67.84 56.4511 66.8379 56.5194 66.0604 55.6072C65.727 55.1302 65.52 54.5764 65.4588 53.9976C65.3885 53.0209 65.5701 52.1419 66.203 51.5012C66.8359 50.8605 66.6562 50.9679 67.4923 50.5772C67.7697 50.4483 68.0236 50.2998 68.1389 50.6143C67.8888 50.8097 67.6993 50.7608 67.4102 50.9796C66.8574 51.3977 66.1308 51.9934 66.0429 52.7826C66.416 52.8588 66.5039 52.9525 66.9336 53.0033L66.9297 53.0092ZM71.1041 52.304C70.9439 51.7336 69.9946 51.1046 69.4261 51.0539C69.4105 51.5442 69.3558 52.1497 69.053 52.3646L68.7854 52.1399L69.0316 51.2785C69.0454 51.223 69.0507 51.1657 69.0472 51.1086C69.0472 51.0949 69.0355 51.0812 69.0355 51.0539C69.0355 51.0265 69.0257 51.0167 69.0257 50.9757L68.596 50.8683L68.6135 50.5284C69.0179 50.5284 70.2563 50.9445 70.5982 51.1476C70.9771 51.3723 71.6374 52.2571 71.526 52.8705C71.1041 52.8588 71.1979 52.6283 71.1041 52.304ZM71.2623 53.5933C71.1686 53.6655 71.194 53.6968 70.9244 53.6929C70.856 53.6929 70.5904 53.6597 70.5161 53.648C70.2055 53.5952 70.1567 53.5874 70.0649 53.2788C70.6158 53.2944 70.9283 53.3413 71.2623 53.5933ZM69.0921 53.1088C69.0797 53.1872 69.0515 53.2623 69.0092 53.3294C68.9668 53.3966 68.9113 53.4544 68.846 53.4995C68.7779 53.4867 68.7133 53.4596 68.6565 53.42C68.5997 53.3804 68.552 53.3291 68.5165 53.2696C68.4811 53.2101 68.4587 53.1438 68.4508 53.075C68.4429 53.0062 68.4498 52.9365 68.4709 52.8705C68.6897 53.019 68.8108 52.8002 69.0921 53.1088ZM70.1548 49.8662C70.1548 49.8525 70.02 49.8213 70.1548 49.6533C70.2388 49.5497 70.2739 49.5849 70.3872 49.5302C70.6626 49.3993 72.2547 47.9675 72.4988 47.6393C72.5746 47.5071 72.6708 47.3878 72.784 47.2858C73.1884 47.3873 73.8643 47.4205 74.0283 47.7917C73.1102 48.073 73.1942 48.1453 72.2234 49.0223C71.7487 49.454 70.4185 49.9482 70.1548 49.8662ZM72.6942 53.1088C72.3387 52.2552 71.9597 50.8194 72.4871 49.8388C72.7684 49.3192 73.8779 47.8073 74.6085 48.0339C74.8507 48.786 72.5398 48.4949 73.4052 52.2103C73.4697 52.4837 73.5478 52.6888 73.6142 52.9682C73.7158 53.3979 73.9053 53.1635 73.8213 53.73C73.6259 53.939 73.245 54.0875 72.954 54.2477C72.6629 54.4078 72.3816 54.6383 71.9773 54.6051C71.8425 53.6812 72.2761 53.6831 72.6961 53.1088H72.6942ZM70.1782 46.2954C70.4673 46.1235 70.4341 46.1762 70.5415 45.8149C70.9869 45.8676 71.1471 46.0102 71.4928 46.1254C72.0027 44.9534 72.4793 45.3011 73.0302 45.4574C73.2626 45.5238 73.4443 45.5844 73.6728 45.6527C73.8796 45.7323 74.0762 45.8359 74.2588 45.9614C74.88 46.3208 74.6495 46.0942 74.7179 46.3247C74.0713 46.5825 73.1884 46.2895 72.5125 46.2719C72.1799 46.5697 71.9102 46.931 71.7194 47.3346C71.2565 48.5223 70.4868 48.7137 70.0981 49.3036C69.8364 49.6943 69.3656 49.7646 68.7132 49.6943L68.5178 49.499C68.5393 49.0243 68.8851 48.8739 69.3421 48.8465C69.7465 48.8231 69.9497 48.4773 70.1137 48.2605C70.4497 47.8327 70.9752 47.5885 71.2428 46.6978L70.8521 46.606C70.7076 46.8267 70.6314 47.106 70.44 47.2897C70.0427 47.113 69.6996 46.8339 69.4457 46.481C69.0843 45.8949 69.1195 45.9067 69.266 45.1468C69.3675 44.6213 70.0727 44.5608 70.5103 44.5608C70.7584 44.5608 71.6237 45.0999 71.6628 45.1312C71.5221 45.3569 71.3115 45.5305 71.0631 45.6254C70.647 45.2347 70.1958 44.8225 69.7074 45.4086C69.5941 45.7348 69.8559 46.1001 70.1782 46.2954ZM67.42 28.1914C67.4532 28.4512 67.3731 28.7774 67.4024 29.1094C67.4591 29.717 67.883 29.9826 67.3595 31.7055C67.0645 32.6822 67.5157 32.7642 67.3829 33.5261C67.2716 34.157 66.8281 34.3973 66.5508 34.6864C66.2577 34.8212 65.2185 34.7098 65.0564 34.7313L63.5914 34.6454C63.3316 34.282 63.5621 33.7527 63.5269 33.2604C63.5093 32.9987 63.4058 32.8854 63.3316 32.6353C62.894 31.0414 63.7457 31.4359 63.4878 30.049C63.3999 29.5822 63.3863 29.881 63.2437 29.5294C63.314 29.1387 63.607 29.0567 64.0152 29.0372C64.9412 30.8538 63.857 31.0121 64.3571 32.4204C64.5055 32.8443 64.4411 33.2174 64.4489 33.6511C65.0584 33.5163 65.2478 33.7312 65.7264 33.6745C66.039 33.6374 66.3749 33.2604 66.5078 33.0553C66.498 32.5865 66.2519 32.2622 66.2851 31.7426C66.3144 31.2914 66.5664 31.0667 66.6758 30.6702C66.9512 29.6701 66.2851 29.9787 66.4296 28.3437C66.6894 28.1288 66.9649 27.9335 67.42 28.1992V28.1914ZM53.7463 29.5978C53.7345 28.9102 53.967 28.3027 54.0158 27.998C54.098 27.5129 54.2738 27.0485 54.5335 26.6306C54.663 26.4399 54.8032 26.2566 54.9535 26.0817C55.6254 25.105 56.27 24.8081 56.5279 24.394C56.7506 24.0345 59.2138 22.5343 59.5986 22.4406C60.8468 22.171 61.6595 22.0811 62.7612 22.5285C63.2964 22.7453 63.4761 22.9953 63.8219 23.3352L64.6638 24.3608C64.781 24.5561 65.9354 25.9528 66.2656 26.49C66.5234 26.9138 66.9063 27.0545 66.8105 27.7128L66.1425 27.8671C66.0136 27.5389 65.3143 26.654 65.0896 26.3552C64.822 26.0016 64.2399 25.1089 63.9293 24.9214C63.6343 25.0249 63.5015 25.2183 63.2495 25.3824C62.2377 26.0407 62.0286 25.8688 60.8859 25.986C60.2491 26.0524 59.7256 25.7711 59.2822 25.5308C58.9911 25.3726 58.9423 25.2281 58.6805 25.0894C58.2391 24.853 58.4461 24.894 58.1922 24.5268C57.6863 24.7006 55.5239 26.949 55.0941 27.7323C54.8128 28.246 54.5276 29.5958 54.5647 30.2229C54.6018 30.8089 54.4983 31.1781 54.4886 31.6684C54.4788 32.0708 54.5061 32.5572 54.5061 32.9635C53.9377 33.3053 53.8185 33.2741 53.5744 33.0983C53.5236 32.3736 53.7658 30.3225 53.7541 29.6056L53.7463 29.5978ZM60.9973 33.8562C60.841 34.5106 59.9541 34.9677 59.5576 35.0282C59.1611 35.0888 58.2938 34.9931 57.9949 34.8329C57.3093 34.4578 57.3151 34.9794 56.5396 34.8466C55.309 34.6356 56.1626 34.5223 55.0746 34.6336C53.295 34.8173 54.0471 33.3542 54.7308 33.4225C55.2308 33.6179 55.7563 33.9871 56.3755 33.8699C56.9436 33.7348 57.5411 33.804 58.0633 34.0652C58.2371 34.1023 59.29 33.9558 59.6162 33.569C59.9424 33.1823 59.6846 32.6568 59.8115 32.0395C59.9209 31.4887 60.2472 30.8128 59.9288 30.3342C59.6943 29.9826 59.3427 29.4611 58.6923 29.5861C58.157 29.6916 57.6355 29.715 57.5573 30.5471C57.362 32.5611 58.5457 31.9282 58.6278 31.6567C58.6122 31.2777 58.4325 31.2484 58.1805 31.0355C58.1707 30.5667 58.243 30.7562 58.536 30.4319C59.542 30.4612 58.9267 30.5335 59.497 31.0179C59.5107 32.3267 59.2744 33.0748 57.7722 32.9342C57.2467 32.8834 56.8658 32.6021 56.8326 32.0806C56.7994 31.559 56.6744 31.0609 56.8443 30.5178C56.9615 30.1428 57.2487 29.4865 57.4694 29.3458C57.8816 29.0899 58.9501 28.7149 59.4677 28.9239C59.9854 29.1329 60.2374 29.1681 60.6085 29.5822C61.1223 30.1565 61.2864 31.055 60.9992 31.6371C60.6242 32.481 61.1301 33.3424 61.0051 33.864L60.9973 33.8562ZM47.2434 52.3118C47.4212 51.9856 47.1028 52.1165 47.8919 51.0968C48.1439 50.7745 48.6948 50.04 49.2808 50.0752C49.2554 50.88 48.6167 51.5696 48.0932 51.9876C47.9783 52.0796 47.8699 52.1794 47.7689 52.2864C47.5599 52.4818 47.4075 52.7435 47.0286 52.6771C47.0774 52.3939 47.1555 52.474 47.2434 52.3118ZM44.118 50.9445C44.2646 51.1454 44.4641 51.3016 44.6942 51.3957C44.9873 51.5617 45.3408 51.9075 45.8311 52.1946L49.4039 54.4274C50.5525 55.1032 51.4823 55.7557 52.8731 55.8065C53.4591 55.8279 54.262 55.4646 54.3831 56.0721C54.0666 56.4042 53.127 56.4003 52.5938 56.3671C52.0937 56.3339 50.1423 55.5467 49.5328 55.2693C49.4025 55.2189 49.2786 55.1533 49.1636 55.0739C48.9937 54.9509 49.062 54.947 48.9155 54.8376L45.6553 52.9369C44.997 52.5306 43.237 51.7258 43.196 51.2433C43.4988 51.0265 43.7566 51.0246 44.1219 50.9523L44.118 50.9445ZM55.1898 59.977C54.846 59.7425 52.2207 58.8538 51.3944 58.4455C49.8317 57.6759 48.1107 57.0254 46.5969 56.1971C45.251 55.4627 42.9401 54.6168 41.3227 54.4391C39.1036 54.1832 38.6485 53.9273 36.8064 53.6226C36.5349 53.5776 36.2849 53.5581 36.0075 53.5112C35.5817 53.4429 35.5563 53.5112 35.3668 53.3159C35.527 53.0502 35.6637 53.0854 36.0017 53.0698C36.3396 53.0541 36.5095 52.9799 36.8338 52.9604C37.8769 52.8959 39.0529 52.765 40.1311 52.851C42.0948 53.0299 44.0253 53.4734 45.8702 54.1695C47.2981 54.7028 48.308 55.3083 49.482 55.8065C50.656 56.3046 51.8261 57.1738 52.8438 57.7598C53.8615 58.3459 53.34 58.1212 53.8498 58.4826L54.932 59.1995C55.9087 59.682 55.2523 59.4124 55.7133 59.7347C56.3912 60.2172 56.0864 60.5864 55.1937 59.9848L55.1898 59.977ZM55.7544 49.1571L55.7719 49.6533C55.4809 49.9111 55.5981 50.0068 55.016 49.7802C54.43 50.0869 53.4806 50.9308 53.043 51.2648C52.3359 51.8079 50.154 53.3745 49.6109 53.4565C49.6715 53.1459 49.8219 53.0971 50.1794 52.8275C50.3942 52.6634 50.5583 52.5345 50.822 52.3626C51.2557 52.0813 51.7987 51.7297 52.1738 51.4328C52.6211 51.0792 53.0665 50.7804 53.4591 50.4366C53.663 50.2455 53.884 50.0735 54.1194 49.9228L54.7601 49.4364C54.684 49.2029 54.5741 48.9818 54.4339 48.7801C54.2698 48.5301 54.553 48.7332 54.178 48.5477C53.0782 48.0007 53.1153 47.8855 52.1191 47.2193L50.6599 45.852C50.2507 46.012 49.8634 46.2234 49.5074 46.481L48.98 46.8482C48.8354 46.9517 48.5424 47.0709 48.4565 47.192C49.1441 47.192 49.4605 47.3873 49.986 47.0943C50.3356 46.899 50.7322 46.5591 51.2147 46.6001C51.3612 46.813 51.1307 46.4927 51.283 46.7369C51.4784 47.065 51.3377 46.6861 51.535 47.0103C51.4569 47.274 51.4393 47.2057 51.2205 47.2975C50.8298 47.4674 50.9256 47.6335 50.0153 47.9499C50.2634 48.9461 50.8924 48.6199 50.6013 51.1007L49.4918 51.9212C48.6596 52.7123 47.8939 52.8471 48.5913 52.1263C49.2164 51.4777 49.3902 51.427 49.8903 50.9542C49.8304 50.1545 49.6322 49.3713 49.3043 48.6395C49.189 48.4187 48.5542 48.0984 48.2904 47.9734C48.3334 48.4637 48.4858 48.5594 48.5756 48.9501C48.771 49.7548 48.8979 49.5107 48.7065 49.8877C48.2299 49.9756 48.0912 49.6025 47.8939 49.3564C47.683 49.0832 47.5217 48.7751 47.4173 48.4461C47.179 47.4205 47.6439 46.9166 48.0932 46.4478L49.7145 45.305C51.2362 44.5119 50.4411 44.6995 51.6464 44.5491C51.5096 44.2932 50.8865 43.9259 50.6189 43.799C49.7223 43.3712 49.9899 43.2579 49.4156 43.2911C49.4156 42.7812 49.5445 42.6347 49.8278 42.4023L52.4551 44.5862C52.6133 44.7092 52.584 44.6565 52.7246 44.6682C52.6192 44.8636 52.582 44.8245 53.2833 45.0589C53.674 44.8323 53.7131 44.4026 54.0764 44.4182C54.1467 44.5666 54.1623 44.5295 54.0959 44.7815C54.0759 44.9101 54.0284 45.0329 53.9566 45.1414C53.8848 45.25 53.7904 45.3418 53.6798 45.4105C53.2892 45.6859 53.0567 45.6293 52.5879 45.5062L52.3926 45.7016C52.4488 45.9025 52.5393 46.0921 52.6602 46.2622C52.7472 46.4437 52.8526 46.6159 52.9747 46.7759C53.2312 47.0545 53.4669 47.3515 53.6798 47.6647C53.9164 47.9587 54.2035 48.208 54.5276 48.4011C54.5637 48.4171 54.6018 48.4276 54.6409 48.4324C54.7908 48.4292 54.9374 48.4767 55.057 48.5672C55.2224 48.6413 55.3536 48.7753 55.4242 48.9422C55.7739 48.786 55.8755 48.4871 56.3306 48.45C56.1861 48.8914 56.1314 49.0047 55.7583 49.1649L55.7544 49.1571ZM51.0564 47.9421C51.1111 47.737 51.1795 47.5377 51.2518 47.3326C51.7909 47.1959 51.6913 47.2311 52.0546 47.567C52.25 47.7507 52.4961 47.8601 52.7012 48.0261C52.8536 48.1472 52.8282 48.1882 52.9864 48.2957C53.2579 48.4793 53.8224 48.6063 53.885 48.954C53.2989 49.2255 53.004 48.8778 52.4492 48.6238C52.1972 48.5066 51.9609 48.4285 51.744 48.2957C51.5378 48.1418 51.3065 48.0248 51.0604 47.9499L51.0564 47.9421ZM52.5527 44.1095C52.6211 43.7189 52.879 43.4513 52.9434 43.0059C53.0567 42.2441 53.0001 42.1913 53.2169 41.9589C53.9455 42.0507 53.6076 42.5449 53.9982 43.2735C54.1506 43.5724 54.3616 43.7755 54.3362 44.1154C54.1799 44.4826 53.6818 44.1799 52.8672 44.4572L52.5527 44.1095ZM59.6475 37.6634C59.1318 37.6634 58.7313 37.7493 58.1961 37.7747L55.223 37.8333C54.7015 37.8528 54.2229 37.8157 53.7033 37.8333C52.7051 37.8626 51.7147 37.8528 50.7302 37.8821C49.7457 37.9114 48.6479 37.8821 47.679 37.9251C47.8744 37.4348 47.9017 37.7962 48.8628 37.3528C49.1792 37.2063 49.8844 37.2082 50.3083 37.0676C51.1443 36.7863 52.2089 36.6202 53.1505 36.4542C54.8323 36.1573 57.6999 36.042 59.5107 35.8936C61.5012 35.7275 63.9313 36.1729 65.7108 36.6144C66.5683 36.8273 67.6193 37.218 68.4299 37.3567L70.5786 37.8079C70.8482 37.8528 71.0689 37.8665 71.2037 38.0443C70.7388 38.3607 66.162 37.7044 65.5662 37.6536C62.9741 37.4192 62.0033 37.6536 59.6514 37.6614L59.6475 37.6634ZM85.7038 57.4981C85.2623 57.459 84.6919 57.4219 84.2641 57.4004C83.7972 57.375 83.2874 57.4649 82.8069 57.459C82.3615 57.459 81.9044 57.3985 81.4258 57.4063C79.6111 57.4356 77.3979 57.4454 75.6243 57.6153C73.7685 57.7911 71.8269 57.7462 69.9809 57.963C69.0257 58.0743 68.1643 58.2091 67.2462 58.2658C66.4316 58.3166 64.9509 58.6408 64.6149 58.6565C64.5837 58.2345 64.6872 58.3244 65.1072 58.213L67.0371 57.6583C67.5196 57.5333 67.797 57.3321 68.2443 57.2051L69.5238 56.8144C70.3989 56.5761 71.4381 56.5038 72.368 56.3417C74.7999 55.9158 76.0579 55.8787 78.5895 55.8865C79.6561 55.8865 80.6621 55.994 81.7013 56.0721C82.6523 56.1592 83.5948 56.3219 84.52 56.5585L85.8229 56.9199C86.4968 57.0723 86.1823 56.9629 86.7723 57.2266C87.0477 57.3496 86.8758 57.1875 87.0457 57.3809C86.8231 57.7364 86.0612 57.5294 85.7038 57.4981ZM104.243 41.8983C104.101 42.0936 103.343 41.8065 102.511 41.8065C102.052 41.8065 100.526 41.6268 100.118 41.4041L98.5024 40.2399L97.9672 40.6071C96.8596 41.3494 96.5998 41.6952 96.0138 42.1073C95.0468 42.793 95.3164 43.2794 94.6737 43.1817C94.7304 42.916 94.7128 42.9863 94.8691 42.7695C94.955 42.6582 95.0078 42.5937 95.1133 42.4609C96.3751 40.8591 95.6856 41.2595 97.3792 39.9586C97.7874 39.646 98.4868 38.9819 98.9067 38.9487C99.0669 39.1245 99.0239 39.1772 99.2193 39.3784L99.9557 40.0934C100.571 40.6794 101.473 41.2224 102.36 41.2009C102.165 40.8591 101.852 40.8708 101.579 40.6149C101.348 40.3961 100.921 39.3921 100.589 38.9077L100.026 38.1673C100.128 38.0267 100.038 38.2279 100.159 37.9857L101.136 38.1478C101.233 38.8393 101.382 38.9428 101.63 39.4527C101.755 39.7105 101.78 39.9117 101.872 40.1129C101.979 40.3473 102.138 40.3297 102.333 40.4762L103.593 41.4314C103.749 41.5369 104.386 41.7127 104.243 41.8983ZM94.0604 43.0196C94.1218 42.6571 94.2133 42.3003 94.3338 41.953C94.4471 41.6991 94.5722 41.4393 94.7245 41.113L95.7012 39.5855C96.0743 39.103 98.2602 37.3176 98.5786 37.3996C98.7983 37.5469 98.9819 37.7419 99.1158 37.97C99.1411 38.179 98.1117 38.8608 97.7484 39.1421L96.2677 40.1481C95.838 40.6071 95.584 41.0876 95.1836 41.6229C94.3143 42.7793 94.7187 42.9746 94.0604 43.0196ZM96.4982 32.4478C96.7131 32.3013 96.5705 32.2896 96.9104 32.104C97.086 31.9914 97.2758 31.9027 97.4749 31.8403C97.5288 31.8262 97.5802 31.8038 97.6273 31.7739C97.807 31.684 97.5609 31.7622 97.766 31.6918C97.8731 31.6608 97.9851 31.6502 98.0961 31.6606C99.4635 31.7133 98.7446 32.2251 99.4635 33.4968C99.8541 33.3639 99.776 33.1061 100.003 32.8932C100.23 32.7171 100.499 32.6021 100.784 32.5591C101.626 32.4107 101.878 32.3365 102.466 32.8541C101.88 33.485 100.862 32.776 100.575 33.3991L100.38 34.0398C99.8678 35.2236 100.085 34.536 100.352 35.6377C100.467 36.1124 100.458 35.9991 100.686 36.335C100.831 36.548 100.938 36.8371 101.138 36.9211C101.428 37.0029 101.726 37.0598 102.026 37.091C102.612 36.7257 103.075 36.4112 102.987 35.4814C102.909 34.6512 102.644 34.2058 102.47 33.4929C102.601 33.2975 102.513 33.3678 102.718 33.2526C103.642 33.737 103.429 34.5711 103.499 35.0419C103.653 36.0909 104.138 36.8 102.718 37.6184C102.145 37.9446 101.175 37.8001 100.675 37.5344C100.35 37.3645 100.35 37.1574 99.9909 36.9777C99.9655 36.6828 100.132 36.9074 99.944 36.6105C99.8033 36.3878 99.4693 36.2081 99.397 35.4834C99.2173 33.6862 99.358 34.6766 99.5318 33.7253C99.3794 33.7708 99.2187 33.7816 99.0615 33.7569C98.9043 33.7322 98.7547 33.6727 98.6235 33.5827C98.4838 33.3237 98.3887 33.0431 98.3422 32.7525C97.8773 32.6861 97.9515 32.6119 97.6097 32.8658C97.6055 33.0635 97.6533 33.2589 97.7484 33.4323C98.5297 33.4323 98.0297 33.3776 98.6489 33.6823C98.475 34.073 98.4321 33.6823 98.3578 34.159C97.9946 34.2357 97.6231 34.2665 97.2522 34.2508C96.799 33.612 97.0256 33.2506 96.7092 32.7877L96.1232 32.8443C96.1739 32.4615 96.256 32.6216 96.4982 32.4478ZM102.692 35.9639C102.692 36.8957 102.106 36.5909 101.809 36.5382L100.991 36.3722C100.757 36.2081 100.184 34.7215 100.405 34.3524C100.509 34.1765 100.6 34.2605 100.761 34.0164C101.134 33.4831 101.493 33.5065 101.997 33.989C102.175 34.157 102.698 35.372 102.7 35.9659L102.692 35.9639ZM93.9295 35.7686C94.5155 35.7256 95.5196 35.6182 95.9923 35.3935C97.0881 34.872 97.2757 34.2898 98.2074 34.8583C98.1605 35.165 98.057 35.1591 97.8167 35.2919C96.7287 35.9112 97.1233 35.542 96.045 35.878C94.9296 36.2198 95.9571 36.0323 94.6776 36.1202L93.3474 36.0362C93.5154 35.7686 93.5779 35.7979 93.9373 35.7705L93.9295 35.7686ZM93.4997 36.4972C93.9256 36.3507 95.5332 36.4972 95.9766 36.4093C96.3959 36.3032 96.8203 36.2191 97.2483 36.1573L98.4946 35.9834C98.6098 36.1241 98.9048 36.587 98.7954 36.8214C98.436 36.9406 97.8363 36.9289 97.389 36.925C96.0216 36.9132 97.2678 37.259 94.7245 36.8429C94.2557 36.7667 93.7029 36.8429 93.2946 36.7472C93.3728 36.4991 93.1774 36.6183 93.5076 36.4991L93.4997 36.4972ZM92.9137 42.8066L93.3415 38.2084C93.5486 37.345 93.3689 37.007 93.7888 37.1086C93.8 37.1254 93.8098 37.143 93.8182 37.1613C93.9021 37.4387 93.8182 38.1869 93.7556 38.8842C93.6931 39.4898 93.6033 39.9937 93.5603 40.5973L93.2732 43.2051C93.1325 44.0177 93.1813 43.7638 93.0251 43.84C92.8512 43.6485 92.9274 43.2754 92.9274 42.8086L92.9137 42.8066ZM91.2592 45.1937C91.269 44.9397 91.3784 44.971 91.6147 44.8499C92.316 44.4963 96.6037 43.3594 97.3108 43.3458L99.4595 43.3321C99.9225 43.3555 100.241 43.4591 100.704 43.502C102.281 43.6907 103.83 44.0617 105.322 44.6077C106.689 45.1175 106.91 45.4339 107.545 45.6957C107.63 45.7252 107.709 45.771 107.777 45.8305C108.363 46.2094 108.949 46.2212 109.051 46.6118C108.74 46.729 107.281 46.4712 106.945 46.311C106.609 46.1508 106.334 46.0258 106.048 45.891C105.763 45.7563 105.443 45.6957 105.122 45.5746C104.429 45.3509 103.713 45.2035 102.987 45.1351C100.565 44.8323 101.249 44.6487 98.4203 44.8421C97.7308 44.8889 96.8674 45.1058 96.1407 45.1214C94.5448 45.1585 92.9294 45.2699 91.2729 45.1956L91.2592 45.1937Z" fill="black"/>
</svg>
