<svg width="152" height="113" viewBox="0 0 152 113" fill="none" xmlns="http://www.w3.org/2000/svg">
<path fill-rule="evenodd" clip-rule="evenodd" d="M15.2871 101.955C16.8292 102.132 19.3146 101.983 20.9381 101.983C22.4442 101.983 24.7309 101.983 25.8348 101.229C27.7504 99.9337 28.1119 96.84 26.7088 95.2069C26.2299 94.6538 25.751 94.4766 24.9057 94.1079C25.205 93.7583 25.5786 93.89 26.285 92.9873C27.4223 91.5362 27.0871 88.6125 25.1045 87.6188C23.7995 86.9651 21.9917 87.1591 20.4328 87.1591C18.874 87.1591 16.8172 87.0442 15.3158 87.1806L15.2871 101.955ZM19.4655 90.2073C21.1177 90.1259 22.9351 89.8912 22.9087 91.5817C22.8824 93.2243 21.1368 93.0567 19.4296 92.9226L19.4655 90.2073ZM19.4344 95.8104C21.2637 95.6595 23.4882 95.4608 23.4355 97.338C23.3876 99.1507 21.1799 98.8849 19.4391 98.8011L19.4344 95.8104Z" fill="white"/>
<path fill-rule="evenodd" clip-rule="evenodd" d="M50.3975 101.921C50.929 102.07 53.7689 102.005 54.4681 101.969C54.5255 101.081 54.2454 98.6167 54.6668 98.1378L56.5992 95.9827L59.4055 101.995H64.4124C64.2974 101.545 63.4546 100.149 63.1984 99.6607C62.7817 98.8824 62.3723 98.1426 61.9484 97.3739C61.5246 96.6053 59.5587 93.1453 59.4342 92.6664L63.0116 88.5958C63.4346 88.1483 63.8213 87.6679 64.1681 87.1591H58.8045L56.671 89.9295C56.2975 90.4084 54.8129 92.4221 54.5016 92.6616L54.4848 87.1687H50.4142L50.3975 101.921Z" fill="white"/>
<path fill-rule="evenodd" clip-rule="evenodd" d="M110.559 101.964L114.629 101.986C114.704 101.028 114.39 98.746 114.823 98.1665C114.972 97.9606 115.128 97.8385 115.302 97.6302C115.447 97.4397 115.603 97.2581 115.769 97.0866C116.071 96.7729 116.43 96.2845 116.727 95.9516C116.99 96.1911 119.215 101.219 119.555 101.971H124.583L119.61 92.7885C119.888 92.2067 124.136 87.6212 124.327 87.1495H118.947L116.806 89.9415C116.497 90.339 114.862 92.5562 114.651 92.6401V87.1495H110.585L110.559 101.964Z" fill="white"/>
<path fill-rule="evenodd" clip-rule="evenodd" d="M130.677 87.0059C126.161 87.7913 124.746 91.826 125.246 95.9612C125.771 100.286 128.556 102.795 133.373 102.175C137.544 101.639 139.336 97.8648 138.854 93.1932C138.423 88.9885 135.449 86.175 130.677 87.0059ZM131.587 90.4396C133.871 90.0397 134.712 91.9672 134.81 94.0049C134.913 96.16 134.594 98.4467 132.583 98.7699C130.158 99.1602 129.389 97.2231 129.281 95.1184C129.169 92.8819 129.59 90.7868 131.587 90.4396Z" fill="white"/>
<path fill-rule="evenodd" clip-rule="evenodd" d="M64.8911 101.952L69.0599 101.983L69.7088 99.5577H74.3733L75.0269 101.952L79.2748 101.976L74.323 87.1591H69.8644L64.8911 101.952ZM70.6379 96.318C70.7025 95.6188 71.1168 94.4024 71.3179 93.6673L71.9788 91.3015L73.4634 96.3156L70.6379 96.318Z" fill="white"/>
<path fill-rule="evenodd" clip-rule="evenodd" d="M94.3865 101.955L98.5553 101.983L99.2018 99.5601H103.866L104.52 101.955L108.765 101.986L103.826 87.1591H99.3718L94.3865 101.955ZM100.148 96.3204C100.188 95.772 101.077 92.7526 101.345 91.7589C101.374 91.6535 101.393 91.5458 101.426 91.4452L101.599 91.1746L102.964 96.3156L100.148 96.3204Z" fill="white"/>
<path fill-rule="evenodd" clip-rule="evenodd" d="M12.9309 97.156C12.294 96.8831 9.98811 96.0474 9.35597 95.9588C8.98243 97.6182 8.35987 99.0716 6.28625 98.7819C4.58617 98.5424 4.21023 96.804 4.16953 95.0202C4.12643 93.1046 4.34432 91.3518 5.64692 90.6359C6.94952 89.9199 8.66397 90.3964 9.20033 92.3958L12.7921 91.5218C12.6101 89.951 11.2141 88.2869 10.2659 87.717C7.48109 86.0409 -0.202795 86.0121 0.0749644 95.0202C0.182716 98.461 1.7511 101.665 5.51522 102.158C7.5218 102.421 9.26019 102.208 10.6586 101.2C11.6906 100.446 12.6556 98.9878 12.9429 97.1632" fill="white"/>
<path fill-rule="evenodd" clip-rule="evenodd" d="M29.1631 90.7341C29.9293 90.952 32.3166 90.7341 33.3247 90.8203L33.3558 101.969L37.4264 101.983L37.4504 90.8322L41.6335 90.7939V87.183L29.1822 87.1615L29.1631 90.7341Z" fill="white"/>
<path fill-rule="evenodd" clip-rule="evenodd" d="M151.998 101.933V98.3413L145.616 98.3221L145.597 87.1591L141.553 87.1974L141.515 101.938C142.152 102.065 151.332 102.058 152 101.938" fill="white"/>
<path fill-rule="evenodd" clip-rule="evenodd" d="M27.4175 112.828L28.6842 112.852L28.7033 109.32C29.084 109.957 29.2804 112.538 29.8287 112.859H30.8176L31.4618 110.359C31.5551 109.983 31.5551 109.782 31.7754 109.492L31.7994 112.816L33.0493 112.871V107.855L31.0595 107.843C30.8009 108.427 30.4393 110.055 30.2693 110.783C29.9197 110.266 29.7545 108.494 29.4049 107.847H27.4486L27.4175 112.828Z" fill="white"/>
<path fill-rule="evenodd" clip-rule="evenodd" d="M130.021 109.272C130.289 109.691 130.795 112.105 131.003 112.864L132.147 112.833L133.105 109.346L133.132 112.859L134.386 112.838L134.353 107.847H132.392C132.03 108.566 131.942 110.041 131.573 110.721C131.199 110.144 131.07 108.578 130.737 107.833L128.745 107.85L128.759 112.852H130L130.021 109.272Z" fill="white"/>
<path fill-rule="evenodd" clip-rule="evenodd" d="M35.4391 109.27C35.6905 109.686 36.2221 112.143 36.4137 112.861C37.8839 112.861 37.4553 113.233 38.2263 110.251C38.2662 109.946 38.3716 109.653 38.5352 109.392L38.5519 112.864L39.8042 112.838L39.7731 107.852H37.8192C37.5007 108.472 37.2852 109.99 37.0123 110.75C36.5813 110.146 36.5022 108.616 36.1646 107.85L34.1628 107.862L34.182 112.871H35.4247L35.4391 109.27Z" fill="white"/>
<path fill-rule="evenodd" clip-rule="evenodd" d="M68.8755 112.809C69.5483 112.955 72.2086 112.888 72.7617 112.646C73.0075 112.535 73.2121 112.349 73.3466 112.116C73.4811 111.882 73.5387 111.612 73.5112 111.343C73.4753 110.548 73.0012 110.491 72.575 110.132C73.6429 109.631 73.4585 108.295 72.4457 107.943C72.0194 107.795 69.4047 107.773 68.909 107.879L68.8755 112.809ZM70.4702 109.799L70.4558 108.86C71.3298 108.822 71.7513 108.712 71.7369 109.536C71.3562 109.907 71.1 109.832 70.4702 109.799ZM71.0521 111.772L70.4463 111.755L70.4702 110.773H70.9491C71.6243 110.773 71.9739 110.745 71.9189 111.453C71.6435 111.796 71.622 111.772 71.0521 111.772Z" fill="white"/>
<path fill-rule="evenodd" clip-rule="evenodd" d="M48.3069 110.225L48.611 110.546C50.438 113.18 49.7316 112.869 51.6568 112.845L51.616 107.831L50.1913 107.879L50.1746 110.46C50.0333 110.357 50.0932 110.424 49.9734 110.299C49.9734 110.287 49.8417 110.122 49.8393 110.12L48.2853 107.85C47.6604 107.802 46.9348 107.699 46.8486 108.029V112.845H48.2853L48.3069 110.225Z" fill="white"/>
<path fill-rule="evenodd" clip-rule="evenodd" d="M118.642 110.637C119.136 110.338 119.548 110.196 119.665 109.526C119.73 109.253 119.709 108.966 119.605 108.705C119.5 108.444 119.318 108.221 119.083 108.068C118.492 107.701 116.023 107.828 115.17 107.85L115.192 112.857H116.724V110.84C117.462 110.84 117.816 111.798 118.334 112.859H120.048C119.835 112.172 119.308 111.214 118.733 110.742C118.733 110.742 118.69 110.723 118.681 110.694C118.671 110.666 118.647 110.661 118.633 110.644M116.756 108.867C117.347 108.836 118.106 108.743 118.123 109.332C118.137 109.986 117.234 109.892 116.712 109.856L116.756 108.867Z" fill="white"/>
<path fill-rule="evenodd" clip-rule="evenodd" d="M90.2439 112.842C92.7629 113 94.87 113.103 94.8533 110.333C94.8365 107.598 92.7533 107.661 90.2846 107.85L90.2439 112.842ZM91.8266 111.686L91.8051 108.987C92.9305 108.906 93.2897 109.227 93.3016 110.333C93.3136 111.521 93.0191 111.822 91.8266 111.686Z" fill="white"/>
<path fill-rule="evenodd" clip-rule="evenodd" d="M26.4094 111.243C27.4606 107.285 22.2359 106.653 21.4385 109.428C20.3131 113.343 25.648 114.104 26.4094 111.243ZM23.5768 108.997C25.229 108.4 25.3511 111.329 24.3334 111.707C23.5073 112.014 22.9638 111.418 22.8967 110.728C22.8057 109.868 22.9326 109.229 23.5768 108.997Z" fill="white"/>
<path fill-rule="evenodd" clip-rule="evenodd" d="M108.181 110.939C108.847 106.978 103.557 106.796 103.083 109.722C102.801 111.461 103.596 112.672 105.035 112.895C106.742 113.163 107.93 112.43 108.181 110.939M105.308 108.985C106.938 108.48 107.087 111.353 106.074 111.703C105.219 111.995 104.685 111.463 104.606 110.745C104.508 109.873 104.64 109.188 105.303 108.985H105.308Z" fill="white"/>
<path fill-rule="evenodd" clip-rule="evenodd" d="M109.275 107.845C109.172 108.379 109.187 110.984 109.311 111.465C109.582 112.514 110.317 112.902 111.564 112.933C114.648 112.991 114.016 110.5 114.031 107.838L112.479 107.864C112.479 108.688 112.479 109.512 112.479 110.333C112.479 111.154 112.479 111.813 111.564 111.77C110.164 111.7 111.1 109.433 110.721 107.838L109.275 107.845Z" fill="white"/>
<path fill-rule="evenodd" clip-rule="evenodd" d="M40.9679 107.84C40.8577 108.393 40.8793 110.953 41.0062 111.475C41.2624 112.517 42.0454 112.912 43.2642 112.933C46.3435 112.988 45.7066 110.484 45.7281 107.838L44.1765 107.874C44.1765 108.693 44.1765 109.514 44.1765 110.333C44.1765 111.152 44.1597 111.798 43.2618 111.77C41.8682 111.724 42.7829 109.464 42.4165 107.838L40.9679 107.84Z" fill="white"/>
<path fill-rule="evenodd" clip-rule="evenodd" d="M85.1055 112.833L89.3126 112.857L89.3293 111.746L86.681 111.7L86.6571 110.79L89.03 110.726L89.0659 109.715L86.6715 109.698L86.6523 108.98C87.2557 108.803 88.5296 108.925 89.2216 108.906L89.2336 107.852H85.139L85.1055 112.833Z" fill="white"/>
<path fill-rule="evenodd" clip-rule="evenodd" d="M124.7 111.121L123.352 111.19C123.146 113.106 126.403 113.429 127.399 112.325C128.333 111.288 127.935 110.077 126.044 109.595C125.471 109.449 124.77 109.478 125.005 108.81C125.912 108.465 125.902 108.865 126.317 109.322L127.576 109.263C127.883 108.271 126.638 107.701 125.407 107.756C124.336 107.804 123.221 108.367 123.539 109.583C123.798 110.577 124.993 110.606 125.91 110.943C126.568 111.183 126.463 111.868 125.802 111.942C125.06 112.028 124.973 111.559 124.7 111.121" fill="white"/>
<path fill-rule="evenodd" clip-rule="evenodd" d="M81.054 111.123L79.6987 111.19C79.5119 113.118 82.7349 113.446 83.7502 112.32C84.368 111.633 84.3799 110.611 83.5634 110.046C82.7469 109.48 81.212 109.591 81.2791 109.021C81.4251 108.745 81.564 108.599 82.0549 108.717C82.4212 108.805 82.4619 109.102 82.6703 109.322L84.0088 109.253C83.7286 106.82 79.1791 107.507 79.9118 109.662C80.2423 110.635 81.7675 110.723 82.335 110.972C82.9025 111.221 82.7852 111.873 82.1554 111.942C81.3964 112.028 81.3413 111.573 81.054 111.123" fill="white"/>
<path fill-rule="evenodd" clip-rule="evenodd" d="M75.4031 112.854C75.7144 111.815 75.4558 112.031 77.4192 112.05L77.6587 112.85H79.2773L77.3737 107.843H75.7359L73.8706 112.854H75.4031ZM76.5644 109.243L77.0433 110.941H76.4159L75.9969 110.912L76.5644 109.243Z" fill="white"/>
<path fill-rule="evenodd" clip-rule="evenodd" d="M20.5597 111.243L19.3265 110.826C18.9841 111.343 19.0511 111.815 18.2107 111.784C16.9105 111.715 17.1068 109.354 17.885 109.009C18.6632 108.664 19.0009 109.184 19.2235 109.615L20.5357 109.337C20.1718 107.182 15.6725 106.873 15.7468 110.448C15.8162 113.819 20.3394 113.585 20.5597 111.255" fill="white"/>
<path fill-rule="evenodd" clip-rule="evenodd" d="M60.4375 107.833C60.4891 108.051 60.5908 108.253 60.7344 108.424C62.717 111.322 62.1879 110.144 62.3052 112.852L63.8425 112.826C63.9382 110.91 63.5168 111.209 64.4315 109.876C64.8122 109.32 65.5042 108.381 65.7437 107.838L64.113 107.85L63.069 109.428C62.638 108.994 62.4129 108.293 62.0394 107.826L60.4375 107.833Z" fill="white"/>
<path fill-rule="evenodd" clip-rule="evenodd" d="M101.132 109.088L102.671 109.047L102.628 107.833L97.959 107.869L97.9877 109.076L99.5393 109.105L99.5585 112.854L101.081 112.852L101.132 109.088Z" fill="white"/>
<path fill-rule="evenodd" clip-rule="evenodd" d="M55.349 109.076L56.9007 109.107L56.915 112.857L58.4427 112.854L58.4451 109.1L60.0183 109.066L59.9872 107.833L55.3203 107.867L55.349 109.076Z" fill="white"/>
<path fill-rule="evenodd" clip-rule="evenodd" d="M71.9526 29.5981C72.046 29.8376 72.671 30.3883 72.999 30.5703C73.469 30.8596 74.0084 31.0168 74.5602 31.0252C75.6425 31.0252 77.0696 30.5224 77.6012 29.9358C77.3705 29.589 77.0888 29.279 76.7655 29.0163L76.6722 29.0881C75.7766 29.9334 75.7144 30.6469 75.0822 30.4434C75.099 29.9118 76.1142 29.124 76.2795 28.6643L75.87 28.6068C75.7048 29.3611 75.5899 29.2438 75.2379 29.67C75.0367 29.9094 74.6919 30.5152 74.3902 30.4745C73.9712 30.2734 74.6297 29.6388 74.7877 29.3898L75.3528 28.6715C75.5444 28.432 75.5108 28.4775 75.4198 28.3985C75.2403 28.2453 74.941 28.8774 74.5387 29.306C74.3639 29.4928 74.1699 29.6293 74.0119 29.7849C73.8539 29.9405 73.7246 30.1728 73.5761 30.3428H73.1571C72.8601 29.5742 74.0574 29.1312 74.6129 28.3051C73.6072 28.3051 72.9368 28.8918 72.5249 29.1623C72.1634 29.4018 72.1945 29.1623 71.9622 29.5957" fill="white"/>
<path fill-rule="evenodd" clip-rule="evenodd" d="M120.814 112.847L122.361 112.828L122.318 107.838L120.807 107.874L120.814 112.847Z" fill="white"/>
<path fill-rule="evenodd" clip-rule="evenodd" d="M52.9139 112.852L54.4535 112.821L54.4224 107.838L52.9043 107.869L52.9139 112.852Z" fill="white"/>
<path fill-rule="evenodd" clip-rule="evenodd" d="M90.8018 95.9756C90.6697 95.8663 90.521 95.779 90.3612 95.717L89.9063 95.4009C93.3447 94.6442 93.8691 90.1737 91.7165 88.0953C90.7084 87.1208 88.6204 87.1591 86.9204 87.1591C84.9712 87.1591 83.0078 87.1375 81.0587 87.1591L81.0251 101.974H85.1221L85.1508 95.9875C86.7432 95.851 86.985 96.8855 87.7273 98.4347C88.2924 99.6152 88.879 100.841 89.4346 101.957H94.0176C93.8452 101.287 91.8051 96.7969 90.8018 95.9756ZM87.1598 93.0974H85.2059V90.248C86.1206 90.248 86.8988 90.248 87.7752 90.327C89.1448 90.3773 89.6022 92.9705 87.1598 93.0974Z" fill="white"/>
<path fill-rule="evenodd" clip-rule="evenodd" d="M121.894 75.4094L119.646 71.7937C119.511 71.5822 119.389 71.3623 119.282 71.1352L117.39 68.1182C117.079 67.6393 115.992 65.9632 116.013 65.6016L151.387 66.1667C151.356 65.8626 151.104 65.5369 150.925 65.2592C150.745 64.9814 150.618 64.718 150.427 64.3996L146.816 58.3511C145.461 55.9806 143.435 52.8438 142.209 50.5858L140.138 47.1521C139.989 46.8568 139.822 46.5712 139.637 46.2973C139.158 45.6436 136.285 40.7349 135.507 39.4084C135.342 39.1282 135.152 38.8648 134.98 38.5751L133.45 35.9579C132.358 34.2459 130.962 31.7317 129.858 29.8975C127.464 25.9226 125.11 21.8233 122.675 17.8437L118.542 10.926C118.214 11.0362 118.027 11.4815 117.836 11.7761C117.722 11.9261 117.622 12.0864 117.539 12.255L114.977 16.2825C113.48 18.5907 111.837 21.2845 110.338 23.5066C109.941 24.0957 109.567 24.6799 109.175 25.3073C108.413 26.5237 107.647 27.7017 106.869 28.9325L101.105 38.0028C100.897 38.3572 100.255 39.552 99.8626 39.7172C99.2879 38.3763 96.9509 34.9786 96.0625 33.4293C94.9922 31.5616 93.4071 29.2079 92.2314 27.1821C91.9608 26.7032 91.7046 26.4063 91.4388 25.9322L90.7205 24.7086C90.1769 23.9903 89.7268 23.0325 89.2024 22.2447C87.6627 19.9436 86.0728 17.075 84.5834 14.8218C84.344 14.4675 84.0063 13.9167 83.81 13.5671C82.8019 11.7593 81.0994 9.23312 79.9669 7.32232L79.1791 6.07959C78.6762 5.22715 75.652 0.205925 75.3599 0C74.1052 1.84136 72.7259 4.32922 71.4569 6.24002L69.0911 9.99456C68.8517 10.3202 68.696 10.5621 68.4949 10.9045L60.1142 24.2154C59.3145 25.4126 58.6057 26.6099 57.8347 27.7832L55.6294 31.3366C54.8488 32.4931 54.1424 33.6903 53.3761 34.8469L51.2834 38.18C51.1325 38.3883 51.2451 38.2518 51.0918 38.3572C50.9098 38.2351 50.0646 36.7864 49.9544 36.5805C49.3247 35.3713 47.56 32.6128 46.7434 31.236L42.4597 24.1627C41.7102 22.8817 41.023 21.797 40.3047 20.571C38.2694 17.1517 35.93 13.5025 33.8683 10.0017L33.6624 9.95864L25.2362 23.5761C23.9552 25.7574 22.303 28.2142 21.0387 30.3931C20.0019 32.1818 17.6864 35.5868 16.8172 37.1887L9.46137 49.0653C9.07586 49.6591 8.7119 50.2242 8.38864 50.7893L0.067822 64.1721C-0.0758468 64.56 0.0438772 64.3301 0.106134 64.4115C0.268958 64.5456 22.5017 64.6031 25.8372 64.6318C27.2548 64.6462 28.7465 64.5935 30.1473 64.6486L34.4119 64.7348C34.4358 64.797 34.6513 64.5767 34.2969 65.1802C34.1556 65.4196 34.1293 65.4196 33.9928 65.6423C33.7821 65.9751 33.6169 66.2337 33.4086 66.5809L27.0991 76.542C26.9147 76.8413 26.7064 77.1861 26.5125 77.4806C26.3185 77.7751 26.1581 78.0385 25.9593 78.369C25.7606 78.6994 25.4445 78.9604 25.4158 79.3411C25.8396 79.4656 30.6837 79.4321 31.5074 79.4345C45.9916 79.4584 60.5141 79.6907 74.9792 79.7242C83.2664 79.7458 91.5466 79.8871 99.8075 79.9014C103.952 79.9014 108.121 79.9014 112.259 79.9637C113.648 79.9828 124.231 80.1433 124.689 79.9948C124.552 79.6237 124.253 79.3148 124.03 78.9245L121.894 75.4094ZM29.5606 38.1489C30.3388 36.7744 29.9342 36.8726 31.7612 35.9388C31.9408 34.72 32.2018 33.7406 33.3703 34.605C34.3281 35.3234 33.6097 36.1614 32.7932 36.6044C32.8554 37.4497 33.1069 37.0833 32.7261 37.9286C32.5453 38.3226 32.4281 38.7429 32.3789 39.1737C32.5734 39.417 32.7952 39.6371 33.0398 39.8298C33.4205 39.7508 33.6217 39.5185 33.8779 39.3317C34.6127 38.8828 35.4054 38.5364 36.2341 38.3021C36.5214 38.2399 36.5214 38.3332 36.598 38.4937C36.4376 38.6756 35.8797 38.8457 35.1613 39.4323C33.897 40.4571 33.3152 41.6568 32.7094 41.3647C32.4639 41.2222 32.2357 41.0519 32.0294 40.857L31.4427 40.359C31.4212 40.0285 31.8833 38.4865 32.0294 38.2039C31.9 37.7993 32.0054 38.18 31.8977 37.9405L31.7133 37.0953C30.7555 37.5311 31.0524 37.4449 30.516 38.2542C30.2119 38.702 29.7977 39.212 29.2278 39.212C29.144 38.8026 29.3595 38.508 29.5606 38.1489ZM33.0183 44.1734C33.0378 44.0609 33.0829 43.9544 33.15 43.8621C33.2122 43.7591 33.1955 43.807 33.2529 43.7112L33.2817 43.6562L33.6959 43.1342C34.0216 42.8253 34.1269 42.5044 34.3903 42.1357C35.1637 41.0534 35.4535 41.0414 35.8964 40.3278C36.2005 40.1985 36.2053 40.1411 36.586 40.2057C36.586 41.13 35.6067 41.9848 35.1182 42.6912C34.771 43.1892 34.2059 44.0704 34.0862 44.6259C33.8982 45.655 33.7727 46.6945 33.7103 47.7388C33.66 48.323 33.4277 48.6463 33.4182 49.0964C33.3833 49.5526 33.3193 50.0061 33.2266 50.4541C32.9656 50.5307 33.0207 50.5619 32.7621 50.4709C32.6016 50.1668 32.8794 47.9543 32.9369 47.3796C33.0279 46.4529 32.8866 45.0162 33.0183 44.1734V44.1734ZM23.165 41.3335C23.6606 40.9312 23.8833 40.6679 24.7334 40.6343C26.2347 40.5745 26.649 40.3949 27.9539 40.5529C28.3131 40.5984 28.5933 40.4763 28.9117 40.4979C28.9117 40.9767 28.7226 41.719 28.4328 41.9345C27.821 41.9203 27.2103 41.8731 26.6035 41.7933C25.3296 41.6161 25.2482 41.5251 23.9695 41.7095C23.1506 41.8292 21.769 43.1054 21.7139 42.15C22.2344 41.9492 22.7232 41.6742 23.165 41.3335V41.3335ZM21.6086 48.5864C21.6852 47.9974 22.2503 46.1752 22.1928 45.2748C22.1713 44.954 22.1569 44.6331 22.1354 44.317C22.1141 44.0393 22.066 43.7642 21.9917 43.4957C22.3125 43.0935 22.6071 43.1605 23.1075 43.2563C23.1075 43.6729 22.9974 43.5245 23.0764 44.068C23.2208 44.8676 23.1336 45.6918 22.825 46.4433C23.0884 46.35 23.1554 46.053 23.3182 45.8112C23.4811 45.5694 23.6535 45.4161 23.8115 45.2006C24.3526 44.4679 24.1898 44.1566 24.9896 44.341C25.4685 43.922 26.7783 44.0129 27.4463 44.0225C28.009 44.0225 29.5199 44.2835 29.8408 44.2021C29.9031 43.5412 30.3197 42.5954 31.0069 42.162C31.1761 42.2687 31.3101 42.4227 31.3924 42.605C31.7995 43.3233 31.5505 42.3871 32.4484 44.0417C32.1323 44.5948 32.5011 45.6843 32.0341 46.2973C31.7013 46.2566 31.7396 46.2302 31.6103 45.974C29.6947 45.7825 27.1829 44.4463 25.162 44.8797C24.6639 45.8471 22.9662 48.0596 22.7483 48.5361C22.4953 49.0393 22.3501 49.5898 22.3221 50.1524C22.0696 50.3507 21.7546 50.4526 21.4338 50.4397C21.4625 49.9273 21.5511 49.0869 21.6086 48.5864ZM38.6908 54.5726C38.188 54.587 36.7896 54.3044 36.2484 54.2063C34.2107 53.8351 33.4517 53.6843 31.3182 53.4424C30.8225 53.3849 30.3891 53.4304 29.9054 53.4065C29.5056 53.3873 29.0674 53.294 28.634 53.2892C27.578 53.2892 26.3568 53.6148 26.0839 53.6316C24.0031 53.7489 22.9088 53.7705 20.7298 53.9931C20.0115 54.065 18.8669 54.3236 18.2036 54.2877C18.3449 53.8782 18.2994 54.0482 18.7041 53.9117C19.9731 53.4855 23.414 52.3386 24.3886 52.1542C27.6666 51.5412 28.1359 51.1772 31.7468 51.6633L34.4382 52.2739C34.8165 52.4343 35.1901 52.6163 35.6163 52.7887C35.9957 52.9266 36.3606 53.1015 36.7058 53.3107C38.164 54.2948 38.7914 53.8758 38.6908 54.563V54.5726ZM39.311 41.3024C38.9255 41.1946 39.3229 41.3144 39.0428 41.1563L36.9404 40.438L37.1799 40.1147C37.6444 40.1028 37.7282 40.244 38.2023 40.3542C38.6764 40.4643 38.9015 40.699 39.2774 40.7014C39.4594 40.1602 38.856 40.098 38.3987 39.758C38.0155 39.4916 37.6572 39.1911 37.3283 38.86C37.4289 38.3955 37.2972 37.8855 37.8455 37.8711C38.0251 38.0842 37.9389 37.9358 38.0012 38.2949C38.3795 38.3859 38.2239 38.5152 38.5447 38.7738C38.9326 39.0755 39.8928 39.8226 40.094 40.1387C39.9038 40.567 39.6386 40.9578 39.311 41.2928V41.3024ZM98.2607 62.2565C98.6869 62.9557 98.5001 62.2325 98.7396 62.9748C98.8569 63.334 99.4436 64.1721 98.9192 65.3071C98.7923 65.5896 98.6438 65.8746 98.3732 65.8123C98.0188 65.6207 98.3517 65.1586 98.4379 64.6151C97.425 64.5983 97.0012 65.1514 96.7617 64.4594L98.4522 64.2511C98.5121 63.0203 97.7531 61.938 96.5367 61.8111C96.0937 62.9054 96.3595 63.231 95.859 63.425C95.4136 62.9461 95.859 62.302 95.8806 61.5382C95.4232 61.4879 95.2293 61.5573 95.1622 61.1024C95.859 61.0233 97.8249 61.5382 98.2607 62.2565ZM94.1901 64.3828C94.1901 64.3684 94.2188 64.4163 94.2332 64.4307C93.7543 64.888 93.5148 64.6414 92.7965 64.6845C92.8252 65.6423 93.8812 66.6528 94.7528 66.8395C94.8294 66.5211 94.8845 65.9943 95.1311 65.774L95.3705 65.6231C95.3825 65.5872 95.4184 65.5968 95.44 65.5824C95.61 66.3319 95.2796 66.4516 95.2436 67.17C95.8631 67.2843 96.5011 67.2449 97.1018 67.055C97.9925 66.8036 97.7076 66.5211 98.3349 66.1691C98.4738 67.17 97.188 67.5291 96.4193 67.7255C96.1416 67.7973 95.7393 67.9482 95.5789 67.9817C95.0641 68.0847 93.9458 67.9386 93.6058 67.6992C92.2314 66.7414 92.7486 67.3112 92.1021 66.3151C91.4556 65.319 91.5705 63.9207 91.9871 62.9629C92.2458 62.3642 93.3185 61.5262 93.8572 61.3562C94.5756 61.1167 94.0464 61.5956 94.5636 61.1718C94.6594 61.5262 94.4894 61.7297 94.2188 61.8901C93.7399 62.1751 93.8812 61.9332 93.5005 62.448C93.1676 62.8934 92.7821 63.4226 92.7989 64.1912L94.1901 64.3828ZM95.8782 64.05C95.9029 64.2308 95.8605 64.4145 95.759 64.5662C95.6576 64.718 95.504 64.8274 95.3274 64.8737C94.8222 64.4474 94.93 63.4896 95.8734 64.0428L95.8782 64.05ZM92.0997 56.936L92.6097 56.912C92.8803 57.2712 93.2347 57.3287 93.9602 58.0853C94.4511 58.5977 95.4759 59.3376 94.6091 60.3241C94.3146 60.6618 93.7423 60.803 93.2419 60.906C91.2616 61.3322 91.4077 61.0593 90.9336 62.5821C90.8833 62.7474 90.7971 63.3412 90.7492 63.425C90.4571 63.9231 90.4092 63.4011 90.4092 63.0778C90.4092 62.3451 90.505 61.9189 90.5361 61.2412C90.7716 61.0885 90.977 60.8937 91.1419 60.6666C91.4125 60.3146 92.7677 59.2873 92.9425 59.0072C92.6049 58.6336 92.3032 58.6336 92.1572 58.2002C92.0638 57.9297 91.9991 57.1491 92.0949 56.9288L92.0997 56.936ZM82.0429 64.979C82.2467 64.9905 82.4489 65.0225 82.6463 65.0748C83.0725 65.1969 82.9049 65.1059 82.9623 65.3621C82.7899 65.4651 81.224 65.6183 80.9294 65.1107C80.9257 65.7804 81.1725 66.4273 81.6213 66.9244C82.0701 67.4215 82.6885 67.7328 83.355 67.7973C83.4963 67.1724 83.4628 66.703 83.7789 66.4732C84.2218 66.7246 83.9561 67.2035 83.9704 67.9099C84.435 67.9554 84.7917 67.8117 85.2203 67.7159C85.7352 67.5986 85.8836 67.6704 86.3338 67.3927C87.7705 66.5067 87.0665 66.5498 87.6914 65.9081C87.7944 66.1475 87.6914 66.4253 87.6388 66.6264L87.7154 66.6599L87.804 66.7102C87.7274 67.2657 87.1527 67.8165 86.6786 68.3241C86.2045 68.8317 85.5556 68.8964 84.8085 69.1646C84.2602 69.3609 84.569 69.574 83.7669 69.3609C83.1587 69.1981 81.9303 69.2819 80.9773 68.1637C80.5686 67.5789 80.3149 66.9001 80.2398 66.1906C80.1536 64.9934 80.3763 63.9159 81.1521 63.1305C81.9279 62.3451 81.7076 62.4768 82.7325 61.9979C83.0725 61.8399 83.3838 61.6579 83.5251 62.0434C83.2186 62.2828 82.9863 62.223 82.6319 62.4912C81.9543 63.0036 81.0635 63.7339 80.9558 64.7013C81.4131 64.7946 81.5209 64.9096 82.0477 64.9718L82.0429 64.979ZM87.1599 64.1146C86.9635 63.4154 85.7998 62.6444 85.103 62.5821C85.0839 63.1832 85.0168 63.9254 84.6457 64.1888L84.3176 63.9135L84.6193 62.8575C84.6363 62.7894 84.6427 62.7192 84.6385 62.6492C84.6385 62.6324 84.6241 62.6157 84.6241 62.5821C84.6241 62.5486 84.6121 62.5366 84.6121 62.4864L84.0854 62.3547L84.1069 61.938C84.6026 61.938 86.1207 62.4481 86.5397 62.6971C87.0042 62.9724 87.8136 64.0571 87.6771 64.809C87.1599 64.7946 87.2748 64.5121 87.1599 64.1146ZM87.3538 65.695C87.2389 65.7836 87.27 65.8219 86.9396 65.8171C86.8558 65.8171 86.5301 65.7764 86.4391 65.762C86.0584 65.6974 85.9985 65.6878 85.886 65.3095C86.5613 65.3286 86.9444 65.3861 87.3538 65.695ZM84.6936 65.1011C84.6783 65.1972 84.6437 65.2892 84.5919 65.3716C84.54 65.4539 84.472 65.5248 84.3919 65.58C84.3084 65.5644 84.2292 65.5312 84.1596 65.4826C84.09 65.434 84.0315 65.3712 83.988 65.2982C83.9445 65.2253 83.9171 65.144 83.9074 65.0596C83.8978 64.9753 83.9062 64.8899 83.9321 64.809C84.2003 64.991 84.3488 64.7228 84.6936 65.1011ZM85.9962 61.1263C85.9962 61.1095 85.8309 61.0712 85.9962 60.8653C86.0991 60.7384 86.1422 60.7815 86.2811 60.7144C86.6187 60.554 88.5702 58.7989 88.8695 58.3966C88.9624 58.2345 89.0804 58.0882 89.2191 57.9632C89.7148 58.0877 90.5433 58.1284 90.7444 58.5834C89.619 58.9282 89.722 59.0168 88.5319 60.0919C87.9501 60.6211 86.3194 61.2269 85.9962 61.1263ZM89.109 65.1011C88.6732 64.0548 88.2087 62.2948 88.8552 61.0928C89.2 60.4558 90.56 58.6025 91.4556 58.8803C91.7525 59.8022 88.9198 59.4454 89.9806 63.9997C90.0596 64.3349 90.1554 64.5863 90.2368 64.9287C90.3613 65.4555 90.5936 65.1682 90.4906 65.8626C90.2511 66.1188 89.7842 66.3008 89.4274 66.4971C89.0707 66.6935 88.7259 66.976 88.2302 66.9353C88.065 65.8027 88.5966 65.8051 89.1114 65.1011H89.109ZM86.0249 56.7492C86.3793 56.5385 86.3386 56.6031 86.4703 56.1601C87.0162 56.2248 87.2125 56.3996 87.6364 56.5409C88.2613 55.1042 88.8456 55.5304 89.5208 55.722C89.8058 55.8034 90.0285 55.8776 90.3086 55.9614C90.562 56.059 90.8031 56.1859 91.027 56.3397C91.7884 56.7803 91.5059 56.5026 91.5897 56.7851C90.7971 57.1012 89.7148 56.742 88.8863 56.7205C88.4785 57.0854 88.148 57.5283 87.9141 58.0231C87.3466 59.4789 86.4032 59.7136 85.9267 60.4367C85.6059 60.9156 85.0288 61.0018 84.229 60.9156L83.9896 60.6761C84.0159 60.0943 84.4397 59.9099 85.0001 59.8764C85.4957 59.8476 85.7447 59.4238 85.9459 59.158C86.3577 58.6336 87.0018 58.3343 87.3299 57.2425L86.851 57.1299C86.6738 57.4005 86.5804 57.7429 86.3458 57.968C85.8588 57.7514 85.4382 57.4093 85.127 56.9767C84.684 56.2583 84.7271 56.2727 84.9067 55.3412C85.0312 54.6971 85.8956 54.6229 86.4319 54.6229C86.736 54.6229 87.7968 55.2838 87.8447 55.3221C87.6723 55.5988 87.4142 55.8116 87.1096 55.9279C86.5996 55.449 86.0464 54.9438 85.4478 55.6621C85.3089 56.062 85.6298 56.5097 86.0249 56.7492ZM82.6439 34.5571C82.6846 34.8756 82.5864 35.2755 82.6223 35.6826C82.6918 36.4272 83.2114 36.7529 82.5696 38.8648C82.2081 40.0621 82.7612 40.1626 82.5984 41.0965C82.4619 41.8699 81.9184 42.1644 81.5783 42.5188C81.2192 42.684 79.9453 42.5475 79.7466 42.5739L77.9507 42.4685C77.6322 42.0231 77.9148 41.3742 77.8717 40.7708C77.8501 40.45 77.7232 40.3111 77.6322 40.0046C77.0959 38.0507 78.1399 38.5344 77.8238 36.8343C77.716 36.262 77.6993 36.6284 77.5245 36.1974C77.6107 35.7185 77.9699 35.6179 78.4703 35.594C79.6053 37.8208 78.2763 38.0148 78.8893 39.7412C79.0713 40.2608 78.9923 40.7181 79.0019 41.2497C79.749 41.0845 79.9812 41.3479 80.5679 41.2785C80.951 41.233 81.3628 40.7708 81.5257 40.5194C81.5137 39.9447 81.212 39.5472 81.2527 38.9103C81.2886 38.3572 81.5975 38.0818 81.7316 37.5957C82.0692 36.3698 81.2527 36.7481 81.4299 34.7439C81.7483 34.4805 82.086 34.2411 82.6439 34.5667V34.5571ZM65.8825 36.2812C65.8682 35.4383 66.1531 34.6936 66.213 34.3201C66.3137 33.7255 66.5292 33.1562 66.8475 32.644C67.0063 32.4102 67.1782 32.1855 67.3623 31.9711C68.186 30.7739 68.9762 30.4099 69.2923 29.9023C69.5652 29.4617 72.5847 27.6227 73.0564 27.5078C74.5865 27.1774 75.5826 27.0672 76.933 27.6155C77.5891 27.8813 77.8094 28.1878 78.2332 28.6045L79.2653 29.8616C79.4089 30.101 80.8241 31.8131 81.2287 32.4716C81.5448 32.9912 82.0141 33.1636 81.8968 33.9705L81.0779 34.1597C80.9199 33.7574 80.0626 32.6727 79.7873 32.3063C79.4592 31.8729 78.7457 30.7787 78.3649 30.5488C78.0034 30.6757 77.8406 30.9127 77.5317 31.1139C76.2913 31.9208 76.0351 31.7101 74.6343 31.8538C73.8537 31.9352 73.212 31.5904 72.6685 31.2959C72.3117 31.1019 72.2518 30.9247 71.931 30.7547C71.3898 30.465 71.6436 30.5153 71.3324 30.0651C70.7122 30.2782 68.0615 33.0343 67.5347 33.9944C67.1899 34.6242 66.8403 36.2788 66.8858 37.0474C66.9313 37.7657 66.8044 38.2183 66.7924 38.8193C66.7804 39.3126 66.814 39.9088 66.814 40.4069C66.1172 40.8259 65.9711 40.7876 65.6718 40.5721C65.6095 39.6837 65.9065 37.1695 65.8921 36.2907L65.8825 36.2812ZM74.7708 41.5011C74.5793 42.3033 73.4922 42.8636 73.0061 42.9378C72.52 43.0121 71.4569 42.8947 71.0905 42.6984C70.2501 42.2386 70.2572 42.878 69.3066 42.7151C67.7981 42.4565 68.8445 42.3177 67.5108 42.4541C65.3294 42.6792 66.2513 40.8858 67.0893 40.9696C67.7023 41.209 68.3464 41.6616 69.1055 41.5179C69.8018 41.3523 70.5342 41.4371 71.1743 41.7573C71.3874 41.8028 72.6781 41.6233 73.0779 41.1491C73.4778 40.675 73.1617 40.0309 73.3174 39.2743C73.4515 38.599 73.8514 37.7705 73.4611 37.1839C73.1737 36.7529 72.7427 36.1136 71.9453 36.2668C71.2893 36.3961 70.6499 36.4248 70.5541 37.4449C70.3147 39.9136 71.7658 39.1378 71.8663 38.805C71.8472 38.3404 71.6269 38.3045 71.318 38.0435C71.306 37.4688 71.3946 37.7011 71.7538 37.3036C72.9869 37.3395 72.2327 37.4281 72.9319 38.022C72.9486 39.6263 72.6589 40.5433 70.8175 40.3709C70.1734 40.3087 69.7065 39.9639 69.6658 39.3246C69.6251 38.6852 69.4718 38.0746 69.6802 37.409C69.8238 36.9492 70.1758 36.1447 70.4464 35.9723C70.9516 35.6586 72.2614 35.1989 72.8959 35.4551C73.5305 35.7113 73.8394 35.7544 74.2943 36.262C74.9241 36.966 75.1252 38.0675 74.7732 38.781C74.3135 39.8154 74.9337 40.8714 74.7804 41.5107L74.7708 41.5011ZM57.9113 64.1242C58.1292 63.7243 57.7389 63.8847 58.7063 62.6348C59.0151 62.2397 59.6904 61.3394 60.4087 61.3825C60.3776 62.369 59.5946 63.2143 58.9529 63.7267C58.8121 63.8395 58.6793 63.9619 58.5554 64.0931C58.2992 64.3325 58.1124 64.6534 57.6479 64.572C57.7078 64.2248 57.8035 64.3229 57.9113 64.1242ZM54.0801 62.448C54.2598 62.6943 54.5043 62.8858 54.7865 63.0012C55.1457 63.2047 55.5791 63.6285 56.1801 63.9805L60.5596 66.7174C61.9675 67.5459 63.1073 68.3457 64.8122 68.4079C65.5305 68.4343 66.5147 67.9889 66.6631 68.7336C66.2752 69.1406 65.1235 69.1358 64.4698 69.0951C63.8568 69.0544 61.4647 68.0894 60.7176 67.7494C60.5579 67.6877 60.406 67.6073 60.2651 67.51C60.0567 67.3591 60.1406 67.3543 59.961 67.2203L55.9646 64.8904C55.1576 64.3924 53.0002 63.4058 52.9499 62.8144C53.3211 62.5486 53.6371 62.5462 54.0849 62.4576L54.0801 62.448ZM67.652 73.5201C67.2306 73.2328 64.0124 72.1433 62.9996 71.6429C61.084 70.6994 58.9744 69.9021 57.1187 68.8868C55.4689 67.9865 52.6363 66.9497 50.6536 66.7318C47.9335 66.4181 47.3756 66.1044 45.1176 65.7309C44.7848 65.6758 44.4783 65.6519 44.1382 65.5944C43.6162 65.5106 43.5851 65.5944 43.3529 65.355C43.5492 65.0293 43.7168 65.0724 44.1311 65.0532C44.5453 65.0341 44.7536 64.9431 45.1511 64.9192C46.4298 64.8401 47.8712 64.6797 49.193 64.7851C51.6001 65.0043 53.9665 65.548 56.228 66.4013C57.9783 67.055 59.2163 67.7973 60.6554 68.4079C62.0945 69.0185 63.5287 70.0841 64.7763 70.8024C66.0238 71.5207 65.3845 71.2454 66.0094 71.6884L67.336 72.5671C68.5332 73.1586 67.7287 72.8281 68.2938 73.2232C69.1246 73.8146 68.7511 74.2672 67.6568 73.5297L67.652 73.5201ZM68.344 60.2571L68.3656 60.8653C68.0088 61.1814 68.1525 61.2987 67.4389 61.0209C66.7206 61.3969 65.5569 62.4313 65.0205 62.8407C64.1537 63.5064 61.4791 65.4268 60.8134 65.5274C60.8876 65.1466 61.072 65.0868 61.5102 64.7563C61.7736 64.5552 61.9747 64.3972 62.298 64.1864C62.8296 63.8416 63.4952 63.4106 63.955 63.0467C64.5033 62.6133 65.0492 62.2469 65.5305 61.8255C65.7805 61.5912 66.0514 61.3804 66.3399 61.1957L67.1252 60.5995C67.032 60.3132 66.8973 60.0422 66.7254 59.795C66.5242 59.4885 66.8714 59.7375 66.4117 59.51C65.0636 58.8396 65.1091 58.6983 63.8879 57.8818L62.0992 56.2056C61.5976 56.4018 61.1229 56.6609 60.6865 56.9767L60.04 57.4268C59.8628 57.5537 59.5036 57.6998 59.3983 57.8483C60.2411 57.8483 60.629 58.0877 61.2731 57.7285C61.7018 57.4891 62.1878 57.0724 62.7793 57.1227C62.9589 57.3837 62.6763 56.991 62.8631 57.2903C63.1025 57.6926 62.9301 57.2281 63.172 57.6256C63.0762 57.9488 63.0546 57.865 62.7865 57.9776C62.3076 58.1859 62.4249 58.3894 61.3091 58.7773C61.6132 59.9985 62.3842 59.5986 62.0274 62.6396L60.6673 63.6453C59.6473 64.6151 58.7087 64.7803 59.5635 63.8967C60.3297 63.1017 60.5428 63.0395 61.1558 62.46C61.0825 61.4797 60.8394 60.5197 60.4375 59.6226C60.2962 59.352 59.518 58.9593 59.1947 58.806C59.2474 59.4071 59.4342 59.5244 59.5443 60.0033C59.7838 60.9898 59.9394 60.6905 59.7048 61.1526C59.1205 61.2604 58.9505 60.803 58.7087 60.5013C58.4501 60.1664 58.2524 59.7888 58.1244 59.3855C57.8323 58.1284 58.4022 57.5106 58.9529 56.936L60.9403 55.5352C62.8056 54.563 61.8311 54.7929 63.3085 54.6085C63.1408 54.2948 62.377 53.8447 62.049 53.689C60.9499 53.1647 61.2779 53.0258 60.574 53.0665C60.574 52.4415 60.732 52.2619 61.0792 51.977L64.2998 54.654C64.4937 54.8049 64.4578 54.7402 64.6302 54.7546C64.5009 54.994 64.4554 54.9461 65.315 55.2335C65.7939 54.9557 65.8418 54.4289 66.2872 54.4481C66.3734 54.6301 66.3925 54.5846 66.3111 54.8935C66.2866 55.0511 66.2283 55.2016 66.1403 55.3347C66.0523 55.4677 65.9366 55.5802 65.8011 55.6645C65.3222 56.0021 65.0373 55.9327 64.4626 55.7818L64.2231 56.0213C64.292 56.2675 64.403 56.5 64.5512 56.7085C64.6579 56.931 64.787 57.142 64.9367 57.3382C65.2512 57.6797 65.5401 58.0438 65.8011 58.4277C66.0911 58.788 66.443 59.0937 66.8403 59.3304C66.8845 59.3499 66.9313 59.3628 66.9792 59.3688C67.1629 59.3649 67.3426 59.4231 67.4892 59.534C67.692 59.6248 67.8528 59.7891 67.9394 59.9937C68.368 59.8022 68.4925 59.4358 69.0504 59.3903C68.8732 59.9315 68.8062 60.0703 68.3488 60.2667L68.344 60.2571ZM62.5853 58.7677C62.6524 58.5163 62.7362 58.2721 62.8248 58.0207C63.4856 57.853 63.3635 57.8961 63.8089 58.308C64.0483 58.5331 64.3501 58.6672 64.6015 58.8707C64.7882 59.0192 64.7571 59.0694 64.9511 59.2011C65.2839 59.4262 65.9759 59.5819 66.0525 60.0081C65.3342 60.3409 64.9726 59.9147 64.2926 59.6034C63.9837 59.4597 63.694 59.364 63.4282 59.2011C63.1754 59.0125 62.8919 58.8691 62.5901 58.7773L62.5853 58.7677ZM64.4195 54.0698C64.5033 53.5909 64.8194 53.2628 64.8984 52.7169C65.0373 51.783 64.9678 51.7184 65.2336 51.4334C66.1268 51.546 65.7125 52.1518 66.1914 53.0449C66.3782 53.4113 66.6368 53.6603 66.6057 54.0769C66.4141 54.5271 65.8035 54.156 64.805 54.496L64.4195 54.0698ZM73.1162 46.168C72.4841 46.168 71.9932 46.2733 71.3371 46.3045L67.6927 46.3763C67.0534 46.4002 66.4668 46.3547 65.8298 46.3763C64.6063 46.4122 63.3923 46.4002 62.1854 46.4362C60.9786 46.4721 59.6329 46.4362 58.4453 46.4888C58.6847 45.8878 58.7182 46.3308 59.8963 45.7873C60.2842 45.6077 61.1486 45.6101 61.6682 45.4377C62.6931 45.0929 63.9981 44.8893 65.1522 44.6858C67.2138 44.3218 70.7289 44.1806 72.9486 43.9986C75.3886 43.795 78.3673 44.341 80.5487 44.8821C81.5999 45.1431 82.8881 45.622 83.8818 45.792L86.5158 46.3452C86.8462 46.4002 87.1168 46.417 87.282 46.6349C86.7121 47.0228 81.1018 46.2183 80.3715 46.156C77.194 45.8687 76.004 46.156 73.121 46.1656L73.1162 46.168ZM105.056 70.4815C104.515 70.4336 103.816 70.3882 103.291 70.3618C102.719 70.3307 102.094 70.4408 101.505 70.4336C100.959 70.4336 100.399 70.3594 99.8123 70.369C97.5878 70.4049 94.8749 70.4169 92.7007 70.6252C90.4259 70.8407 88.0458 70.7856 85.783 71.0514C84.6121 71.1879 83.5562 71.3531 82.4308 71.4226C81.4323 71.4848 79.6173 71.8823 79.2054 71.9015C79.1671 71.3843 79.294 71.4944 79.8088 71.3579L82.1746 70.6779C82.766 70.5246 83.106 70.278 83.6543 70.1224L85.2227 69.6435C86.2955 69.3513 87.5693 69.2627 88.7091 69.064C91.6902 68.542 93.2323 68.4965 96.3355 68.5061C97.6429 68.5061 98.8761 68.6378 100.15 68.7336C101.316 68.8403 102.471 69.0397 103.605 69.3298L105.202 69.7728C106.028 69.9595 105.643 69.8254 106.366 70.1487C106.704 70.2996 106.493 70.1008 106.701 70.3379C106.428 70.7737 105.494 70.5198 105.056 70.4815ZM127.782 51.3592C127.607 51.5987 126.678 51.2467 125.658 51.2467C125.096 51.2467 123.226 51.0264 122.725 50.7534L120.745 49.3263L120.089 49.7765C118.731 50.6864 118.413 51.1102 117.694 51.6154C116.509 52.4559 116.839 53.0521 116.052 52.9324C116.121 52.6067 116.1 52.6929 116.291 52.4272C116.396 52.2907 116.461 52.2116 116.59 52.0488C118.137 50.0853 117.292 50.5762 119.368 48.9815C119.868 48.5984 120.726 47.7843 121.241 47.7435C121.437 47.9591 121.384 48.0237 121.624 48.2703L122.526 49.1467C123.281 49.8651 124.387 50.5307 125.474 50.5044C125.235 50.0853 124.851 50.0997 124.516 49.786C124.234 49.5179 123.709 48.2871 123.302 47.6933L122.613 46.7858C122.737 46.6134 122.627 46.86 122.775 46.5631L123.973 46.7618C124.092 47.6095 124.274 47.7364 124.578 48.3613C124.732 48.6774 124.763 48.924 124.875 49.1707C125.007 49.458 125.201 49.4364 125.44 49.616L126.985 50.7869C127.176 50.9162 127.957 51.1317 127.782 51.3592ZM115.3 52.7336C115.375 52.2893 115.487 51.852 115.635 51.4263C115.774 51.115 115.927 50.7965 116.114 50.3966L117.311 48.5241C117.769 47.9327 120.448 45.7442 120.838 45.8447C121.108 46.0253 121.333 46.2643 121.497 46.5439C121.528 46.8001 120.266 47.6358 119.821 47.9806L118.006 49.2138C117.479 49.7765 117.168 50.3655 116.677 51.0216C115.611 52.4391 116.107 52.6786 115.3 52.7336V52.7336ZM118.288 39.7747C118.552 39.5951 118.377 39.5808 118.793 39.3533C119.009 39.2152 119.241 39.1065 119.485 39.03C119.551 39.0128 119.614 38.9853 119.672 38.9486C119.892 38.8385 119.591 38.9343 119.842 38.8481C119.973 38.81 120.111 38.797 120.247 38.8097C121.923 38.8744 121.042 39.5017 121.923 41.0606C122.402 40.8977 122.306 40.5817 122.584 40.3207C122.863 40.1048 123.193 39.9639 123.542 39.9112C124.574 39.7292 124.883 39.6382 125.603 40.2728C124.885 41.0462 123.637 40.177 123.285 40.9408L123.046 41.7262C122.419 43.1773 122.684 42.3344 123.012 43.6849C123.154 44.2668 123.142 44.1279 123.422 44.5397C123.599 44.8007 123.731 45.1551 123.975 45.2581C124.332 45.3584 124.696 45.4281 125.064 45.4664C125.783 45.0186 126.35 44.6331 126.243 43.4933C126.147 42.4757 125.821 41.9298 125.608 41.0558C125.768 40.8163 125.661 40.9025 125.912 40.7612C127.045 41.3551 126.784 42.3775 126.87 42.9546C127.059 44.2404 127.653 45.1096 125.912 46.1129C125.211 46.5128 124.021 46.3356 123.408 46.0099C123.01 45.8016 123.01 45.5478 122.569 45.3275C122.538 44.966 122.742 45.2413 122.512 44.8774C122.34 44.6044 121.93 44.3841 121.842 43.4957C121.621 41.2928 121.794 42.5068 122.007 41.3407C121.82 41.3965 121.623 41.4097 121.43 41.3795C121.238 41.3492 121.054 41.2762 120.893 41.1659C120.722 40.8484 120.606 40.5044 120.549 40.1483C119.979 40.0668 120.07 39.9759 119.651 40.2871C119.645 40.5295 119.704 40.769 119.821 40.9815C120.778 40.9815 120.165 40.9145 120.924 41.288C120.711 41.7669 120.659 41.288 120.568 41.8723C120.122 41.9663 119.667 42.0041 119.212 41.9848C118.657 41.2018 118.935 40.7588 118.547 40.1914L117.828 40.2608C117.891 39.7915 117.991 39.9878 118.288 39.7747ZM125.881 44.0848C125.881 45.2269 125.163 44.8534 124.799 44.7888L123.795 44.5852C123.508 44.3841 122.807 42.5619 123.077 42.1093C123.204 41.8938 123.317 41.9968 123.513 41.6975C123.97 41.0438 124.411 41.0725 125.029 41.664C125.246 41.8699 125.888 43.3593 125.891 44.0872L125.881 44.0848ZM115.139 43.8453C115.858 43.7927 117.088 43.661 117.668 43.3856C119.011 42.7463 119.241 42.0327 120.383 42.7295C120.326 43.1054 120.199 43.0983 119.904 43.2611C118.571 44.0201 119.054 43.5676 117.733 43.9794C116.365 44.3985 117.625 44.1686 116.056 44.2763L114.426 44.1734C114.632 43.8453 114.708 43.8812 115.149 43.8477L115.139 43.8453ZM114.613 44.7385C115.135 44.5589 117.105 44.7385 117.649 44.6307C118.163 44.5007 118.683 44.3976 119.208 44.3218L120.735 44.1087C120.877 44.2811 121.238 44.8486 121.104 45.136C120.663 45.282 119.928 45.2677 119.38 45.2629C117.704 45.2485 119.232 45.6723 116.114 45.1623C115.539 45.0689 114.862 45.1623 114.361 45.045C114.457 44.7409 114.218 44.8869 114.622 44.7409L114.613 44.7385ZM113.894 52.4726L114.419 46.836C114.672 45.7777 114.452 45.3634 114.967 45.4879C114.981 45.5085 114.993 45.5301 115.003 45.5526C115.106 45.8926 115.003 46.8097 114.926 47.6645C114.85 48.4068 114.739 49.0246 114.687 49.7645L114.335 52.9611C114.162 53.9572 114.222 53.6459 114.031 53.7393C113.818 53.5047 113.911 53.0473 113.911 52.475L113.894 52.4726ZM111.866 55.3987C111.878 55.0874 112.012 55.1257 112.302 54.9773C113.162 54.5439 118.417 53.1503 119.284 53.1335L121.918 53.1168C122.486 53.1455 122.876 53.2724 123.443 53.3251C125.376 53.5563 127.276 54.0111 129.104 54.6804C130.78 55.3053 131.051 55.6932 131.829 56.0141C131.934 56.0503 132.03 56.1064 132.114 56.1793C132.832 56.6438 133.551 56.6582 133.675 57.1371C133.294 57.2808 131.506 56.9647 131.094 56.7683C130.682 56.572 130.344 56.4187 129.995 56.2535C129.645 56.0883 129.252 56.0141 128.86 55.8656C128.01 55.5914 127.132 55.4108 126.243 55.3269C123.273 54.9557 124.111 54.7306 120.644 54.9677C119.799 55.0252 118.741 55.291 117.85 55.3101C115.894 55.3556 113.913 55.4921 111.883 55.4011L111.866 55.3987Z" fill="white"/>
</svg>
