<svg width="39" height="49" viewBox="0 0 39 49" fill="none" xmlns="http://www.w3.org/2000/svg">
<g clip-path="url(#clip0_48_1268)">
<path d="M20.3548 0.00546513C20.0693 -0.000950443 19.7838 -0.000950443 19.4984 0.00546513C8.97472 -0.236188 0.246741 8.09069 0.00481706 18.6053C-0.00160569 18.8965 -0.00160569 19.1878 0.00481706 19.4794C0.00481706 35.0783 11.9185 44.7974 17.0374 48.2495C17.7604 48.7392 18.6139 49.0009 19.4874 49.0009C20.361 49.0009 21.2144 48.7392 21.9374 48.2495C27.0665 44.7947 38.9952 35.058 38.9952 19.4794C39.2323 8.95947 30.8854 0.241237 20.3548 0.00546513ZM35.2218 19.4783C35.2218 33.2552 24.4557 42.0071 19.827 45.1278H19.8372C19.7379 45.1967 19.6198 45.2336 19.4989 45.2336C19.378 45.2336 19.26 45.1967 19.1607 45.1278C15.5457 42.6958 3.77818 33.6573 3.77818 19.4783C3.58282 11.0002 10.308 3.96922 18.7924 3.77408C19.0283 3.76873 19.2641 3.76873 19.5 3.77408C27.9925 3.58215 35.0307 10.3051 35.2218 18.7871C35.2272 19.0177 35.2272 19.2481 35.2218 19.4783Z" fill="#0057FF"/>
<path fill-rule="evenodd" clip-rule="evenodd" d="M17.5925 31.0391C18.1213 31.0995 18.9734 31.0487 19.53 31.0487C20.0465 31.0487 20.8301 31.0487 21.2085 30.7904C21.8652 30.3467 21.9894 29.2876 21.5082 28.7284C21.3444 28.5386 21.1801 28.4782 20.89 28.3541C20.9928 28.2344 21.1207 28.2793 21.3632 27.9703C21.7528 27.4731 21.6383 26.4733 20.9585 26.1317C20.5111 25.9077 19.8913 25.9745 19.3566 25.9745C18.8219 25.9745 18.117 25.9349 17.6026 25.9814L17.5925 31.0391ZM19.0253 27.016C19.5915 26.9882 20.2146 26.909 20.2055 27.487C20.1964 28.0494 19.598 27.9917 19.013 27.9457L19.0253 27.016ZM19.0146 28.9347C19.6413 28.8813 20.4062 28.815 20.3864 29.4581C20.3698 30.0789 19.613 29.9874 19.0162 29.9591L19.0146 28.9347Z" fill="black"/>
<path fill-rule="evenodd" clip-rule="evenodd" d="M16.7848 29.3956C16.5664 29.3021 15.7759 29.016 15.5591 28.9856C15.4312 29.5539 15.2177 30.0516 14.5069 29.9527C13.924 29.8704 13.795 29.2753 13.7811 28.6643C13.7661 28.0083 13.841 27.4079 14.2874 27.163C14.7338 26.9182 15.322 27.0807 15.5056 27.7655L16.7366 27.4662C16.674 26.9283 16.1955 26.3584 15.8706 26.1633C14.9158 25.5891 12.2814 25.5794 12.3767 28.6643C12.4136 29.8404 12.9515 30.9396 14.2419 31.1086C14.9297 31.1989 15.5265 31.1257 16.005 30.7809C16.3593 30.5226 16.6901 30.0228 16.7886 29.3983" fill="black"/>
<path fill-rule="evenodd" clip-rule="evenodd" d="M22.3501 27.1967C22.6124 27.271 23.4313 27.1967 23.7765 27.2261L23.7872 31.0439L25.1831 31.0487L25.1911 27.2298L26.625 27.217V25.9831L22.3565 25.9756L22.3501 27.1967Z" fill="black"/>
<path fill-rule="evenodd" clip-rule="evenodd" d="M18.8427 14.7943C18.8911 14.8637 18.9539 14.9219 19.0268 14.9649C19.1093 15.0157 19.204 15.0434 19.3009 15.0451C19.4909 15.0451 19.7419 14.9568 19.8361 14.8537C19.7955 14.7931 19.7461 14.7391 19.6894 14.6933L19.6729 14.7061C19.5155 14.8542 19.5048 14.9793 19.3935 14.944C19.3967 14.8504 19.5749 14.7125 19.6038 14.6318L19.5321 14.6216C19.5032 14.7537 19.4828 14.7334 19.4208 14.8082C19.3854 14.8499 19.325 14.9563 19.272 14.9494C19.1986 14.9141 19.3143 14.8029 19.3421 14.759L19.4411 14.6329C19.4748 14.5906 19.4689 14.5986 19.4529 14.5847C19.4213 14.558 19.3688 14.6692 19.2982 14.7451C19.2677 14.7783 19.2334 14.8018 19.2056 14.8296C19.1778 14.8574 19.1553 14.8975 19.1291 14.9274H19.0541C19.0006 14.7922 19.2147 14.7136 19.31 14.5698C19.1333 14.5698 19.0156 14.6724 18.9433 14.72C18.8796 14.7622 18.8855 14.72 18.8443 14.7959" fill="#0057FF"/>
<path fill-rule="evenodd" clip-rule="evenodd" d="M27.6178 22.833L27.2228 22.1989C27.1992 22.1616 27.1779 22.1229 27.1591 22.0829L26.8267 21.5536C26.7732 21.4697 26.5811 21.1757 26.5848 21.112L32.7988 21.2115C32.7835 21.1528 32.7558 21.0981 32.7175 21.0511C32.6859 21.0024 32.6639 20.9559 32.6302 20.9003L31.996 19.8385C31.7578 19.4226 31.4019 18.8725 31.1867 18.4763L30.8227 17.8738C30.7965 17.822 30.7672 17.7718 30.735 17.7235C30.6504 17.6091 30.1462 16.7478 30.0092 16.5147C29.9803 16.4656 29.9466 16.4196 29.9166 16.3688L29.649 15.9095C29.4568 15.6091 29.2117 15.168 29.018 14.8456C28.5973 14.1506 28.1835 13.4288 27.7559 12.7306L27.029 11.5181C26.9712 11.5373 26.9386 11.6154 26.9049 11.6672C26.8846 11.6936 26.8667 11.7217 26.8513 11.7512L26.4007 12.4569C26.1379 12.8616 25.8494 13.3348 25.5861 13.7245C25.5165 13.8277 25.4507 13.9303 25.3816 14.0405C25.2478 14.2543 25.114 14.4607 24.9764 14.6767L23.9643 16.2683C23.9274 16.3303 23.815 16.5399 23.7459 16.5693C23.6448 16.3335 23.2343 15.7374 23.0785 15.4658C22.8901 15.1381 22.6118 14.7248 22.4052 14.3693C22.3576 14.2853 22.3126 14.2335 22.266 14.1501L22.1397 13.9362C22.0445 13.8106 21.9652 13.6422 21.8721 13.5042C21.6013 13.1001 21.3224 12.5954 21.0607 12.2013C21.0184 12.1393 20.959 12.0409 20.9248 11.9816C20.7476 11.664 20.4484 11.2208 20.2498 10.8856L20.1112 10.6675C20.0229 10.5178 19.4914 9.63671 19.44 9.60089C19.2201 9.92167 18.9776 10.3601 18.7544 10.6958L18.3391 11.3545C18.3002 11.4058 18.2645 11.4593 18.232 11.5149L16.7601 13.8507C16.6194 14.0602 16.4925 14.2704 16.3593 14.4767L15.9723 15.1001C15.8347 15.3027 15.7111 15.5128 15.5762 15.716L15.2085 16.3009C15.1823 16.3372 15.2016 16.3137 15.1748 16.3319C15.1432 16.3105 14.9944 16.0566 14.9752 16.0202C14.8644 15.8064 14.5545 15.3252 14.411 15.0825L13.6585 13.8411C13.5268 13.6165 13.4059 13.4262 13.2801 13.2107C12.9225 12.6109 12.5115 11.9704 12.1491 11.3561L12.1133 11.3486L10.636 13.74C10.4107 14.1228 10.1206 14.5537 9.8985 14.936C9.71653 15.2498 9.30975 15.8475 9.15721 16.1287L7.86463 18.2138C7.7972 18.318 7.73297 18.417 7.67623 18.5164L6.21452 20.8613C6.18937 20.9292 6.21024 20.8891 6.22148 20.9035C6.24985 20.927 10.1554 20.9372 10.7415 20.942C10.9904 20.9447 11.2526 20.9351 11.4988 20.9447L12.2482 20.9602C12.2519 20.9709 12.2899 20.9324 12.2278 21.0383C12.2027 21.0805 12.1984 21.0805 12.1743 21.1195C12.1374 21.1778 12.1085 21.2232 12.0715 21.2842L10.9631 23.0319C10.931 23.0854 10.8946 23.1447 10.8603 23.1966C10.8261 23.2484 10.7982 23.2944 10.7629 23.3527C10.7276 23.4109 10.6724 23.4564 10.6676 23.5232C10.742 23.5451 11.593 23.5393 11.7381 23.5393C14.2826 23.5435 16.834 23.5847 19.3747 23.5927C20.8311 23.5965 22.2853 23.6211 23.7368 23.6237C24.4648 23.6237 25.197 23.6237 25.9238 23.6344C26.1679 23.6376 28.0272 23.666 28.1075 23.6398C28.0737 23.5745 28.035 23.5117 27.9919 23.4521L27.6178 22.833ZM11.3955 16.295C11.5326 16.0539 11.4614 16.071 11.7825 15.9069C11.8136 15.693 11.8596 15.5214 12.0651 15.6732C12.2332 15.7989 12.1069 15.9459 11.9634 16.0239C11.9747 16.172 12.0169 16.1079 11.9516 16.256C11.92 16.3252 11.8994 16.399 11.8906 16.4746C11.9248 16.5173 11.9638 16.5558 12.0068 16.5896C12.0622 16.5729 12.1127 16.543 12.154 16.5024C12.2832 16.4237 12.4226 16.3629 12.5682 16.3217C12.6185 16.311 12.6185 16.3271 12.6319 16.3554C12.6036 16.3875 12.5056 16.4169 12.3798 16.5201C12.1577 16.6997 12.0555 16.9104 11.949 16.859C11.9058 16.8343 11.8657 16.8045 11.8296 16.7703L11.7263 16.6805C11.7215 16.627 11.8039 16.3543 11.8285 16.3062C11.8055 16.2351 11.8243 16.302 11.805 16.2597L11.7729 16.1116C11.6043 16.1881 11.6567 16.1731 11.5625 16.3148C11.509 16.3934 11.4362 16.4832 11.3361 16.4832C11.3227 16.4094 11.3602 16.3597 11.3955 16.295ZM12.003 17.352C12.0067 17.3327 12.0145 17.3144 12.026 17.2985C12.0373 17.2803 12.0341 17.2889 12.0442 17.2718L12.0496 17.2622L12.1224 17.1707C12.1689 17.1167 12.2096 17.0579 12.2439 16.9954C12.3798 16.8056 12.4307 16.8034 12.5115 16.6783C12.565 16.6559 12.565 16.6457 12.6325 16.657C12.6325 16.8173 12.4606 16.9692 12.3745 17.0932C12.3135 17.1804 12.2139 17.3349 12.1936 17.4327C12.1605 17.6132 12.1383 17.7954 12.1272 17.9786C12.1186 18.0812 12.078 18.1389 12.0737 18.217C12.0677 18.2971 12.0566 18.3768 12.0405 18.4555C11.9945 18.4688 12.0041 18.4742 11.9586 18.4581C11.9302 18.4047 11.9795 18.0165 11.9891 17.9155C12.0052 17.7551 11.9805 17.5011 12.0036 17.353L12.003 17.352ZM10.2721 16.8537C10.3593 16.7831 10.3984 16.7371 10.5477 16.7307C10.8116 16.7206 10.8844 16.689 11.1135 16.7168C11.1766 16.7248 11.2259 16.7035 11.2815 16.7072C11.2815 16.7911 11.2484 16.9211 11.1975 16.959C11.0901 16.9567 10.9829 16.9485 10.8764 16.9344C10.6526 16.9034 10.6382 16.8874 10.4134 16.9195C10.2694 16.9408 10.027 17.1649 10.0173 16.997C10.1087 16.9618 10.1946 16.9135 10.2721 16.8537ZM9.99859 18.1267C10.012 18.0229 10.1115 17.7032 10.1014 17.5455C10.0976 17.4888 10.0949 17.4327 10.0912 17.3771C10.0874 17.3285 10.0789 17.2803 10.066 17.2333C10.1222 17.1627 10.1731 17.1745 10.2619 17.191C10.2619 17.2643 10.2427 17.2381 10.2566 17.3338C10.2819 17.474 10.2667 17.6184 10.2127 17.7503C10.2587 17.7337 10.2705 17.6818 10.2989 17.6396C10.3272 17.5974 10.3577 17.5701 10.3856 17.5327C10.4808 17.4044 10.4519 17.3498 10.5927 17.3819C10.6767 17.3087 10.9069 17.3242 11.0241 17.3284C11.1231 17.3284 11.3886 17.3739 11.4448 17.36C11.4523 17.2894 11.4745 17.2211 11.5097 17.1595C11.545 17.0978 11.5927 17.0441 11.6498 17.0018C11.6794 17.0205 11.7028 17.0474 11.7172 17.0793C11.7889 17.2055 11.745 17.0413 11.9029 17.3317C11.8494 17.4284 11.912 17.6198 11.8301 17.7273C11.7718 17.7203 11.7766 17.7155 11.7557 17.6706C11.4191 17.6369 10.9781 17.4033 10.6232 17.4787C10.5354 17.6482 10.2373 18.0368 10.1988 18.1202C10.1545 18.2087 10.129 18.3053 10.1238 18.4041C10.0796 18.4389 10.0243 18.4567 9.96808 18.4544C9.9729 18.3619 9.98842 18.2143 9.99859 18.1267ZM12.9996 19.1767C12.8557 19.1644 12.7126 19.143 12.5714 19.1125C12.2139 19.0473 12.0801 19.0211 11.7054 18.9783C11.6182 18.9687 11.5422 18.9783 11.4571 18.9724C11.387 18.9687 11.3099 18.9527 11.2339 18.9516C11.0487 18.9516 10.8341 19.0088 10.7859 19.0115C10.4204 19.0323 10.2282 19.0361 9.84552 19.0751C9.7192 19.0879 9.51796 19.1334 9.40181 19.1286C9.42643 19.0564 9.4184 19.0863 9.48959 19.0623C9.71224 18.9874 10.3171 18.7864 10.4883 18.7543C11.0642 18.6474 11.1467 18.5827 11.7809 18.6677L12.2535 18.7746C12.3199 18.8024 12.3857 18.8345 12.4606 18.865C12.5272 18.889 12.5912 18.9196 12.6517 18.9564C12.9081 19.1291 13.0184 19.0558 13.0007 19.1761L12.9996 19.1767ZM13.1067 16.8483C13.0387 16.8291 13.1067 16.8483 13.0596 16.8227L12.6897 16.6965L12.732 16.6398C12.8139 16.6398 12.8283 16.6623 12.9118 16.6821C12.9953 16.7019 13.0344 16.7425 13.1008 16.743C13.1324 16.6479 13.0264 16.6361 12.9461 16.5773C12.8788 16.5305 12.816 16.4777 12.7582 16.4196C12.7759 16.3383 12.7529 16.2485 12.8492 16.2464C12.8808 16.2838 12.8653 16.2576 12.8765 16.3207C12.9429 16.3367 12.9156 16.3592 12.9718 16.4046C13.0398 16.4581 13.2084 16.5885 13.2442 16.6441C13.2105 16.7191 13.164 16.7877 13.1067 16.8467V16.8483ZM23.4644 20.525C23.5394 20.648 23.5067 20.5207 23.5485 20.6512C23.5693 20.7143 23.6721 20.8613 23.58 21.0607C23.5575 21.1099 23.5319 21.1601 23.4842 21.1489C23.4221 21.1158 23.4805 21.0345 23.4955 20.9388C23.3178 20.9388 23.2434 21.0329 23.2011 20.9115L23.4981 20.8752C23.5083 20.6613 23.375 20.4694 23.1615 20.4475C23.0839 20.6394 23.1304 20.6966 23.0427 20.7308C22.964 20.6469 23.0427 20.5336 23.0464 20.3999C22.9661 20.3908 22.9319 20.4031 22.9201 20.3229C23.0427 20.309 23.3895 20.3994 23.4644 20.525ZM22.7494 20.8992C22.7494 20.8992 22.7542 20.9051 22.7568 20.9078C22.6728 20.988 22.6305 20.9447 22.5048 20.9522C22.5096 21.1206 22.6953 21.2975 22.8484 21.3307C22.8618 21.2772 22.8714 21.1821 22.9147 21.1436L22.9565 21.1168C22.9565 21.111 22.9651 21.1126 22.9688 21.1099C22.9988 21.2414 22.9404 21.2623 22.9345 21.3884C23.0434 21.4088 23.1556 21.4018 23.261 21.3681C23.4173 21.3243 23.3681 21.2746 23.4751 21.2131C23.4997 21.3884 23.2739 21.4515 23.139 21.4857C23.0898 21.4986 23.0191 21.5248 22.9913 21.5306C22.9008 21.5488 22.7044 21.5232 22.6444 21.4815C22.4031 21.3131 22.494 21.413 22.3806 21.2382C22.2671 21.0634 22.2869 20.8185 22.3602 20.6501C22.4057 20.5432 22.5941 20.3983 22.6889 20.3684C22.8147 20.3261 22.7221 20.4101 22.813 20.3357C22.8205 20.3606 22.8184 20.3873 22.8071 20.4107C22.7958 20.434 22.7762 20.4523 22.752 20.4619C22.668 20.5122 22.6932 20.4694 22.6262 20.5598C22.5499 20.6437 22.5061 20.7522 22.5026 20.8656L22.7494 20.8992ZM23.0459 20.841C23.0502 20.8727 23.0427 20.9049 23.0248 20.9315C23.007 20.9581 22.98 20.9772 22.949 20.9853C22.8601 20.9105 22.8794 20.7426 23.0448 20.8399L23.0459 20.841ZM22.3822 19.5926L22.4716 19.5883C22.5192 19.6514 22.5786 19.6616 22.7087 19.7942C22.7954 19.884 22.9763 20.0139 22.8227 20.1871C22.7692 20.2465 22.6707 20.2711 22.5829 20.2892C22.235 20.3641 22.2618 20.316 22.1772 20.5833C22.1686 20.6122 22.1531 20.7164 22.1451 20.7314C22.0916 20.8185 22.0851 20.7271 22.0851 20.6704C22.0851 20.5416 22.1017 20.4673 22.1076 20.3496C22.1491 20.323 22.1854 20.2889 22.2147 20.2491C22.2623 20.1871 22.5005 20.0069 22.531 19.9578C22.4721 19.892 22.4191 19.892 22.3934 19.8161C22.3734 19.7435 22.3695 19.6674 22.3822 19.5931V19.5926ZM20.6159 21.004C20.6521 21.006 20.6879 21.0116 20.723 21.0206C20.7979 21.042 20.7685 21.0265 20.7765 21.0714C20.746 21.089 20.4709 21.1163 20.4195 21.027C20.419 21.1448 20.4627 21.2586 20.5419 21.3459C20.6212 21.4331 20.7302 21.4876 20.8477 21.4986C20.8723 21.389 20.8664 21.3066 20.9221 21.266C20.9997 21.3104 20.9531 21.3943 20.9558 21.5183C21.0304 21.5198 21.1046 21.5082 21.1752 21.4841C21.2657 21.4638 21.2919 21.4761 21.3706 21.4275C21.6232 21.2719 21.4996 21.2794 21.6093 21.1671C21.6202 21.209 21.617 21.2533 21.6002 21.2933L21.6136 21.2992L21.6291 21.3077C21.6157 21.405 21.5146 21.5018 21.4311 21.5911C21.3476 21.6803 21.2341 21.6916 21.103 21.7386C21.0066 21.7728 21.0607 21.8103 20.9199 21.7728C20.8129 21.7445 20.5988 21.7589 20.4297 21.5627C20.3581 21.4601 20.3135 21.3412 20.3001 21.2168C20.2852 21.0067 20.3242 20.8174 20.4607 20.6795C20.5972 20.5416 20.5581 20.5651 20.738 20.4806C20.7979 20.4534 20.8525 20.4213 20.8771 20.4887C20.8236 20.5309 20.7829 20.5202 20.7203 20.5672C20.6015 20.6576 20.4452 20.7854 20.4259 20.9554C20.489 20.9749 20.5532 20.9908 20.6181 21.003L20.6159 21.004ZM21.5162 20.8506C21.4819 20.7282 21.2775 20.5929 21.1549 20.5833C21.1517 20.6902 21.1399 20.8191 21.0746 20.8656L21.0174 20.8169L21.0709 20.6319C21.0735 20.6198 21.0746 20.6074 21.0741 20.595C21.0741 20.5924 21.0714 20.5892 21.0714 20.5833C21.0714 20.5774 21.0714 20.5753 21.0714 20.5667L20.9788 20.5437L20.9826 20.4705C21.0698 20.4705 21.3363 20.5598 21.4107 20.6036C21.4851 20.6474 21.6345 20.842 21.6104 20.9741C21.5162 20.9704 21.5344 20.9212 21.5162 20.8506ZM21.5504 21.1281C21.5301 21.1436 21.536 21.1505 21.4776 21.1495C21.4632 21.1495 21.4059 21.1425 21.3899 21.1398C21.323 21.1286 21.3123 21.127 21.2925 21.0602C21.4091 21.0644 21.4766 21.0741 21.5483 21.1286L21.5504 21.1281ZM21.0832 21.0238C21.0806 21.0407 21.0746 21.0569 21.0655 21.0714C21.0563 21.0858 21.0443 21.0981 21.0302 21.1078C21.0156 21.1049 21.0017 21.0991 20.9895 21.0906C20.9772 21.0822 20.9668 21.0713 20.959 21.0586C20.9515 21.0456 20.9467 21.0312 20.9451 21.0163C20.9433 21.0016 20.9448 20.9866 20.9494 20.9725C20.9943 21.0051 21.0206 20.9575 21.081 21.0244L21.0832 21.0238ZM21.3117 20.3261C21.3117 20.3235 21.2828 20.3165 21.3117 20.2807C21.3299 20.2582 21.3374 20.2657 21.362 20.2539C21.4214 20.2261 21.764 19.9177 21.817 19.8471C21.8332 19.8187 21.8538 19.7931 21.878 19.7712C21.9652 19.7931 22.1108 19.8 22.1456 19.8781C21.9481 19.9385 21.9658 19.954 21.757 20.1427C21.6532 20.2384 21.3669 20.3443 21.3096 20.3267L21.3117 20.3261ZM21.8587 21.0238C21.7822 20.8404 21.7008 20.5314 21.8143 20.3202C21.8748 20.2085 22.1135 19.8834 22.2709 19.9321C22.3244 20.0925 21.8255 20.0315 22.0118 20.8303C22.0257 20.8891 22.0429 20.9335 22.0568 20.9933C22.0787 21.0858 22.1194 21.0356 22.1017 21.1575C22.0448 21.2028 21.9819 21.2402 21.9149 21.2687C21.8523 21.3034 21.7913 21.3526 21.7046 21.3457C21.6757 21.1468 21.7688 21.1473 21.8593 21.0249L21.8587 21.0238ZM21.3171 19.5584C21.3792 19.5215 21.3706 19.5327 21.3952 19.4547C21.4662 19.4679 21.5351 19.4903 21.6002 19.5215C21.7099 19.2697 21.8143 19.3445 21.931 19.3782C21.9813 19.3921 22.0204 19.4055 22.0696 19.4199C22.1141 19.4372 22.1565 19.4594 22.1959 19.4862C22.3297 19.5637 22.28 19.5151 22.2944 19.5643C22.1552 19.6177 21.9652 19.5568 21.8197 19.553C21.748 19.6172 21.6899 19.695 21.6489 19.7819C21.5494 20.0374 21.3813 20.0786 21.3 20.2053C21.2432 20.2892 21.1421 20.3042 21.0018 20.2892L20.9595 20.2475C20.9644 20.1454 21.0388 20.1128 21.1372 20.1069C21.224 20.1021 21.2678 20.0278 21.3032 19.9808C21.3754 19.8888 21.4889 19.8364 21.5462 19.645L21.4621 19.6252C21.4381 19.6774 21.4083 19.7267 21.3733 19.7722C21.2877 19.7342 21.2138 19.674 21.1592 19.598C21.0816 19.4723 21.0891 19.4745 21.1207 19.3114C21.1426 19.1981 21.2946 19.1852 21.3883 19.1852C21.4418 19.1852 21.6275 19.3012 21.6361 19.3077C21.6061 19.3565 21.5607 19.3941 21.5071 19.4146C21.4177 19.3306 21.3203 19.2419 21.2154 19.3681C21.1892 19.4381 21.2454 19.5167 21.3149 19.5589L21.3171 19.5584ZM20.7208 15.6647C20.7283 15.7181 20.7107 15.7908 20.7171 15.862C20.7294 15.9929 20.8204 16.0501 20.708 16.4206C20.6443 16.6308 20.7417 16.6484 20.7128 16.812C20.6887 16.9478 20.5934 16.9996 20.534 17.0617C20.4709 17.0905 20.2472 17.0665 20.2129 17.0713L19.8977 17.0531C19.8415 16.9745 19.8912 16.8606 19.8837 16.7548C19.8757 16.7084 19.8615 16.6632 19.8415 16.6206C19.7473 16.2779 19.9308 16.3624 19.8752 16.064C19.8564 15.9635 19.8532 16.0282 19.8217 15.9523C19.8366 15.8684 19.8998 15.8507 19.9876 15.8454C20.1872 16.2362 19.9539 16.2731 20.0614 16.573C20.0935 16.6644 20.0796 16.7446 20.0812 16.8403C20.2124 16.8109 20.253 16.8574 20.3563 16.8451C20.4238 16.8371 20.496 16.7559 20.5244 16.712C20.5244 16.611 20.4709 16.5415 20.4768 16.4297C20.4827 16.3324 20.5373 16.2843 20.5608 16.1988C20.6202 15.9849 20.4768 16.0501 20.5073 15.6984C20.5608 15.6524 20.6224 15.6101 20.7214 15.6673L20.7208 15.6647ZM17.7771 15.9673C17.7744 15.8192 17.8247 15.6887 17.8349 15.623C17.8526 15.5187 17.8904 15.4188 17.9462 15.3289C17.9743 15.288 18.0044 15.2485 18.0367 15.2108C18.1817 15.0007 18.3203 14.937 18.376 14.8478C18.4242 14.7702 18.9546 14.4479 19.037 14.4275C19.3046 14.3698 19.4812 14.3506 19.7184 14.4463C19.8334 14.4933 19.872 14.5468 19.9469 14.62L20.1278 14.8408C20.153 14.8825 20.4018 15.183 20.473 15.2985C20.5265 15.3899 20.6111 15.4198 20.5902 15.5615L20.4463 15.5946C20.4184 15.5241 20.268 15.3337 20.2199 15.2696C20.1621 15.1937 20.0368 15.0023 19.9699 14.9611C19.9062 14.9836 19.8778 15.0253 19.8233 15.0605C19.6054 15.2022 19.5605 15.1648 19.3143 15.1905C19.1772 15.2044 19.0643 15.1439 18.969 15.0921C18.9064 15.0584 18.8957 15.0274 18.8395 14.9975C18.7442 14.9467 18.7892 14.9552 18.7325 14.8766C18.6254 14.9135 18.1576 15.3974 18.065 15.5658C17.9923 15.7348 17.9536 15.9164 17.951 16.1004C17.9511 16.2043 17.9456 16.3082 17.9344 16.4116C17.9344 16.4982 17.9387 16.6024 17.9387 16.6901C17.8161 16.7633 17.7905 16.7569 17.738 16.719C17.7268 16.5634 17.7792 16.1218 17.7765 15.9678L17.7771 15.9673ZM19.3383 16.8831C19.3046 17.0237 19.1135 17.1221 19.0284 17.1354C18.9145 17.146 18.7996 17.1316 18.6918 17.0932C18.5441 17.0125 18.5457 17.1248 18.3787 17.0932C18.1137 17.0483 18.2973 17.0237 18.0629 17.0478C17.6797 17.0873 17.8418 16.7724 17.989 16.7874C18.0961 16.8291 18.2101 16.9088 18.3433 16.8836C18.4656 16.8545 18.5943 16.8692 18.7068 16.9253C18.7442 16.9334 18.9706 16.9018 19.0408 16.8184C19.1109 16.735 19.0557 16.6222 19.083 16.4896C19.1066 16.3715 19.1767 16.226 19.1082 16.1229C19.0579 16.0475 18.9819 15.9352 18.8406 15.9625C18.725 15.9849 18.6131 15.9903 18.596 16.1694C18.5542 16.6024 18.8101 16.4661 18.8267 16.4078C18.8234 16.3265 18.7844 16.3201 18.7303 16.2742C18.7303 16.1736 18.7437 16.2143 18.8069 16.1442C19.0236 16.1507 18.8909 16.1662 19.014 16.2704C19.0167 16.5522 18.9658 16.7131 18.6425 16.6826C18.5291 16.6719 18.4472 16.611 18.4402 16.4992C18.4333 16.3875 18.406 16.2795 18.4402 16.163C18.4654 16.0822 18.5275 15.9411 18.5751 15.9106C18.6639 15.8571 18.8936 15.7748 19.0033 15.8203C19.113 15.8657 19.1687 15.8737 19.249 15.9614C19.3592 16.0854 19.3945 16.2784 19.333 16.4035C19.2522 16.5853 19.3614 16.7703 19.333 16.8847L19.3383 16.8831ZM16.378 20.8506C16.416 20.7806 16.3475 20.8089 16.5171 20.5892C16.5707 20.5202 16.69 20.3619 16.8163 20.3694C16.811 20.5426 16.6734 20.6902 16.5605 20.7811C16.5359 20.8009 16.5127 20.8224 16.4909 20.8452C16.446 20.8875 16.4133 20.9436 16.3304 20.9292C16.3405 20.8704 16.3571 20.888 16.378 20.8506ZM15.7047 20.5565C15.7362 20.5999 15.7792 20.6336 15.8288 20.6539C15.892 20.6897 15.968 20.764 16.0734 20.8255L16.8431 21.3066C17.0904 21.4521 17.2906 21.5927 17.5924 21.6034C17.7182 21.6082 17.8911 21.5301 17.9173 21.6606C17.8493 21.7322 17.647 21.7311 17.5319 21.7242C17.4169 21.7172 17.0042 21.5478 16.8731 21.4879C16.8449 21.4773 16.8181 21.4633 16.7933 21.4462C16.7569 21.4194 16.7714 21.4189 16.7398 21.3927L16.0381 20.9837C15.8963 20.896 15.5173 20.7234 15.5082 20.6191C15.5735 20.5726 15.6292 20.5721 15.7079 20.5565H15.7047ZM18.0891 22.4994C18.0147 22.4491 17.4495 22.2577 17.2718 22.1701C16.9352 22.0043 16.5642 21.8648 16.2383 21.6889C15.9487 21.5285 15.451 21.3489 15.1025 21.3104C14.6251 21.2569 14.5266 21.2002 14.13 21.135C14.0717 21.1254 14.0182 21.1211 13.9582 21.111C13.8667 21.096 13.8608 21.111 13.8201 21.0687C13.8549 21.0115 13.8844 21.0195 13.9571 21.0153C14.0299 21.011 14.0642 20.996 14.1359 20.9917C14.3607 20.9778 14.6139 20.95 14.8462 20.9682C15.269 21.0068 15.6847 21.1023 16.082 21.2521C16.3898 21.3665 16.6071 21.497 16.8597 21.6039C17.1123 21.7108 17.3644 21.8979 17.5839 22.0241C17.8033 22.1503 17.6909 22.1022 17.7979 22.1797L18.0313 22.3337C18.2417 22.4379 18.1004 22.3796 18.1994 22.4491C18.3455 22.5529 18.2797 22.632 18.0875 22.5026L18.0891 22.4994ZM18.2106 20.1721L18.2144 20.2791C18.1517 20.3325 18.1769 20.355 18.0538 20.3063C17.9275 20.3721 17.723 20.5539 17.6288 20.6271C17.4763 20.7442 17.0063 21.081 16.8897 21.0987C16.9025 21.0318 16.9352 21.0211 17.0122 20.9634C17.0583 20.9281 17.0936 20.9003 17.1503 20.8634C17.244 20.803 17.3607 20.7271 17.4415 20.6635C17.5378 20.587 17.6336 20.5229 17.7182 20.4496C17.7622 20.4085 17.8098 20.3714 17.8606 20.339L17.9987 20.232C17.982 20.1819 17.9582 20.1343 17.928 20.0909C17.8927 20.0374 17.9537 20.0813 17.8745 20.0412C17.6374 19.9235 17.6454 19.8984 17.4308 19.7551L17.1166 19.4611C17.0286 19.4958 16.9452 19.5412 16.8683 19.5964L16.7526 19.6776C16.7216 19.7001 16.6584 19.7257 16.6402 19.7514C16.788 19.7514 16.8543 19.7936 16.9694 19.7305C17.0449 19.6888 17.13 19.6156 17.2338 19.6236C17.2654 19.6696 17.2156 19.6006 17.2488 19.653C17.2906 19.7236 17.2606 19.6423 17.3023 19.7118C17.2857 19.7685 17.282 19.7541 17.2349 19.7738C17.1503 19.8102 17.1712 19.846 16.9753 19.9139C17.0288 20.1278 17.1642 20.0583 17.1011 20.5918L16.8624 20.7683C16.6831 20.9383 16.5182 20.9677 16.6686 20.8126C16.803 20.6731 16.8404 20.6619 16.948 20.5603C16.9353 20.3883 16.8928 20.2199 16.8222 20.0626C16.7971 20.015 16.6617 19.946 16.6039 19.9193C16.613 20.0262 16.6456 20.0454 16.6654 20.1294C16.7072 20.3026 16.7345 20.2497 16.6932 20.3309C16.5905 20.3496 16.561 20.2695 16.5182 20.2165C16.4728 20.1578 16.438 20.0916 16.4155 20.0208C16.3619 19.8 16.4647 19.6921 16.561 19.5931L16.9105 19.3472C17.2381 19.1767 17.0668 19.2173 17.3264 19.1868C17.297 19.1334 17.1626 19.0526 17.1054 19.0264C16.9121 18.9345 16.9699 18.9104 16.8458 18.9195C16.8411 18.8825 16.8469 18.8449 16.8626 18.811C16.8783 18.7772 16.9033 18.7484 16.9346 18.7281L17.4982 19.1932C17.5325 19.22 17.5261 19.2082 17.5566 19.2109C17.5335 19.2531 17.5255 19.2446 17.677 19.2948C17.761 19.2462 17.769 19.1537 17.8477 19.1569C17.8627 19.189 17.8659 19.1809 17.8515 19.2355C17.8472 19.263 17.837 19.2893 17.8215 19.3125C17.8063 19.3361 17.786 19.356 17.7621 19.3707C17.6781 19.4301 17.6277 19.4178 17.5271 19.3911L17.4848 19.4333C17.497 19.4764 17.5165 19.5171 17.5426 19.5536C17.5613 19.5927 17.5839 19.6298 17.6101 19.6642C17.6655 19.7242 17.7163 19.7882 17.7621 19.8556C17.8129 19.9195 17.8747 19.9738 17.9446 20.016C17.9524 20.0195 17.9607 20.0216 17.9692 20.0225C18.0015 20.0219 18.033 20.0322 18.0586 20.0519C18.0943 20.0677 18.1227 20.0966 18.1378 20.1326C18.2133 20.0989 18.2347 20.0342 18.3332 20.0257C18.3016 20.1203 18.2898 20.1449 18.2095 20.1791L18.2106 20.1721ZM17.199 19.9107C17.2108 19.8669 17.2253 19.8241 17.2408 19.7797C17.3569 19.7503 17.3355 19.7578 17.4137 19.83C17.4559 19.8695 17.5089 19.8931 17.5528 19.9289C17.586 19.9551 17.5801 19.9636 17.6144 19.9872C17.6727 20.0262 17.7942 20.0535 17.8081 20.1283C17.6818 20.1871 17.6181 20.1123 17.4988 20.0577C17.4452 20.0321 17.3917 20.0155 17.3468 19.9872C17.3023 19.9541 17.2525 19.9288 17.1996 19.9123L17.199 19.9107ZM17.5202 19.0863C17.5346 19.0024 17.5903 18.9446 17.6042 18.8489C17.6283 18.6853 17.6165 18.6741 17.6631 18.6239C17.8199 18.6436 17.7471 18.75 17.8311 18.9067C17.8638 18.9708 17.9093 19.0136 17.9039 19.0879C17.8702 19.1665 17.7632 19.1018 17.5876 19.1612L17.5202 19.0863ZM19.0477 17.7C18.9369 17.7 18.8502 17.7182 18.7351 17.7241L18.0929 17.7364C17.9805 17.7406 17.8788 17.7326 17.7658 17.7364C17.5517 17.7428 17.3377 17.7406 17.1236 17.7471C16.9095 17.7535 16.6756 17.7471 16.4668 17.7562C16.5086 17.6492 16.5145 17.7284 16.7216 17.6332C16.7896 17.6016 16.9416 17.6022 17.0331 17.5717C17.2337 17.5136 17.4381 17.4695 17.6449 17.4397C18.0072 17.376 18.6249 17.3509 19.0145 17.3194C19.4427 17.2835 19.9667 17.3792 20.3499 17.4744C20.5346 17.5198 20.7604 17.6043 20.9355 17.6348L21.3979 17.7321C21.4557 17.7417 21.5049 17.7444 21.5322 17.7829C21.4322 17.8508 20.4468 17.7096 20.3183 17.6989C19.7601 17.6487 19.5514 17.6989 19.045 17.6989L19.0477 17.7ZM24.6585 21.9664C24.5638 21.9578 24.4407 21.9498 24.3486 21.9455C24.248 21.9396 24.1383 21.9594 24.035 21.9578C23.9317 21.9562 23.8407 21.945 23.7374 21.9466C23.3467 21.953 22.8703 21.9551 22.4882 21.9915C22.0883 22.0295 21.6703 22.0198 21.2732 22.0663C21.0671 22.0904 20.8819 22.1198 20.6844 22.1316C20.5094 22.1423 20.1904 22.2123 20.1182 22.2155C20.1112 22.1246 20.1337 22.1439 20.2252 22.1203L20.6406 22.0006C20.7444 21.9739 20.8043 21.9306 20.9007 21.9033L21.1763 21.8193C21.3647 21.7659 21.5884 21.7525 21.7886 21.7178C22.3121 21.6258 22.5829 21.6178 23.1267 21.6199C23.3563 21.6199 23.5731 21.6429 23.7968 21.6595C24.0016 21.679 24.2046 21.7148 24.4037 21.7664L24.6842 21.8439C24.756 21.8525 24.8255 21.875 24.8887 21.9102C24.9481 21.9364 24.9111 21.9017 24.9475 21.9434C24.8994 22.0198 24.7351 21.9733 24.658 21.9685L24.6585 21.9664ZM28.6513 18.611C28.6203 18.6527 28.457 18.5912 28.2767 18.5912C28.1782 18.5912 27.8485 18.5522 27.7618 18.5046L27.4139 18.2539L27.2967 18.3378C27.0585 18.4982 27.0023 18.572 26.876 18.6586C26.6678 18.8062 26.7261 18.9104 26.5875 18.8896C26.5998 18.8324 26.596 18.8473 26.6298 18.8008C26.648 18.7768 26.6597 18.7629 26.6833 18.7345C26.9552 18.3902 26.8064 18.4763 27.1714 18.1962C27.2592 18.1288 27.4096 17.986 27.5 17.9791C27.5348 18.0171 27.5257 18.0283 27.5675 18.0716L27.7281 18.225C27.8608 18.3512 28.0551 18.4683 28.2462 18.4635C28.2039 18.3902 28.1364 18.3924 28.0781 18.3373C28.0283 18.2902 27.9363 18.0743 27.864 17.97L27.743 17.8096C27.765 17.7791 27.743 17.8224 27.7714 17.7701L27.9818 17.8053C28.0026 17.954 28.0353 17.9764 28.0888 18.086C28.1156 18.1395 28.1209 18.1844 28.1423 18.2277C28.1637 18.271 28.1996 18.2747 28.2419 18.3058L28.5132 18.5116C28.5443 18.5351 28.6813 18.5731 28.6508 18.6132L28.6513 18.611ZM26.4569 18.8521C26.4702 18.7742 26.4901 18.6974 26.5163 18.6228C26.5404 18.5693 26.5671 18.5121 26.6003 18.4421L26.8107 18.1133C26.891 18.0096 27.3614 17.6257 27.4299 17.6433C27.4774 17.6747 27.517 17.7166 27.5455 17.7658C27.5514 17.8107 27.3314 17.9577 27.2512 18.0181L26.93 18.232C26.8462 18.3334 26.7682 18.4395 26.6961 18.5495C26.5093 18.7981 26.596 18.8404 26.4542 18.85L26.4569 18.8521ZM26.9819 16.5778C27.0285 16.5463 26.9975 16.5441 27.0708 16.504C27.1086 16.4799 27.1495 16.4609 27.1923 16.4474C27.204 16.4442 27.2152 16.4394 27.2255 16.4329C27.264 16.4137 27.211 16.4303 27.2549 16.4153C27.2781 16.4089 27.3022 16.4067 27.3261 16.4089C27.6205 16.4201 27.4658 16.5302 27.6205 16.8034C27.705 16.7751 27.6879 16.7195 27.7366 16.6741C27.7857 16.636 27.8438 16.6111 27.9052 16.6019C28.0861 16.5698 28.1407 16.5543 28.267 16.6655C28.1407 16.8013 27.9218 16.6484 27.8597 16.7826L27.818 16.9205C27.7077 17.175 27.7543 17.0275 27.8121 17.2643C27.8195 17.3205 27.8446 17.373 27.8838 17.414C27.9154 17.46 27.9373 17.5209 27.9812 17.5402C28.0437 17.5578 28.1077 17.57 28.1723 17.5765C28.2986 17.4985 28.3987 17.4306 28.3794 17.2306C28.3628 17.052 28.3056 16.9563 28.2681 16.8029C28.2965 16.7607 28.2772 16.7762 28.3216 16.7494C28.5202 16.8537 28.4747 17.0333 28.4897 17.1344C28.5229 17.36 28.6272 17.5124 28.3216 17.6888C28.198 17.7588 27.9892 17.7278 27.8817 17.6706C27.8115 17.6343 27.8115 17.5893 27.7345 17.5509C27.7286 17.4872 27.7644 17.5359 27.7243 17.4717C27.6938 17.4241 27.6221 17.3851 27.6066 17.2295C27.5675 16.843 27.598 17.0558 27.6355 16.851C27.6027 16.861 27.5681 16.8634 27.5343 16.858C27.5003 16.8527 27.468 16.8399 27.4396 16.8205C27.4096 16.7648 27.3892 16.7044 27.3791 16.642C27.279 16.6275 27.2951 16.6115 27.2217 16.6666C27.2206 16.7089 27.2308 16.7508 27.2512 16.7879C27.4198 16.7879 27.3116 16.7762 27.4455 16.8414C27.408 16.9253 27.3984 16.8414 27.3823 16.944C27.3042 16.9605 27.2244 16.9672 27.1447 16.9638C27.0467 16.8264 27.0959 16.75 27.0274 16.6489L26.9011 16.6612C26.9129 16.5832 26.9306 16.6174 26.9825 16.58L26.9819 16.5778ZM28.3157 17.3343C28.3157 17.5348 28.19 17.4691 28.1257 17.4578L27.9496 17.422C27.8993 17.3867 27.7757 17.067 27.8233 16.9879C27.8458 16.9499 27.8656 16.9681 27.8999 16.9152C27.9801 16.8008 28.0604 16.8056 28.1675 16.9093C28.2492 17.0388 28.3009 17.185 28.3189 17.337L28.3157 17.3343ZM26.4291 17.2921C26.5554 17.283 26.7716 17.26 26.8733 17.2119C27.1093 17.0996 27.1495 16.974 27.3502 17.0964C27.34 17.1627 27.3181 17.1611 27.2661 17.19C27.0317 17.3231 27.1168 17.2434 26.8845 17.3156C26.6442 17.3894 26.8658 17.3493 26.5902 17.3691L26.3038 17.3509C26.3397 17.2932 26.3531 17.2974 26.4307 17.2937L26.4291 17.2921ZM26.3365 17.4493C26.428 17.4177 26.7743 17.4493 26.8717 17.43C26.9618 17.4074 27.0531 17.3895 27.1452 17.3766L27.4128 17.3391C27.4374 17.3691 27.5011 17.4691 27.4776 17.5193C27.3781 17.5405 27.2762 17.5481 27.1746 17.5418C26.8803 17.5391 27.1484 17.6134 26.6009 17.5241C26.4997 17.5075 26.3809 17.5241 26.2926 17.5033C26.3097 17.4498 26.2674 17.4755 26.3386 17.4498L26.3365 17.4493ZM26.2101 18.8062L26.3022 17.8171C26.3472 17.6316 26.3081 17.5589 26.3985 17.5808C26.4013 17.5841 26.4035 17.5879 26.405 17.592C26.4232 17.6514 26.405 17.8123 26.3916 17.9625C26.3782 18.093 26.3589 18.201 26.3493 18.3309L26.2878 18.8917C26.2572 19.0665 26.2679 19.012 26.2342 19.0286C26.1968 18.9874 26.2134 18.9072 26.2134 18.8067L26.2101 18.8062ZM25.8542 19.3194C25.8542 19.2659 25.8794 19.2718 25.9308 19.2456C26.0817 19.1697 27.005 18.9249 27.157 18.9249L27.6199 18.9222C27.7195 18.927 27.788 18.9494 27.8876 18.9585C28.2271 18.999 28.5609 19.0789 28.882 19.1964C29.1764 19.306 29.224 19.3739 29.3637 19.4301C29.382 19.4366 29.3989 19.4466 29.4135 19.4595C29.5398 19.5408 29.6661 19.5434 29.6881 19.6274C29.6212 19.6525 29.307 19.5969 29.2342 19.5627L29.0415 19.4723C28.98 19.4434 28.9109 19.4301 28.8419 19.4044C28.6925 19.3561 28.5384 19.3244 28.3821 19.3098C27.8608 19.2446 28.0074 19.2029 27.3989 19.2467C27.2501 19.2569 27.0644 19.3034 26.9075 19.3066C26.5639 19.3146 26.216 19.3387 25.8596 19.3226L25.8542 19.3194Z" fill="black"/>
</g>
<defs>
<clipPath id="clip0_48_1268">
<rect width="39" height="49" fill="white"/>
</clipPath>
</defs>
</svg>
