<svg width="8" height="13" viewBox="0 0 8 13" fill="none" xmlns="http://www.w3.org/2000/svg">
<path d="M7.15 6.675L1.4 12.325C1.28333 12.4417 1.14167 12.5 0.975 12.5C0.825 12.5 0.691667 12.4417 0.575 12.325L0.225 11.975C0.108333 11.8583 0.0500001 11.725 0.0500001 11.575C0.0500001 11.4083 0.108333 11.2667 0.225 11.15L5.225 6.25L0.225 1.35C0.108333 1.23333 0.0500001 1.1 0.0500001 0.949999C0.0500001 0.783333 0.108333 0.641666 0.225 0.524999L0.575 0.174999C0.691667 0.0583325 0.825 -5.96046e-07 0.975 -5.96046e-07C1.14167 -5.96046e-07 1.28333 0.0583325 1.4 0.174999L7.15 5.825C7.26667 5.94167 7.325 6.08333 7.325 6.25C7.325 6.4 7.26667 6.54167 7.15 6.675Z" fill="#0057FF"/>
</svg>
