<svg width="18" height="18" viewBox="0 0 18 18" fill="none" xmlns="http://www.w3.org/2000/svg">
<path fill-rule="evenodd" clip-rule="evenodd" d="M0.666748 9.00002C0.666748 4.39765 4.39771 0.666687 9.00008 0.666687C11.2102 0.666687 13.3298 1.54466 14.8926 3.10746C16.4554 4.67027 17.3334 6.78988 17.3334 9.00002C17.3334 13.6024 13.6025 17.3334 9.00008 17.3334C4.39771 17.3334 0.666748 13.6024 0.666748 9.00002ZM9.59175 11.275L12.9251 7.94169C13.2518 7.61492 13.2518 7.08512 12.9251 6.75835C12.5983 6.43158 12.0685 6.43158 11.7417 6.75835L9.00008 9.48335L6.25841 6.75835C6.04703 6.54697 5.73894 6.46442 5.45018 6.54179C5.16143 6.61916 4.93589 6.8447 4.85852 7.13346C4.78114 7.42221 4.8637 7.7303 5.07508 7.94169L8.40841 11.275C8.56489 11.4328 8.77788 11.5215 9.00008 11.5215C9.22228 11.5215 9.43528 11.4328 9.59175 11.275Z" fill="black"/>
</svg>
