<svg width="9" height="6" viewBox="0 0 9 6" fill="none" xmlns="http://www.w3.org/2000/svg">
<path d="M4.194 5.184L0.126 1.044C0.042 0.959999 0 0.863999 0 0.755999C0 0.636 0.042 0.534 0.126 0.45L0.378 0.198C0.462 0.114 0.558 0.0719996 0.666 0.0719996C0.786 0.0719996 0.888 0.114 0.972 0.198L4.5 3.798L8.028 0.198C8.112 0.114 8.208 0.0719996 8.316 0.0719996C8.436 0.0719996 8.538 0.114 8.622 0.198L8.874 0.45C8.958 0.534 9 0.636 9 0.755999C9 0.863999 8.958 0.966 8.874 1.062L4.806 5.202C4.71 5.286 4.602 5.328 4.482 5.328C4.374 5.316 4.278 5.268 4.194 5.184Z" fill="black"/>
</svg>
