<svg width="8" height="13" viewBox="0 0 8 13" fill="none" xmlns="http://www.w3.org/2000/svg">
<path d="M0.850001 6.325L6.6 0.675C6.71667 0.558333 6.85833 0.5 7.025 0.5C7.175 0.5 7.30833 0.558333 7.425 0.675L7.775 1.025C7.89167 1.14167 7.95 1.275 7.95 1.425C7.95 1.59167 7.89167 1.73333 7.775 1.85L2.775 6.75L7.775 11.65C7.89167 11.7667 7.95 11.9 7.95 12.05C7.95 12.2167 7.89167 12.3583 7.775 12.475L7.425 12.825C7.30833 12.9417 7.175 13 7.025 13C6.85833 13 6.71667 12.9417 6.6 12.825L0.850001 7.175C0.733334 7.05833 0.675001 6.91667 0.675001 6.75C0.675001 6.6 0.733334 6.45833 0.850001 6.325Z" fill="#D9D9D9"/>
</svg>
