<svg width="14" height="10" viewBox="0 0 14 10" fill="none" xmlns="http://www.w3.org/2000/svg">
<path d="M9.232 1.016L8.624 1.624C8.54933 1.69867 8.512 1.78933 8.512 1.896C8.512 2.00267 8.54933 2.09333 8.624 2.168L11.152 4.584H0.368C0.272 4.584 0.186667 4.62133 0.112 4.696C0.0373333 4.77067 0 4.86133 0 4.968V5.832C0 5.93867 0.0373333 6.02933 0.112 6.104C0.186667 6.17867 0.272 6.216 0.368 6.216H11.152L8.624 8.632C8.54933 8.70667 8.512 8.79733 8.512 8.904C8.512 9 8.54933 9.09067 8.624 9.176L9.232 9.784C9.30667 9.85867 9.392 9.896 9.488 9.896C9.59467 9.896 9.68533 9.85867 9.76 9.784L13.888 5.672C13.9627 5.58667 14 5.496 14 5.4C14 5.29333 13.9627 5.20267 13.888 5.128L9.76 1.016C9.68533 0.941333 9.59467 0.903999 9.488 0.903999C9.392 0.903999 9.30667 0.941333 9.232 1.016Z" fill="black"/>
</svg>
