<svg width="36" height="23" viewBox="0 0 36 23" fill="none" xmlns="http://www.w3.org/2000/svg">
<path fill-rule="evenodd" clip-rule="evenodd" d="M34.6394 19.7912C34.5212 19.7286 34.6335 19.7109 34.2093 19.5549C33.5655 19.3127 33.0929 19.3364 32.2375 18.9819C31.7969 18.8 28.6224 18.1774 27.9218 18.1089L25.6003 17.8171C25.2199 17.7875 24.7875 17.7769 24.4012 17.7403C23.9771 17.7001 23.5978 17.7863 23.2198 17.7556C20.584 17.5371 19.3482 17.7462 16.9145 17.7769C15.3793 17.8136 13.8517 18.0036 12.3542 18.344C11.5981 18.507 10.8456 18.533 10.0847 18.67C9.71111 18.7483 9.33318 18.8043 8.95293 18.8378L7.88965 19.0824C7.32966 19.2324 7.17253 19.3624 6.95515 19.4072C6.45895 19.51 5.47128 19.7132 5.08141 19.9708C4.61593 20.2791 2.80481 20.6418 1.95183 20.9419C1.63166 21.0601 1.30441 21.1676 0.988971 21.2467C0.815302 21.2904 0.634545 21.3578 0.47269 21.3979C0.0969985 21.4901 0.284844 21.4086 0.00012207 21.5728C0.00012207 21.8351 0.0391089 21.8292 0.118264 22.0076C0.421889 22.0194 0.293114 21.9473 0.527036 21.8953C0.736147 21.8481 0.511677 21.9142 0.710156 21.8894C0.796499 21.8738 0.881444 21.8513 0.964161 21.8221L5.58824 21.2479C5.84225 21.2136 5.82453 21.1569 6.08208 21.1416C6.49912 21.1179 6.76494 21.0234 7.08746 20.9998L9.29318 20.806C9.67714 20.7659 10.002 20.7777 10.3978 20.7411C10.7522 20.7092 11.1504 20.7174 11.4953 20.6808C13.466 20.4753 15.9458 20.4079 18.0936 20.2685C18.4716 20.2437 18.8674 20.2579 19.2301 20.2272C19.8846 20.1716 20.773 20.1693 21.4559 20.1456L24.882 20.0901C25.253 20.1114 25.6759 20.0405 26.0434 20.0228C26.842 19.9861 27.5414 20.0724 28.3117 20.0948C29.082 20.1173 29.8369 19.9885 30.5788 20.0003C30.9533 20.0062 31.2782 20.0913 31.6315 20.1102L34.9477 20.2461C34.9938 20.1409 35.0659 20.0358 35.1001 19.9235C34.8721 19.7806 34.8402 19.8928 34.6394 19.7912Z" fill="#0057FF"/>
<path fill-rule="evenodd" clip-rule="evenodd" d="M1.4532 15.264C1.49573 15.5688 1.57134 15.6184 1.61624 15.9315C1.65286 16.2162 1.65995 15.9799 1.88442 16.4785C2.24712 17.2842 2.8142 17.719 3.54668 18.1915L4.62768 18.546C5.027 18.6806 5.02936 18.6334 5.53265 18.6712C6.18243 18.7196 6.3112 19.0433 6.8204 18.6712C7.00964 18.5346 7.22952 18.4466 7.46073 18.4148L8.70122 18.0061C9.4715 17.6516 9.61446 17.3409 10.0409 16.8034C10.1874 16.6179 10.2973 16.5895 10.4627 16.3981C10.7533 16.0614 10.5171 16.4348 10.8171 15.9185C11.0239 15.5641 10.9672 15.6668 11.0333 15.2037C10.9443 15.2347 10.8584 15.2743 10.777 15.3219C10.8041 14.9804 10.8703 15.1305 10.9128 14.2858C10.7628 14.2787 10.7203 14.4677 10.5584 14.8316C10.1815 15.6928 9.73142 15.85 9.14898 16.1961C8.94341 16.3202 8.8229 16.4324 8.55827 16.4856C8.26291 16.5399 8.0408 16.5517 7.74663 16.6214C7.20199 16.7502 6.71525 16.918 6.11745 16.9014C6.108 16.508 6.22023 15.8736 6.18007 15.4447C6.16234 15.2486 6.09028 15.225 6.0383 15.0312C5.92669 15.0799 5.80556 15.103 5.68387 15.0986L5.3578 16.7218C5.14034 16.7276 4.92316 16.7026 4.71274 16.6474C4.52485 16.5627 4.34219 16.4669 4.16574 16.3603C3.82786 16.1855 2.91935 15.6208 2.75513 15.2321C2.70551 15.1139 2.7126 15.0088 2.66298 14.8777C2.57437 14.6532 2.30855 14.3732 2.28729 13.9526C2.27665 13.7163 2.16914 13.4233 2.26129 13.2437C2.39479 13.5119 2.29792 13.5982 2.67952 13.6502C3.11192 13.7021 2.98905 13.7447 3.4309 13.6868C3.93419 13.6194 4.58042 14.0412 4.8805 13.5686C4.78008 13.2603 4.78599 13.434 4.34532 13.252C4.10904 13.1563 3.82668 13.1847 3.56676 13.141C3.30685 13.0973 3.08593 13.1162 2.89572 12.9897C2.61099 12.8007 2.5283 12.9401 2.25893 12.7393C2.41133 11.7658 3.32221 10.8679 3.97672 10.3091L4.66549 9.78573C5.10261 9.60261 5.34716 9.64041 5.57045 9.42185C5.51611 9.13713 5.40033 9.11941 5.09789 9.13595C4.97384 9.27063 3.4947 9.73611 3.2336 10.126L2.17978 11.1644C1.84425 11.5189 1.76746 11.7552 1.63869 12.3459C1.53945 12.7984 1.54772 12.3884 1.50873 13.0216C1.48865 13.3465 1.3835 13.2721 1.39649 13.695C1.41422 14.2775 1.36105 14.6154 1.4532 15.264Z" fill="#0057FF"/>
<path fill-rule="evenodd" clip-rule="evenodd" d="M8.38466 7.62374C9.09351 6.91489 8.22635 7.41227 9.1006 6.84873C9.39359 6.6597 9.95359 6.06308 10.2241 5.75828C10.3021 5.67085 10.3293 5.6295 10.4025 5.54917C10.9932 4.89584 10.5845 5.24672 10.8385 4.87694C11.3382 4.15036 11.0039 4.36066 11.3382 3.88927C12.5846 2.13604 12.346 2.74093 13.2108 2.787C13.4175 2.79764 13.499 2.74211 13.6963 2.787C14.1569 2.87019 14.6265 2.89165 15.0928 2.8508C15.4933 2.83072 15.7874 2.91696 15.8146 2.56017C15.5665 2.41722 15.322 2.29553 15.0987 2.1703C14.8281 2.0179 14.6497 1.88204 14.3674 1.73672C14.1039 1.60086 14.1902 1.74499 13.922 1.63276C13.4742 1.44609 13.1552 1.27833 12.5362 1.28542C12.4685 1.19946 12.3779 1.13435 12.2749 1.09756C12.1719 1.06078 12.0605 1.05382 11.9537 1.07749C11.7056 1.13892 11.1929 1.65757 11.0381 1.87731C10.92 2.04389 10.8763 2.25418 10.7239 2.4314C10.4462 2.34515 10.3423 2.19511 10.1095 2.12659C9.99139 2.09115 9.87325 2.09351 9.75511 2.04743C9.50346 1.95174 9.6795 1.92102 9.32625 1.94701C9.01908 2.76574 9.0309 2.51291 8.73554 2.69249C8.51649 2.53916 8.31238 2.36551 8.12593 2.17385C7.91918 1.95646 7.96053 1.57487 7.99715 1.26652C8.13831 1.12534 8.30355 1.01052 8.48508 0.927448C8.88676 0.723062 9.7492 1.26533 9.87797 1.40829C10.0067 1.55124 9.98667 1.86195 10.3813 1.55124L10.8538 1.14247C11.0275 1.03378 11.031 1.09285 11.0511 0.847111C10.6364 0.590743 11.0334 1.0066 10.3234 0.472601C9.87797 0.13117 9.68422 0.0591034 9.22819 0.00712089C8.99191 -0.0188704 8.95529 0.0307493 8.74854 0.0839132C8.48862 0.150073 8.54888 0.0673734 8.33622 0.11463C8.0515 0.177245 8.21808 0.212688 7.905 0.129989C7.7337 0.290662 7.75378 0.385175 7.47496 0.38872C7.40408 0.675805 7.31429 0.700615 7.28239 1.00542C7.12881 2.4881 6.9575 1.80406 7.49032 2.80591C7.77741 3.347 8.72136 4.19998 9.12187 4.27914L9.34752 4.06058C9.3806 4.01923 9.39596 3.87509 9.44794 3.7664C9.53418 3.5821 9.69131 3.33282 9.76692 3.16151L10.3694 3.31982C10.3573 3.49382 10.299 3.66144 10.2005 3.80539C9.96422 4.15981 10.0457 4.13382 9.92996 4.30395C9.63875 4.74055 9.28349 5.13085 8.87613 5.46174C8.74244 5.58936 8.62354 5.73163 8.5217 5.88587C8.30078 6.18241 7.8991 6.53683 7.8034 6.65616C6.81101 6.7294 6.75902 6.58409 6.23684 7.24687C6.22975 7.25632 6.21912 7.26813 6.21203 7.27876C6.16319 7.34605 6.13062 7.42374 6.11688 7.50574C6.10315 7.58774 6.10862 7.67181 6.13287 7.75133C6.34553 8.12466 7.7337 8.26998 8.38466 7.62374Z" fill="#0057FF"/>
<path fill-rule="evenodd" clip-rule="evenodd" d="M16.3403 14.6922C16.6782 15.0466 16.4584 15.0832 16.9133 15.5558L18.1514 16.4218C18.3109 16.5234 18.3357 16.6179 18.5637 16.7266C18.7917 16.8353 20.6158 17.1377 21.0742 16.8861C21.4535 16.6793 21.7831 16.7077 22.1446 16.5683C22.5546 16.41 23.7478 16.0863 24.1093 15.6633C24.4708 15.2404 24.3988 14.7524 24.407 14.6177C24.1826 14.6626 24.3574 14.5646 24.1637 14.7737C23.4973 15.4908 23.4146 15.6739 22.3301 15.9327C22.1173 15.9631 21.9024 15.9765 21.6874 15.9728C21.481 15.9996 21.2729 16.0122 21.0648 16.0106C20.7694 16 20.7718 15.9362 20.4552 15.9362C20.5485 14.6934 21.0175 14.7548 20.6796 13.8924C20.4315 13.9833 20.7068 13.8794 20.5048 14.0495C20.4256 14.1156 20.3737 14.1003 20.291 14.1605C20.1374 14.2787 19.9743 14.8836 19.9436 15.0182C19.8869 15.2723 19.9436 15.2545 19.7948 15.4908C19.2371 15.4365 18.6133 14.9001 18.1868 14.5008C17.8442 14.1806 17.2323 13.3347 17.3693 12.744L18.7445 12.783C18.8237 12.7148 18.91 12.6554 19.002 12.6058C19.0197 12.5952 19.1202 12.5243 19.1367 12.5113L19.1674 12.4817C19.1757 12.4605 19.1851 12.4333 19.2005 12.3967C18.7019 11.995 17.869 12.2903 17.3421 12.0848C17.2925 11.7587 17.4603 11.1834 17.5879 10.9175C17.9565 10.1449 17.6918 10.6115 18.142 10.0267C18.3853 9.71013 18.4231 9.44785 18.9134 9.29899C19.1722 9.22102 19.1781 9.16785 19.3316 9.00245C19.8479 8.44364 19.6305 8.93748 19.6365 8.30542C19.5703 8.24398 19.7392 8.24162 19.4959 8.26407C19.4628 8.46727 19.4415 8.43774 19.2974 8.54643C19.2749 8.53107 19.204 8.46963 19.1958 8.46491C19.0186 8.34677 18.7433 8.48735 18.5602 8.56769C17.921 8.85005 16.9062 9.58253 16.5518 10.1449C16.0178 10.9861 16.104 11.3842 15.9882 11.6807C15.7756 12.2301 15.8701 13.0394 15.9646 13.6159C16.0142 13.9089 16.0697 13.9349 16.1513 14.1582C16.2706 14.502 16.0638 14.4134 16.3403 14.6922Z" fill="#0057FF"/>
<path fill-rule="evenodd" clip-rule="evenodd" d="M19.1673 12.4829C19.1012 12.6708 19.2607 12.4026 19.1673 12.4829V12.4829Z" fill="#0057FF"/>
<path fill-rule="evenodd" clip-rule="evenodd" d="M16.9016 6.1328L15.8808 7.04722C15.4331 7.40165 15.4331 7.34139 15.0775 7.89784C14.8176 8.30543 14.9759 7.92147 14.7041 8.13413C14.358 8.39876 14.488 8.6445 14.4608 8.91268C14.4501 9.01547 14.4041 9.13715 14.3686 9.29428C14.2505 9.79875 14.3036 10.7321 14.3249 11.3027L14.5388 11.3889C14.8471 11.1338 14.755 11.09 14.8306 10.6435C14.8849 10.3209 14.9747 10.1331 15.0527 9.81647C15.1188 9.55537 15.2452 9.29428 15.3197 9.02846C15.4839 8.44484 16.0025 8.35741 16.6523 8.20147C17.4793 8.00535 18.4374 7.9321 19.2065 7.55169C19.5822 7.3662 19.8327 7.10747 19.9308 6.71406C19.9745 6.53921 20.0631 6.45178 20.0678 6.3171C20.0678 6.28993 19.991 5.64133 19.8835 5.45585C19.6578 5.06834 19.4948 5.19121 19.2928 4.92657C18.9525 4.46582 19.4216 4.88286 18.8025 4.3713C18.5119 4.13502 18.6135 3.99443 18.2992 3.82076C17.8526 3.57384 17.4285 3.18752 17.0788 2.87562L16.5365 2.86499C16.1301 3.29621 16.4467 3.33756 16.468 3.55258C16.4017 3.85447 16.4176 4.16862 16.5141 4.46227C16.7126 5.05298 16.8579 4.95847 16.9961 5.03053C17.0682 5.06834 17.451 5.42985 17.5868 5.52437C17.4332 5.75002 17.1001 5.97921 16.9016 6.1328Z" fill="#0057FF"/>
<path fill-rule="evenodd" clip-rule="evenodd" d="M12.0541 15.5357C12.3305 15.4778 12.2679 15.5688 12.5267 15.4176L14.0909 14.5504C14.4701 14.3685 14.4854 14.2314 14.4654 13.7305C14.3606 13.62 14.2646 13.5015 14.1783 13.3761L13.7246 11.6831C13.5958 11.0499 13.4139 9.75975 13.5179 9.08398C13.5746 8.72246 13.5864 8.24517 13.7116 7.91201L14.2433 7.01413C14.3454 6.89529 14.4559 6.78395 14.5741 6.68097C14.8233 6.45532 15.7366 5.79372 15.7555 5.70866C15.7744 5.6236 15.5133 4.97618 14.7962 5.51609C13.9136 6.18123 14.2929 5.66613 13.5935 6.52856L12.262 8.34795C12.1446 8.57896 12.0611 8.82564 12.0139 9.08043C11.9997 9.23874 11.9395 9.37933 11.9348 9.57663C11.9241 10.0586 11.9277 10.9435 12.0753 11.3748C12.301 12.0316 12.3116 12.8255 12.7098 13.2898L11.793 14.2066C11.3925 15.1931 11.409 14.5232 11.5331 15.6621C11.9655 15.7129 11.7398 15.6007 12.0541 15.5357Z" fill="#0057FF"/>
<path fill-rule="evenodd" clip-rule="evenodd" d="M21.2407 8.83941C21.275 9.37814 20.8768 10.191 20.9383 10.7391C20.9761 10.901 20.9938 10.8738 21.0564 10.9754C21.0871 11.0274 21.132 11.1266 21.1604 11.1774C21.6767 11.1538 21.614 10.6434 21.7263 10.2323C21.7865 10.0149 21.8539 9.87788 21.9141 9.70539C21.9921 9.48329 21.9909 9.2919 22.076 9.07333C22.1622 9.07333 23.0471 9.29544 23.1759 9.3935C23.7099 9.83991 24.1302 10.4068 24.4022 11.0475C24.6385 11.7032 24.5747 11.6654 24.5203 12.2502C23.7512 12.2277 23.3555 12.3187 22.6182 12.4451C22.5202 12.4616 22.5734 12.4451 22.4871 12.4805C22.4466 12.4973 22.41 12.5223 22.3796 12.5538C22.5485 13.0346 22.786 12.9082 23.3318 12.8397C23.7288 12.7889 24.1529 12.6826 24.5321 12.6365C24.4908 12.9909 23.9592 14.2539 24.5499 14.2503C24.9161 14.2503 25.3332 13.1091 25.358 12.8669C25.3863 12.5963 25.2847 12.6306 25.3851 12.2183C25.5293 11.6276 24.9397 10.8171 24.8901 10.5572C24.824 10.2181 24.8689 10.2264 24.6089 10.0598C24.3916 9.91923 24.4282 9.88379 24.303 9.64632C24.2014 9.45139 24.0513 9.37814 23.9048 9.27299C23.7052 9.13122 23.6886 9.05443 23.4393 8.96228C23.2196 8.88076 23.1097 8.81815 22.903 8.72599C22.5155 8.5606 22.1315 8.51925 21.7511 8.37984C21.3103 8.20863 20.8367 8.13877 20.3653 8.17545L20.357 8.20617C20.3464 8.23807 20.3121 8.37039 20.2932 8.42355L20.6157 8.74253C20.624 8.74253 21.2301 8.67047 21.2407 8.83941Z" fill="#0057FF"/>
<path fill-rule="evenodd" clip-rule="evenodd" d="M13.8109 5.30817C14.2091 5.00218 14.3296 5.14159 14.7502 4.99391C14.632 4.61113 14.3686 4.63949 14.1724 4.57924C14.0378 4.53316 14.0543 4.50244 13.9208 4.45401C13.7117 4.37603 13.5664 4.40557 13.3301 4.36658C13.0938 4.32759 12.9674 4.22717 12.7654 4.21063C12.5503 4.40202 12.6862 4.29451 12.6023 4.44692L11.91 5.23965C11.3843 5.73939 11.5934 5.68741 10.6223 6.44115C10.4061 6.60892 10.3328 6.7755 9.813 7.12402C9.20457 7.53161 9.58616 7.38511 9.29908 7.60722L8.62213 7.90848C8.60204 8.42949 8.56542 8.35269 9.279 8.13413C10.5124 7.75726 9.94532 8.0408 11.0618 7.48435C11.7883 7.12402 12.1995 6.63491 12.7925 6.12217L13.8109 5.30817Z" fill="#0057FF"/>
<path fill-rule="evenodd" clip-rule="evenodd" d="M10.7818 12.4534C10.7716 12.2937 10.7455 12.1354 10.7039 11.9808C10.6471 11.7304 10.7995 11.845 10.5952 11.6559C10.4865 11.5555 10.5692 11.7174 10.4569 11.5059C10.4132 11.4244 10.4191 11.3724 10.3825 11.3074C10.2856 11.129 10.2348 11.2046 10.112 11.031C10.0456 10.9167 9.96633 10.8105 9.87567 10.7143C9.77289 10.6056 9.70909 10.4781 9.63939 10.4001C9.52125 10.2749 9.06876 10.0917 8.88683 10.0374C8.58911 9.94523 8.38472 9.80583 8.09645 9.72785C7.80819 9.64988 7.45494 9.59553 7.24701 9.46203C7.03908 9.32853 6.52871 9.26474 6.23572 9.28482L6.28888 9.85663C6.71065 10.0055 6.6185 9.77393 7.0379 10.0752C6.97883 10.2406 6.9363 10.4379 6.88786 10.608C6.78744 10.9624 6.93039 10.9045 6.69529 11.1267C6.67521 11.5212 6.6055 11.5354 6.5547 11.845L6.90913 12.1663C7.23402 12.0482 7.28482 11.845 7.41714 11.3027C7.51373 10.8965 7.5582 10.4796 7.54946 10.0622C7.7373 10.1083 8.2016 10.2217 8.36936 10.328C8.51232 10.4166 8.41426 10.4143 8.58084 10.5064C8.91872 10.6919 8.87737 10.4261 9.47754 11.0475C9.62639 11.2023 9.50116 11.1042 9.60395 11.2542C9.728 11.4338 9.6772 11.2743 9.80597 11.4386L10.1238 11.852C10.3163 12.2939 10.1238 12.5077 10.5101 12.933C11.1741 12.9567 10.8161 12.7901 10.7818 12.4534Z" fill="#0057FF"/>
<path fill-rule="evenodd" clip-rule="evenodd" d="M20.9358 12.7653C21.2903 12.223 21.2702 12.7724 21.2903 11.9383C21.1095 11.8603 20.5223 11.4988 20.2955 11.9052C20.0982 12.2596 20.2731 12.7558 20.5117 12.998C20.7728 13.011 20.8106 12.9567 20.9358 12.7653Z" fill="#0057FF"/>
<path fill-rule="evenodd" clip-rule="evenodd" d="M10.0387 13.8617C9.54129 13.5273 9.53184 13.5958 8.58079 13.5699C8.53354 14.1606 9.42078 14.2196 9.9536 14.2255C10.0539 14.225 10.1539 14.2155 10.2525 14.1972C10.4888 14.1464 10.4155 14.2208 10.425 14.0011C10.2643 13.89 10.2241 13.9881 10.0387 13.8617Z" fill="#0057FF"/>
<path fill-rule="evenodd" clip-rule="evenodd" d="M6.41162 13.8368C6.76604 14.1381 7.02241 13.6313 7.01887 13.2272C6.43525 12.8858 6.7944 13.0772 6.28166 13.0358L6.08791 12.9827L6.04774 12.9614C6.03829 12.9614 6.01939 12.946 6.00403 12.9413C6.03356 13.1788 5.91542 13.4162 6.41162 13.8368Z" fill="#0057FF"/>
<path fill-rule="evenodd" clip-rule="evenodd" d="M11.0087 15.1222C11.1693 15.0667 11.1185 15.1565 11.1552 14.9568C11.0618 14.9828 11.0323 14.9474 11.0087 15.1222Z" fill="#0057FF"/>
</svg>
