<svg width="38" height="24" viewBox="0 0 38 24" fill="none" xmlns="http://www.w3.org/2000/svg">
<path fill-rule="evenodd" clip-rule="evenodd" d="M8.26181 10.4645C4.85726 10.4645 2.09733 13.2244 2.09733 16.629C2.09733 20.0335 4.85726 22.7935 8.26181 22.7935C11.6664 22.7935 14.4263 20.0335 14.4263 16.629C14.4263 13.2244 11.6664 10.4645 8.26181 10.4645ZM0.899414 16.629C0.899414 12.5629 4.19567 9.2666 8.26181 9.2666C12.3279 9.2666 15.6242 12.5629 15.6242 16.629C15.6242 20.6951 12.3279 23.9914 8.26181 23.9914C4.19567 23.9914 0.899414 20.6951 0.899414 16.629Z" fill="#231F20"/>
<path fill-rule="evenodd" clip-rule="evenodd" d="M30.0399 10.4645C26.6353 10.4645 23.8754 13.2244 23.8754 16.629C23.8754 20.0335 26.6353 22.7935 30.0399 22.7935C33.4444 22.7935 36.2044 20.0335 36.2044 16.629C36.2044 13.2244 33.4444 10.4645 30.0399 10.4645ZM22.6775 16.629C22.6775 12.5629 25.9737 9.2666 30.0399 9.2666C34.106 9.2666 37.4023 12.5629 37.4023 16.629C37.4023 20.6951 34.106 23.9914 30.0399 23.9914C25.9737 23.9914 22.6775 20.6951 22.6775 16.629Z" fill="#231F20"/>
<path fill-rule="evenodd" clip-rule="evenodd" d="M13.1119 6.41924L7.57118 16.3369C7.46756 16.5224 7.46996 16.7489 7.57749 16.9322C7.68503 17.1154 7.8816 17.228 8.09408 17.228H15.0252C15.1985 17.228 15.3634 17.1529 15.4771 17.0221C15.5909 16.8914 15.6424 16.7177 15.6184 16.5461L14.3265 7.30444H27.4556L29.4539 16.753C29.5224 17.0766 29.8402 17.2835 30.1638 17.215C30.4875 17.1466 30.6944 16.8287 30.6259 16.5051L28.5272 6.58154C28.4686 6.30464 28.2242 6.10652 27.9412 6.10652H13.6482C13.6248 6.10615 13.6012 6.10715 13.5774 6.10959C13.5593 6.11142 13.5415 6.11406 13.5239 6.11748C13.393 6.14277 13.2796 6.20948 13.1954 6.30191C13.163 6.3375 13.1349 6.37691 13.1119 6.41924ZM13.2916 8.55366L14.3367 16.0301H9.11478L13.2916 8.55366Z" fill="#231F20"/>
<path fill-rule="evenodd" clip-rule="evenodd" d="M13.2058 3.5966C13.5334 3.55104 13.8359 3.77972 13.8815 4.10736L14.2313 6.62299C14.2768 6.95063 14.0482 7.25317 13.7205 7.29873C13.3929 7.34429 13.0903 7.11561 13.0448 6.78797L12.695 4.27234C12.6494 3.9447 12.8781 3.64216 13.2058 3.5966Z" fill="#231F20"/>
<path fill-rule="evenodd" clip-rule="evenodd" d="M22.744 0.333826C22.8953 0.0396864 23.2565 -0.0760663 23.5506 0.0752855L27.336 2.0231C27.4961 2.10548 27.6107 2.25552 27.648 2.43167L28.9729 8.69198C29.0414 9.01561 28.8345 9.33348 28.5109 9.40198C28.1873 9.47047 27.8694 9.26364 27.8009 8.94001L26.5349 2.95808L23.0025 1.14046C22.7084 0.989109 22.5926 0.627966 22.744 0.333826Z" fill="#231F20"/>
<path fill-rule="evenodd" clip-rule="evenodd" d="M9.60352 4.18978C9.60352 3.85898 9.87168 3.59082 10.2025 3.59082H16.9659C17.2967 3.59082 17.5649 3.85898 17.5649 4.18978C17.5649 4.52057 17.2967 4.78874 16.9659 4.78874H10.2025C9.87168 4.78874 9.60352 4.52057 9.60352 4.18978Z" fill="#231F20"/>
<path fill-rule="evenodd" clip-rule="evenodd" d="M28.4162 6.34051C28.6177 6.60283 28.5684 6.97885 28.3061 7.18039L15.3902 17.1039C15.1279 17.3055 14.7518 17.2562 14.5503 16.9939C14.3488 16.7316 14.398 16.3556 14.6603 16.154L27.5763 6.23048C27.8386 6.02894 28.2146 6.0782 28.4162 6.34051Z" fill="#231F20"/>
</svg>
