<svg width="22" height="22" viewBox="0 0 22 22" fill="none" xmlns="http://www.w3.org/2000/svg">
<path fill-rule="evenodd" clip-rule="evenodd" d="M18 4H17V2C17 1.44772 16.5523 1 16 1C15.4477 1 15 1.44772 15 2V4H7V2C7 1.44772 6.55228 1 6 1C5.44772 1 5 1.44772 5 2V4H4C2.34315 4 1 5.34315 1 7V18C1 19.6569 2.34315 21 4 21H18C19.6569 21 21 19.6569 21 18V7C21 5.34315 19.6569 4 18 4ZM3 7C3 6.44772 3.44772 6 4 6H18C18.5523 6 19 6.44772 19 7V8H3V7ZM18 19C18.5523 19 19 18.5523 19 18V10H3V18C3 18.5523 3.44772 19 4 19H18Z" fill="#231F20"/>
<path d="M17 4H16.85V4.15H17V4ZM15 4V4.15H15.15V4H15ZM7 4H6.85V4.15H7V4ZM5 4V4.15H5.15V4H5ZM19 8V8.15H19.15V8H19ZM3 8H2.85V8.15H3V8ZM19 10H19.15V9.85H19V10ZM3 10V9.85H2.85V10H3ZM17 4.15H18V3.85H17V4.15ZM16.85 2V4H17.15V2H16.85ZM16 1.15C16.4694 1.15 16.85 1.53056 16.85 2H17.15C17.15 1.36487 16.6351 0.85 16 0.85V1.15ZM15.15 2C15.15 1.53056 15.5306 1.15 16 1.15V0.85C15.3649 0.85 14.85 1.36487 14.85 2H15.15ZM15.15 4V2H14.85V4H15.15ZM7 4.15H15V3.85H7V4.15ZM6.85 2V4H7.15V2H6.85ZM6 1.15C6.46944 1.15 6.85 1.53056 6.85 2H7.15C7.15 1.36487 6.63513 0.85 6 0.85V1.15ZM5.15 2C5.15 1.53056 5.53056 1.15 6 1.15V0.85C5.36487 0.85 4.85 1.36487 4.85 2H5.15ZM5.15 4V2H4.85V4H5.15ZM4 4.15H5V3.85H4V4.15ZM1.15 7C1.15 5.42599 2.42599 4.15 4 4.15V3.85C2.2603 3.85 0.85 5.2603 0.85 7H1.15ZM1.15 18V7H0.85V18H1.15ZM4 20.85C2.42599 20.85 1.15 19.574 1.15 18H0.85C0.85 19.7397 2.2603 21.15 4 21.15V20.85ZM18 20.85H4V21.15H18V20.85ZM20.85 18C20.85 19.574 19.574 20.85 18 20.85V21.15C19.7397 21.15 21.15 19.7397 21.15 18H20.85ZM20.85 7V18H21.15V7H20.85ZM18 4.15C19.574 4.15 20.85 5.42599 20.85 7H21.15C21.15 5.2603 19.7397 3.85 18 3.85V4.15ZM4 5.85C3.36487 5.85 2.85 6.36487 2.85 7H3.15C3.15 6.53056 3.53056 6.15 4 6.15V5.85ZM18 5.85H4V6.15H18V5.85ZM19.15 7C19.15 6.36487 18.6351 5.85 18 5.85V6.15C18.4694 6.15 18.85 6.53056 18.85 7H19.15ZM19.15 8V7H18.85V8H19.15ZM3 8.15H19V7.85H3V8.15ZM2.85 7V8H3.15V7H2.85ZM18.85 18C18.85 18.4694 18.4694 18.85 18 18.85V19.15C18.6351 19.15 19.15 18.6351 19.15 18H18.85ZM18.85 10V18H19.15V10H18.85ZM3 10.15H19V9.85H3V10.15ZM3.15 18V10H2.85V18H3.15ZM4 18.85C3.53056 18.85 3.15 18.4694 3.15 18H2.85C2.85 18.6351 3.36487 19.15 4 19.15V18.85ZM18 18.85H4V19.15H18V18.85Z" fill="black"/>
</svg>
