<svg width="43" height="29" viewBox="0 0 43 29" fill="none" xmlns="http://www.w3.org/2000/svg">
<path fill-rule="evenodd" clip-rule="evenodd" d="M42.4597 28.5857C42.2336 28.5319 42.1412 28.4561 41.9082 28.4175C41.6752 28.3789 41.5043 28.4023 41.2947 28.3347C40.3366 28.0218 40.4565 28.1445 39.4708 27.8881C39.2784 27.8322 39.0796 27.8012 38.8793 27.7957C38.6036 27.7723 38.4754 27.6785 38.2314 27.6399C36.577 27.3766 35.1391 26.7976 33.5674 26.3853L29.3832 25.4727C29.1365 25.4382 28.8897 25.4727 28.6429 25.4231C25.6885 24.7572 23.3903 24.8454 20.4207 24.9474C19.9795 24.9626 19.5563 25.1018 19.1358 25.1087C18.6606 25.1067 18.1859 25.1408 17.7158 25.2107C17.4249 25.2507 17.2691 25.1997 17.003 25.2107C16.759 25.2107 16.6019 25.2838 16.293 25.2838C15.6961 25.2838 15.5058 25.3762 14.9378 25.4051C14.0996 25.4479 13.0836 25.6023 12.2288 25.6188L9.64798 25.9718C8.86491 26.1096 7.93984 26.3922 7.17746 26.4543C6.68252 26.4943 6.35027 26.508 5.93668 26.7176L4.77724 27.0402C4.22578 27.2429 2.84714 27.4648 2.21296 27.469C2.04891 27.6578 2.03788 27.7061 1.69322 27.7819C1.53192 27.8178 1.53605 27.7819 1.38302 27.8481C0.732303 28.1417 0.855002 27.9349 0.358691 28.1045L0.220827 28.1583L0.000244141 28.5719C0.0167878 28.5801 0.0416034 28.5719 0.0498753 28.5953C0.0581471 28.6187 0.0884772 28.6132 0.100885 28.6146C0.402808 28.6408 0.264943 28.5526 0.544808 28.5333C0.682672 28.5236 0.976323 28.6091 1.1845 28.6243L5.37419 28.5374C5.84743 28.5155 6.32153 28.5206 6.79419 28.5526C7.18159 28.5705 7.70823 28.4905 8.1494 28.4767C9.0786 28.4478 9.892 28.4381 10.7936 28.4478C11.2569 28.4478 11.647 28.3899 12.1295 28.4381C12.5881 28.4765 13.0487 28.4839 13.5082 28.4602L16.0862 28.3472C17.472 28.4151 18.8608 28.388 20.2428 28.2658C20.7819 28.2148 20.9749 28.128 21.5732 28.1404C22.4484 28.1509 23.3234 28.1048 24.1927 28.0025C24.9151 27.917 28.7422 27.9308 29.7072 27.9349C30.6226 27.9349 31.5408 28.0108 32.4163 28.0866C34.4525 28.2644 36.639 28.638 38.8683 28.7483C39.2888 28.7704 39.6665 28.9055 40.0981 28.9317C40.615 28.9648 42.399 29.0447 42.8057 28.9317C42.8071 28.6422 42.7354 28.6505 42.4597 28.5857Z" fill="#0057FF"/>
<path fill-rule="evenodd" clip-rule="evenodd" d="M10.6899 19.8299L11.007 20.0863C11.1752 20.198 11.3144 20.1359 11.4882 20.0684C11.7722 19.9609 11.6329 19.9774 11.8342 19.8395C12.0355 19.7017 12.1402 19.7623 12.347 19.7196C12.4849 19.306 12.2781 18.7794 12.3981 17.948C12.4215 17.7854 12.2767 16.9278 12.478 16.1558C12.6352 15.5561 12.4656 14.5676 12.478 14.2891C12.4674 13.7029 12.5608 13.1195 12.7537 12.5658C12.8668 12.177 12.8558 11.8765 12.9716 11.4794C13.0198 11.3044 13.0943 11.1996 13.1494 11.0286C13.2046 10.8577 13.199 10.6536 13.3135 10.5475C13.3551 10.3335 13.4355 10.1288 13.5506 9.94364L14.5157 8.65047C14.6232 8.51261 14.7914 8.35406 14.881 8.23688C15.489 7.47173 15.6544 7.36558 16.3492 6.67488C16.5216 6.50393 16.5436 6.42396 16.6967 6.24888C16.9724 5.94006 17.2302 5.82288 17.5114 5.57748C17.9664 5.18181 18.5385 4.49938 19.1245 4.18229C19.538 4.87161 19.1369 4.87161 19.9627 5.25488C20.4149 5.46719 20.6603 5.87251 21.078 6.08206L22.3808 6.7121C23.288 7.12569 24.0352 6.79482 24.8403 6.90097C25.48 6.98645 25.6882 6.69004 26.4699 6.64455C27.1978 6.60043 27.8485 6.05862 28.4427 5.73878L29.5139 4.93503C30.0309 5.15148 30.6913 6.25715 31.0731 6.79896L32.5138 8.71113C32.7549 9.17828 33.0962 9.58642 33.5133 9.90641V10.3379C33.6377 10.3668 33.7664 10.3715 33.8925 10.3517C34.1903 10.2993 34.0083 10.2745 34.1889 10.2042C34.6107 10.0388 34.3998 10.2993 34.841 9.95467C34.8851 9.24604 34.5363 8.91241 34.5556 8.65185C34.5391 8.64082 34.517 8.60498 34.5087 8.61876C34.5005 8.63255 34.4729 8.59395 34.4618 8.58568C33.9187 8.22723 34.0662 8.18449 33.5395 7.42624C33.4017 7.23323 33.2376 6.96577 33.0846 6.78379C32.4918 6.07793 32.5704 6.05862 32.1609 5.51268L31.1545 4.32429C30.9794 4.12545 30.8307 3.90489 30.7119 3.66806C30.4845 3.28342 30.4362 3.45299 29.9551 2.8133C29.8651 2.71048 29.7852 2.59922 29.7166 2.48105L28.9707 1.61388C28.5227 1.15479 27.832 0.797726 27.2584 0.542677C26.9607 0.404813 26.6808 0.446172 26.3913 0.31658C25.9156 0.0932398 26.1486 0.0642883 25.4483 0.108405C24.8679 0.160793 24.537 -0.0597895 23.9621 0.0160358L22.549 0.362075C22.2902 0.402 22.0291 0.424568 21.7673 0.429628C21.4613 0.450308 20.8877 0.807376 20.5638 0.95627C20.0026 1.2127 19.3947 1.66213 18.9094 1.94889C18.5303 2.17223 18.2201 2.40384 17.8671 2.64786L16.778 3.30823C16.5864 3.4461 16.5133 3.60602 16.3451 3.72183C15.915 3.99755 16.1631 3.81144 15.9991 4.27328C15.7606 4.43596 15.6075 4.498 15.4131 4.65792C15.2425 4.8088 15.0831 4.97191 14.9361 5.14596L13.7533 6.41707C13.6941 6.52645 13.6106 6.62079 13.5092 6.6928C13.1935 6.94785 13.4196 6.84859 13.0956 7.25253C12.9357 7.45795 12.7896 7.56962 12.6324 7.75849C12.3994 8.03422 12.5856 8.11004 12.1968 8.34303C12.1968 8.64771 12.154 8.45333 12.2616 8.62979C11.9307 8.84762 12.1237 8.7263 11.9652 9.09577C11.2758 10.7129 11.6894 10.0829 11.3916 10.9818C10.9781 12.2046 11.2814 11.7414 11.1669 12.3604C11.0291 13.0745 11.0139 12.1053 11.0111 13.7928C11.0111 14.0354 11.0263 14.3346 11.0111 14.5704C10.9905 14.8626 10.8733 15.046 10.8471 15.2776C10.7919 15.7519 10.8857 16.3957 10.8471 16.8879C10.8209 17.1981 10.7368 17.2036 10.7906 17.602C10.8395 17.8396 10.8497 18.0835 10.8209 18.3244C10.7506 18.8621 10.6665 19.2095 10.6899 19.8299ZM20.8629 2.86431C21.2103 2.64649 21.1579 2.50311 21.7825 2.23427C22.1437 2.07848 22.5931 2.00404 22.9336 1.83722C23.4134 1.6001 23.5127 1.57942 24.0614 1.54771L22.6758 2.936C22.5527 3.0509 22.4239 3.15949 22.2898 3.26136C21.9893 3.49297 21.362 4.32016 21.8349 4.62208C22.5242 4.77511 22.498 4.47456 22.7999 4.10233C23.1018 3.7301 23.2135 3.66392 23.5926 3.33994C23.9718 3.01596 24.6955 2.04953 25.0016 1.6125L25.3601 1.83309C25.2125 2.02196 25.0154 2.17499 24.8334 2.38454C24.2172 3.10833 23.9828 3.75078 23.4437 4.20435C23.4189 4.63724 23.3803 4.64965 23.6367 4.8661C24.1 4.79717 24.6294 3.9493 24.9189 3.56742C25.1284 3.29169 25.3449 3.21586 25.5351 2.88637C25.6804 2.60663 25.7941 2.31163 25.8743 2.0068C26.0721 2.04067 26.2648 2.0995 26.4478 2.18188C26.4188 2.40384 25.6509 3.08903 25.5021 3.30823C25.3532 3.52744 25.2456 3.73423 25.0678 3.97412C24.8899 4.214 24.741 4.36289 24.6211 4.5435C24.679 4.76132 24.6707 4.85645 24.9065 4.84818C25.0806 4.82502 25.2502 4.77576 25.4097 4.70204C25.6096 4.57934 25.5861 4.5242 25.6854 4.33394L27.122 2.62443C27.4515 2.73472 28.3627 3.8652 28.4675 4.03754C28.3296 4.13818 28.167 4.22227 28.0029 4.32843L26.5884 5.10736C26.1417 5.27693 26.008 5.37068 25.4745 5.48925C24.7769 5.64365 23.4244 5.76497 22.7641 5.48097C22.1671 5.22317 22.5159 5.43686 21.6873 5.0081C21.5135 4.93325 21.3492 4.83791 21.1979 4.7241L20.0026 3.58396C20.1529 3.11384 20.499 3.09317 20.8629 2.86431Z" fill="#0057FF"/>
<path fill-rule="evenodd" clip-rule="evenodd" d="M24.4488 16.3543C24.4488 16.0552 24.3647 15.8525 24.3661 15.7146C24.4716 15.3121 24.433 14.8854 24.2572 14.5083C24.2048 14.3898 23.503 13.4247 23.2535 13.2579L22.5077 12.5686C21.9231 12.4597 22.0596 12.6072 21.5854 12.3452C21.3227 12.2083 21.0334 12.1302 20.7375 12.1164C20.7857 12.2239 19.7214 12.2694 19.5781 12.2887C19.3202 12.3246 17.8093 13.0373 17.648 13.1959C17.2826 13.5447 16.8594 14.6462 16.6953 15.0901C16.472 15.6912 16.6264 15.7794 16.5395 16.3461C16.4815 16.7606 16.5073 17.1825 16.6153 17.5868C16.7767 18.2486 16.381 18.3989 17.0593 18.9421C17.5404 19.3267 17.1709 19.2178 17.7017 19.4067C18.2821 19.6121 19.5394 19.6507 20.0813 19.4466C20.419 19.3187 20.7181 19.106 20.9498 18.829C21.3358 18.4044 21.2393 18.494 21.3717 17.8254C21.4653 17.4077 21.5116 16.9809 21.5095 16.5529C21.5095 15.938 21.3524 15.9725 21.0959 15.5602C20.5569 14.7179 20.7678 15.1329 20.2315 15.0088C19.7325 15.0198 19.6373 14.9371 19.5105 15.3796C19.0845 15.2418 19.0721 15.9077 19.0969 16.1517C19.2558 16.245 19.41 16.3462 19.5588 16.455C19.7201 16.5928 19.6373 16.6246 19.9268 16.8134L19.902 17.3994C19.7394 17.4972 19.5836 17.5868 19.3795 17.7054C18.7674 18.0611 18.3538 17.7054 18.045 17.0657C17.681 16.3171 17.8892 16.335 17.9071 15.9752C17.9843 14.7496 17.8961 14.6531 18.6102 13.9072C19.0362 13.4606 19.0321 13.7914 19.6994 13.5778C20.1722 13.4261 20.2508 13.3985 20.8023 13.473C21.2297 13.5309 21.2821 13.8204 21.6295 14.0506C21.9355 14.2547 21.8666 14.2257 21.9741 14.4146C22.0968 14.6338 22.1354 14.6104 22.2278 14.8475C22.2375 14.8475 22.254 14.8475 22.2568 14.8682C22.2595 14.8888 22.2816 14.8861 22.2857 14.8902C22.5711 15.166 22.5614 15.7822 22.5228 16.1048L22.4167 16.6108C22.3367 16.9968 21.8376 18.341 21.941 19.2012C21.9645 19.3915 22.0789 19.5914 22.0872 19.7224C22.101 19.9154 21.9824 20.0091 21.9493 20.2338C21.9038 20.5096 22.0362 20.5302 21.3979 21.0197C21.0187 21.3119 20.9512 21.2954 20.4176 21.396C20.0427 21.4663 19.7008 21.5656 19.3023 21.6469C18.613 21.7848 18.9563 21.4691 17.8051 21.2182C17.4274 21.1369 17.4949 21.2733 17.2109 21.2402C15.3539 21.021 16.0873 21.5077 14.7473 21.2471C14.109 21.1244 13.9573 20.817 13.3769 20.6833C12.9289 20.5785 13.1784 20.329 12.5814 20.4985C12.4257 20.5427 12.6531 20.4765 12.4739 20.5178C12.3078 20.572 12.1464 20.6398 11.9914 20.7205C11.8066 20.8239 11.4165 21.5022 11.4124 21.5174C11.5158 22.2825 11.7405 22.6437 12.5373 22.6892C13.0074 22.7168 14.3406 22.4769 14.5322 22.5513C15.114 22.7719 14.4922 22.7609 15.824 22.9649C16.1439 23.0132 16.4913 23.2407 17.2661 22.9553C18.4614 22.5072 18.2904 22.8381 18.9563 23.1083C19.3975 23.2889 19.5298 23.2007 19.9213 23.3055C20.4397 23.4433 20.3777 23.3055 20.8547 23.3454C21.4378 23.3964 21.322 23.4406 21.8459 23.2793C22.3767 23.0985 22.8749 22.8331 23.3211 22.4934C23.7057 22.1763 23.6313 22.4355 23.9029 21.9172C24.5922 20.5964 24.1041 21.2278 24.1055 19.9085C24.1055 18.1852 23.6382 18.443 24.0931 17.5165C24.2916 17.1154 24.4502 16.9168 24.4488 16.3543Z" fill="#0057FF"/>
<path fill-rule="evenodd" clip-rule="evenodd" d="M34.1518 11.1803C34.0429 11.3581 34.1036 11.6201 34.0871 11.7758C34.0567 12.0516 34.0953 11.8723 34.0292 11.9275C34.003 13.2675 34.8425 14.0823 34.6812 14.995C34.6523 15.1577 34.5682 15.3327 34.5337 15.5202C34.4731 15.8525 34.5337 15.6733 34.3697 15.9187C33.224 17.6985 34.3559 18.8221 34.2318 19.9278C33.6804 20.2573 33.5852 20.8845 32.6739 20.9025C31.6731 20.9218 31.9143 20.5371 30.4902 20.8763C30.4833 20.3855 30.5495 20.2062 30.4998 19.7072C30.3385 18.1038 30.2655 18.6677 30.1634 18.1534C30.0173 17.4186 30.0118 17.1884 30.1827 16.4439C30.6087 14.5745 30.4295 14.6724 30.0738 13.1958C29.9787 12.8016 29.9194 12.7478 29.6396 12.439C29.5458 12.439 29.1488 12.4569 29.1267 12.4597C28.9888 12.4762 28.8069 12.6664 28.7931 12.6471C28.7793 12.6278 28.7558 12.6692 28.7365 12.6802L28.2968 13.1283C28.3505 13.9238 28.6387 13.506 28.7103 14.0933C28.8137 14.893 28.8275 14.4863 28.8096 15.5147C28.8 16.0469 28.7448 15.6526 28.5408 16.3488C28.5105 16.4483 28.4731 16.5455 28.4291 16.6397C27.9328 17.8198 28.4043 18.5395 28.4787 19.0565C28.549 19.5376 28.8124 19.5652 28.8082 20.2214C28.8082 20.5799 28.8193 21.2857 28.7669 21.5477C28.6662 22.0564 28.5835 22.0316 28.7793 22.4355C29.0757 23.0462 29.0771 22.4355 30.1772 22.7112C30.7397 22.8491 30.9534 22.9167 31.5214 22.8133C32.6036 22.6189 32.3486 23.0959 33.5384 22.776C33.8074 22.7438 34.078 22.7254 34.349 22.7209C34.4774 22.5557 34.6204 22.4025 34.7764 22.2632C35.1072 21.9654 35.2782 22.0288 35.6036 21.2899C35.7008 21.0463 35.7792 20.7955 35.8379 20.5399C36.0392 19.2081 35.1872 19.0372 35.7855 17.2711C35.9882 16.67 36.337 14.7592 36.2308 14.1209C36.1867 13.8645 36.1412 13.6315 36.0764 13.3902C36.0309 13.2179 35.9868 13.2193 35.9386 13.0483C35.525 11.394 36.5231 10.7998 35.2851 10.684C35.2851 10.684 34.5958 10.7377 34.5958 10.7405C34.5958 10.7432 34.1587 11.1665 34.1518 11.1803Z" fill="#0057FF"/>
</svg>
