<svg width="14" height="12" viewBox="0 0 14 12" fill="none" xmlns="http://www.w3.org/2000/svg">
<path d="M12.684 0.85H1.316C0.952 0.85 0.639333 0.980666 0.378 1.242C0.126 1.494 0 1.802 0 2.166V10.034C0 10.398 0.126 10.7107 0.378 10.972C0.639333 11.224 0.952 11.35 1.316 11.35H12.684C13.048 11.35 13.356 11.224 13.608 10.972C13.8693 10.7107 14 10.398 14 10.034V2.166C14 1.802 13.8693 1.494 13.608 1.242C13.356 0.980666 13.048 0.85 12.684 0.85ZM12.684 2.166V3.272C12.012 3.832 10.7847 4.80267 9.002 6.184L8.792 6.366C8.41867 6.674 8.12467 6.898 7.91 7.038C7.53667 7.29 7.23333 7.416 7 7.416C6.76667 7.416 6.47267 7.29933 6.118 7.066C5.91267 6.93533 5.628 6.716 5.264 6.408L4.998 6.184C3.50467 5.02667 2.27733 4.056 1.316 3.272V2.166H12.684ZM1.316 10.034V4.966L4.186 7.22L4.438 7.43C4.89533 7.81267 5.26867 8.09267 5.558 8.27C6.07133 8.578 6.54733 8.732 6.986 8.732C7.434 8.732 7.91 8.58267 8.414 8.284C8.70333 8.116 9.07667 7.836 9.534 7.444L9.814 7.22L12.684 4.966V10.034H1.316Z" fill="white"/>
</svg>
