<svg width="32" height="30" viewBox="0 0 32 30" fill="none" xmlns="http://www.w3.org/2000/svg">
<path fill-rule="evenodd" clip-rule="evenodd" d="M0.185515 29.097C0.0500542 29.3708 -0.0556055 29.2339 0.0297351 29.5775C0.315558 29.609 3.06136 29.1901 3.64384 29.1189C4.82777 28.9752 5.85321 28.982 6.93148 28.7959C7.50042 28.7 9.56485 28.9081 10.421 28.659C10.7894 28.5536 11.0183 28.5905 11.418 28.5837C12.0871 28.5714 12.568 28.2469 13.1911 28.2415C13.9402 28.2415 14.3981 28.0827 15.0944 28.0841C15.7906 28.0854 16.2851 28.2018 16.9339 28.2456C17.6248 28.2921 18.3143 28.2018 19.0092 28.2853L26.2537 29.4242C26.5856 29.4584 26.7549 29.5693 27.08 29.6035C27.3753 29.635 27.8182 29.6487 28.0783 29.6925C28.6283 29.7842 29.2975 30.047 29.8691 29.9936C29.9258 29.8575 29.9618 29.7135 29.9761 29.5665C29.7282 29.4253 29.469 29.3054 29.2013 29.2079L27.2046 28.2675C27.0887 28.1674 26.9624 28.0802 26.828 28.0074C26.3071 27.725 25.7665 27.4811 25.2106 27.2778C24.5889 27.0437 24.1025 26.7836 23.5377 26.5208C23.0134 26.2772 23.7029 26.629 22.771 26.4181C22.0056 26.2457 20.781 25.8309 19.9087 25.7091C19.2896 25.6228 16.0209 25.3285 15.475 25.3477C12.7116 25.449 11.8961 25.9295 9.3874 26.3388C8.73884 26.455 8.10123 26.6267 7.48146 26.8521C6.88543 27.0519 6.91794 26.9342 6.13497 27.2285C5.96158 27.2929 5.84508 27.3065 5.65815 27.3763C5.36749 27.5006 5.06987 27.6076 4.76681 27.6967C3.8454 27.9042 2.94485 28.197 2.07655 28.5714C1.71894 28.711 0.499785 29.097 0.185515 29.097Z" fill="#0057FF"/>
<path fill-rule="evenodd" clip-rule="evenodd" d="M16.976 14.7253C16.4179 14.8184 14.8086 14.4324 14.0798 14.4146C13.7357 14.4063 13.3551 14.4502 13.0191 14.4009C11.8894 14.238 12.1319 14.4584 11.0373 14.5063C10.7664 14.5186 10.318 14.5337 10.1325 14.6623C9.94687 14.791 10.0119 14.8649 9.87508 14.9087C9.66918 14.9744 9.70575 14.8375 9.51475 14.7335C8.48254 15.1045 9.09076 14.843 8.38907 15.8464L7.38801 17.1441C7.27558 17.281 7.06019 17.8285 6.78792 18.0598C6.65246 17.808 7.02768 17.4753 7.07374 17.1016C7.18367 16.2111 7.18867 15.3104 7.08864 14.4187C7.06426 14.2229 6.98298 13.9779 7.00601 13.8711C7.05613 13.6384 7.20107 13.7247 7.14147 13.3003C6.91796 13.2004 6.98298 13.2401 6.72561 13.2195C6.49803 13.2017 6.43436 13.147 6.27858 13.1484C5.94535 13.1484 6.10113 13.3044 5.77738 13.4221C5.6663 13.4618 5.67714 13.3551 5.56064 13.5097C5.34119 13.8027 5.6961 14.0381 5.74216 14.264C5.79363 14.5131 5.68662 14.4009 5.68526 14.6746C5.68526 14.895 5.76789 14.906 5.76654 15.1893C5.76654 16.1626 5.88846 16.5883 5.68797 17.4548C5.58731 17.8023 5.52819 18.1608 5.51187 18.5225C5.50104 19.0865 5.2545 20.0474 5.0784 20.5758C4.94294 20.9865 4.99306 21.2958 4.89552 21.6709L4.84269 22.7509C4.81696 23.0932 4.68285 23.5572 4.70723 23.8953C5.00525 23.9336 5.89658 23.7023 5.99953 23.4545C6.00766 23.2451 5.98599 22.9398 6.01172 22.7482L7.11032 20.1871C7.81065 19.415 7.42729 19.8736 8.03281 18.94C8.15337 18.7539 8.22652 18.7101 8.3403 18.5458L10.0403 15.8505C10.2395 15.522 10.7529 15.5097 11.1051 15.5247C11.9682 15.5375 12.8268 15.6542 13.6626 15.8724C14.0513 15.9696 14.4645 16.0298 14.8695 16.1243C15.6525 16.3091 16.43 16.5144 17.1954 16.7266C17.5435 16.8224 17.9526 16.9867 18.2981 17.0688C19.883 17.4466 19.31 16.9702 19.8261 17.7532H20.1837C20.4221 17.4028 20.3855 17.5424 20.4546 16.9962C20.5643 16.1188 20.609 16.769 20.609 15.4412C20.609 14.9334 20.5941 14.791 20.7878 14.2873L20.6808 14.2229C20.6117 14.1572 20.139 13.1278 19.8098 12.9184C19.5226 12.7391 19.5931 13.0087 19.2422 12.338C19.1284 12.1231 18.848 11.7384 18.7099 11.6536C18.2967 11.7658 18.5974 11.8384 17.9716 12.2572C17.9608 12.2654 17.9445 12.275 17.9337 12.2846C17.5611 12.583 17.3349 13.6904 17.2713 13.8013C17.0464 14.1983 17.0058 14.1997 16.976 14.7253Z" fill="#0057FF"/>
<path fill-rule="evenodd" clip-rule="evenodd" d="M26.6113 5.95363C26.1859 5.94542 25.6007 6.26847 25.1564 6.3903C24.3612 6.60932 24.6376 6.62985 23.8777 6.88856C22.9958 7.18835 22.4743 8.06442 21.6886 8.26701C21.5792 8.21383 21.4764 8.14766 21.3825 8.06989C21.247 7.96038 21.2619 7.90289 21.1698 7.77011C21.0343 7.57573 20.8528 7.51961 20.655 7.24721C20.7508 6.5944 20.9421 5.95961 21.2226 5.36365C21.8051 4.09335 21.289 4.51769 21.289 3.44724C21.6954 3.34321 22.0543 3.01331 22.3171 2.693C22.6382 2.30287 22.5339 2.32204 22.6233 2.10439C22.6991 1.91959 22.985 1.5938 22.7235 1.14619C22.4932 0.749215 22.4526 0.812183 22.076 0.521984C21.8674 0.363196 21.5342 -0.096742 20.8013 0.0182425L20.59 0.177031C20.1172 0.526091 19.8517 1.87579 19.8247 2.42607C19.0187 3.00236 18.5635 3.01605 17.8049 3.6471C17.1141 4.22202 17.3823 4.2535 16.9922 5.06798C16.8567 5.3527 16.5627 5.7045 16.1794 6.4957C15.9721 6.92416 15.9545 6.86119 16.1008 7.30881C16.8716 7.34166 16.8824 7.02408 17.1994 6.75305C17.2703 6.69753 17.3377 6.63764 17.4013 6.57373C18.1883 5.70724 18.3915 4.9968 18.5757 4.81063C18.7599 4.62447 18.8873 4.63131 19.1175 4.53686C19.2197 4.49555 19.3148 4.43827 19.3993 4.36712C19.5348 4.25077 19.4603 4.2535 19.6526 4.17959C19.759 4.42272 19.8284 4.68069 19.8585 4.94478C19.8734 5.12821 19.8016 5.38145 19.994 5.50875C20.2947 5.71134 19.7949 5.41978 20.0888 5.55119L20.1904 5.58541C20.0698 6.16717 19.8639 6.60795 19.7772 7.11717C19.7312 7.38272 19.5835 7.55794 19.4968 7.8016C19.421 8.0124 19.4806 8.08221 19.4454 8.27522C19.3709 8.67082 19.2882 8.05757 19.2896 9.06232L19.8003 9.35252C19.971 9.52089 20.0224 9.63998 20.2067 9.7796C20.3735 9.88317 20.5276 10.0063 20.6659 10.1465C21.2294 10.7474 21.8132 10.8309 22.2833 10.0985C22.4987 9.76591 22.8251 9.52636 23.1191 9.21289C23.6581 8.6229 24.2395 8.07387 24.8584 7.57026C25.044 7.42379 25.1659 7.3882 25.3528 7.23899C26.0369 6.69145 25.3637 6.98165 26.1046 6.71472C26.5964 6.53814 26.7941 6.47791 26.8741 6.16717L26.6113 5.95363Z" fill="#0057FF"/>
<path fill-rule="evenodd" clip-rule="evenodd" d="M21.9921 14.0381C21.6426 14.2051 21.8756 14.0025 21.7211 14.327C21.4245 14.9662 21.6399 14.624 21.6168 15.2537C21.5803 16.2502 21.6399 16.0572 21.5085 17.1112C21.4908 17.2741 21.4895 18.5595 21.5003 18.7785C21.5206 19.1796 21.4719 20.7031 21.3283 21.1138C21.1847 21.5244 21.3459 22.2089 21.2362 22.6715C21.1373 23.0959 20.8461 24.0842 21.5491 24.013C22.1302 23.9542 21.8715 23.5627 22.1099 22.5935C22.1451 22.4566 22.2332 22.3608 22.2386 22.2321C22.2521 21.9584 22.1397 22.1514 22.1898 21.8051C22.3483 20.6867 22.5366 21.0905 22.5854 20.1884C22.687 18.3227 22.9755 17.1769 23.0812 15.7027C23.0988 15.4522 23.2071 15.203 23.26 14.8813C23.3128 14.5597 23.4618 14.4474 23.5851 14.2366L24.7758 12.3613C25.3176 11.7576 25.0616 11.9095 25.6373 11.2443C25.8161 11.0389 27.336 8.94732 26.66 8.74473C26.4948 8.69545 26.0274 8.86793 25.8784 8.92953C25.5438 9.06641 25.9204 9.00755 25.4585 9.52772C25.1588 9.88548 24.8376 10.2242 24.4967 10.542C24.3114 10.6771 24.1575 10.8513 24.0456 11.0526C23.9885 11.157 23.9257 11.258 23.8574 11.3552C23.2288 12.1477 23.5688 11.8534 23.0541 12.5296C22.9714 12.6378 22.9457 12.7213 22.8577 12.8431C22.4987 13.3468 22.0801 13.3975 21.9921 14.0381Z" fill="#0057FF"/>
<path fill-rule="evenodd" clip-rule="evenodd" d="M5.11899 11.6454C5.06074 11.9862 5.15421 12.0765 5.32896 12.249C5.52673 12.208 5.59988 12.1272 5.81526 12.0396C6.13089 11.9027 6.13089 11.9684 6.43703 11.8849L7.87021 11.1635C8.24408 10.9267 8.03954 11.0718 8.5001 11.0266C8.77103 10.9965 8.78186 10.9322 9.13135 10.9322C9.37327 10.9553 9.61729 10.9273 9.84794 10.85C10.234 10.7132 12.2077 11.158 12.8877 11.2607H14.2233C14.608 11.1977 14.5322 11.3209 14.7747 11.4222C15.3368 11.1183 15.1973 11.1293 15.3721 10.4928C15.4601 10.1738 15.7093 9.49624 15.6132 9.2252C15.3111 9.14307 14.627 9.42232 14.1461 9.31828C13.6652 9.21425 13.4092 9.10611 12.6425 9.20877C12.1359 9.27722 11.674 9.3265 11.1755 9.39357C10.3464 9.50582 8.85501 9.25668 8.19532 9.71389C7.7212 10.0369 7.28366 10.4339 6.77297 10.7583L5.76514 11.4085C5.55382 11.5235 5.36147 11.5194 5.11899 11.6454Z" fill="#0057FF"/>
<path fill-rule="evenodd" clip-rule="evenodd" d="M27.9483 6.24931L28.0471 6.47518L27.8494 6.70104C28.1406 7.06379 28.9872 7.6921 29.3015 7.95218C29.4112 8.04252 29.3286 8.00009 29.4749 8.09728L30.0804 8.50794C30.5234 8.71601 30.6412 8.72422 30.8932 9.10066L30.7821 9.51131C30.3324 9.51131 30.0723 9.24712 29.4952 9.03221C29.2622 8.94461 28.9412 8.96924 28.7502 8.88574C28.3899 8.72696 28.6147 8.61197 28.1528 8.73928C27.974 8.57912 27.9185 8.45318 27.6204 8.69547C27.5313 8.74843 27.4611 8.82875 27.4202 8.92475C27.3792 9.02076 27.3697 9.12745 27.3929 9.22933C27.6901 9.27739 27.9845 9.34182 28.2747 9.42234C28.4617 9.48941 28.3723 9.50995 28.6391 9.56881L30.3012 10.0821C30.5193 10.1273 30.4462 10.1738 30.5613 10.3778C31.2494 10.4887 31.2657 9.55649 31.7805 9.05685C31.9159 8.91997 31.9566 8.83373 31.9931 8.56817L31.1939 7.94944C30.6345 7.35946 30.7686 7.56342 30.4949 7.31155C30.163 7.0063 30.6805 7.31155 29.7838 6.68461C29.5467 6.51898 29.2202 6.19867 29.1837 6.00018C29.0482 5.27879 28.9507 6.73389 28.8491 5.43895L28.4738 5.26373C27.6706 5.92626 28.2707 5.97554 27.9483 6.24931Z" fill="#0057FF"/>
</svg>
