<svg width="12" height="17" viewBox="0 0 12 17" fill="none" xmlns="http://www.w3.org/2000/svg">
<path d="M6 0.4C4.912 0.4 3.904 0.672 2.976 1.216C2.06933 1.74933 1.34933 2.46933 0.816 3.376C0.272 4.304 0 5.312 0 6.4C0 7.008 0.0746667 7.552 0.224 8.032C0.373333 8.512 0.656 9.11467 1.072 9.84C1.36 10.3307 1.95733 11.2907 2.864 12.72C3.632 13.9253 4.256 14.9173 4.736 15.696C4.928 16.0053 5.184 16.2133 5.504 16.32C5.83467 16.4267 6.16533 16.4267 6.496 16.32C6.82667 16.2133 7.088 16.0053 7.28 15.696C7.77067 14.9173 8.39467 13.92 9.152 12.704C10.0587 11.2747 10.6507 10.3147 10.928 9.824C11.3547 9.09867 11.6373 8.50133 11.776 8.032C11.9253 7.552 12 7.008 12 6.4C12 5.312 11.728 4.304 11.184 3.376C10.6507 2.46933 9.93067 1.74933 9.024 1.216C8.096 0.672 7.088 0.4 6 0.4ZM6 14.896C5.488 14.0747 4.84267 13.0507 4.064 11.824C3.21067 10.48 2.66133 9.59467 2.416 9.168C2.04267 8.528 1.79733 8.016 1.68 7.632C1.56267 7.28 1.504 6.86933 1.504 6.4C1.504 5.58933 1.70667 4.832 2.112 4.128C2.51733 3.456 3.056 2.91733 3.728 2.512C4.432 2.10667 5.18933 1.904 6 1.904C6.81067 1.904 7.568 2.10667 8.272 2.512C8.944 2.91733 9.48267 3.456 9.888 4.128C10.2933 4.832 10.496 5.58933 10.496 6.4C10.496 6.88 10.4427 7.29067 10.336 7.632C10.208 8.016 9.95733 8.53333 9.584 9.184C9.328 9.62133 8.75733 10.5333 7.872 11.92C7.11467 13.1147 6.49067 14.1067 6 14.896ZM3.504 6.4C3.504 5.952 3.616 5.536 3.84 5.152C4.064 4.768 4.368 4.464 4.752 4.24C5.136 4.016 5.552 3.904 6 3.904C6.448 3.904 6.864 4.016 7.248 4.24C7.632 4.464 7.936 4.768 8.16 5.152C8.384 5.536 8.496 5.952 8.496 6.4C8.496 6.848 8.384 7.264 8.16 7.648C7.936 8.032 7.632 8.336 7.248 8.56C6.864 8.784 6.448 8.896 6 8.896C5.552 8.896 5.136 8.784 4.752 8.56C4.368 8.336 4.064 8.032 3.84 7.648C3.616 7.264 3.504 6.848 3.504 6.4Z" fill="white"/>
</svg>
