<svg width="10" height="16" viewBox="0 0 10 16" fill="none" xmlns="http://www.w3.org/2000/svg">
<path d="M7.965 0.25H1.41C1.02 0.25 0.685 0.39 0.405 0.67C0.135 0.94 0 1.27 0 1.66V13.84C0 14.23 0.135 14.56 0.405 14.83C0.685 15.11 1.02 15.25 1.41 15.25H7.965C8.355 15.25 8.685 15.11 8.955 14.83C9.235 14.56 9.375 14.23 9.375 13.84V1.66C9.375 1.27 9.235 0.94 8.955 0.67C8.685 0.39 8.355 0.25 7.965 0.25ZM7.8 13.84H1.59C1.54 13.84 1.495 13.825 1.455 13.795C1.425 13.765 1.41 13.725 1.41 13.675V1.825C1.41 1.775 1.425 1.735 1.455 1.705C1.495 1.675 1.54 1.66 1.59 1.66H7.8C7.85 1.66 7.89 1.675 7.92 1.705C7.95 1.735 7.965 1.775 7.965 1.825V13.675C7.965 13.715 7.95 13.75 7.92 13.78C7.89 13.82 7.85 13.84 7.8 13.84ZM5.745 12.91H3.63C3.53 12.91 3.445 12.875 3.375 12.805C3.315 12.735 3.285 12.65 3.285 12.55V12.325C3.285 12.225 3.315 12.14 3.375 12.07C3.445 12 3.53 11.965 3.63 11.965H5.745C5.845 11.965 5.925 12 5.985 12.07C6.055 12.14 6.09 12.225 6.09 12.325V12.55C6.09 12.65 6.055 12.735 5.985 12.805C5.925 12.875 5.845 12.91 5.745 12.91Z" fill="white"/>
</svg>
