<svg width="24" height="22" viewBox="0 0 24 22" fill="none" xmlns="http://www.w3.org/2000/svg">
<path d="M0.00182152 20.019C0.122375 20.3722 0.36731 20.6355 0.634251 20.8855C0.879187 21.1147 1.11264 21.359 1.34992 21.5911C1.90103 22.1328 2.56886 22.1356 3.11326 21.5958L8.74486 16.0082C9.21464 15.5413 9.68442 15.0725 10.1571 14.6085C10.513 14.259 10.6422 13.8565 10.4881 13.3773C10.4781 13.3481 10.4747 13.3171 10.4782 13.2865C10.4816 13.2559 10.4919 13.2264 10.5082 13.2002C10.8306 12.8725 11.1617 12.5534 11.4966 12.2257C11.8324 12.5524 12.1663 12.8706 12.4859 13.1983C12.5022 13.2281 12.512 13.2609 12.5148 13.2946C12.5176 13.3284 12.5133 13.3623 12.5021 13.3943C12.4329 13.5999 12.4248 13.8207 12.479 14.0307C12.5331 14.2406 12.6471 14.4306 12.8073 14.5782C15.1674 16.9231 17.5313 19.267 19.899 21.61C20.4271 22.1337 21.1007 22.129 21.6288 21.61C21.9637 21.2814 22.2986 20.9528 22.6287 20.6194C23.1224 20.1222 23.1291 19.4498 22.6287 18.9564C20.2622 16.6033 17.8952 14.2527 15.5275 11.9046C15.1926 11.5732 14.7869 11.4851 14.3277 11.6044C14.2916 11.6137 14.2539 11.6153 14.2171 11.6091C14.1803 11.6029 14.1453 11.589 14.1143 11.5684C13.7823 11.2597 13.4599 10.9405 13.1422 10.6309L16.0719 7.76602C16.5684 8.03877 16.8153 8.00184 17.2678 7.55388C17.5223 7.30197 17.7845 7.05763 18.0275 6.79624C18.1423 6.67218 18.2342 6.67313 18.372 6.75173C18.6666 6.9102 18.9182 7.13691 19.1051 7.41248C19.292 7.68805 19.4088 8.00431 19.4455 8.33425C19.5163 8.82577 19.5957 9.3154 19.6521 9.80786C19.6537 9.91786 19.6202 10.0256 19.5565 10.1157C19.4749 10.2119 19.3867 10.3024 19.2924 10.3865C19.101 10.5968 19.1183 10.8799 19.3708 10.9869C19.8129 11.1764 19.9353 11.4993 19.9794 11.934C20.0081 12.2238 19.9994 12.4492 19.743 12.6244C19.6717 12.6796 19.6075 12.7432 19.5517 12.8138C19.3766 13.0174 19.3881 13.3101 19.6349 13.3962C20.3802 13.6586 20.2932 14.3035 20.3908 14.8708C20.4089 14.9797 20.4195 15.0905 20.4396 15.2004C20.4572 15.3277 20.5075 15.4483 20.5858 15.5508C20.664 15.6533 20.7675 15.7342 20.8864 15.7857C21.0053 15.8373 21.1356 15.8577 21.2648 15.8451C21.3939 15.8325 21.5176 15.7872 21.6241 15.7137C21.8516 15.5707 22.0701 15.4141 22.2785 15.2449C22.844 14.7714 23.0975 14.169 22.9635 13.4455C22.5008 11.0269 22.2959 8.56683 22.3522 6.10584C22.3632 5.88302 22.3252 5.66047 22.2408 5.45362C22.1564 5.24676 22.0276 5.06054 21.8633 4.90782C21.6301 4.69879 21.4084 4.4775 21.1992 4.24489C20.7716 3.73632 20.2272 3.50713 19.5727 3.48724C19.3048 3.47777 19.0379 3.42284 18.77 3.4058C18.7412 3.40852 18.7122 3.40554 18.6846 3.39702C18.657 3.3885 18.6314 3.37462 18.6093 3.35619C18.5872 3.33775 18.5691 3.31514 18.5559 3.28967C18.5428 3.2642 18.5349 3.23639 18.5327 3.20786C18.3988 2.63963 18.2409 2.0714 18.1079 1.50317C18.0785 1.3382 18.0007 1.18546 17.8841 1.06402C17.7676 0.942575 17.6174 0.857823 17.4525 0.820348C16.5512 0.568433 15.6547 0.311782 14.7553 0.0608133C14.0445 -0.13712 13.4761 0.155518 13.2446 0.830766C12.9757 1.61019 13.2082 2.17842 13.9249 2.46254C14.3258 2.62448 14.7295 2.78264 15.1314 2.94269C15.4844 3.08475 15.5533 3.24953 15.4031 3.60563C15.2008 4.08547 14.9086 4.52312 14.542 4.89551C14.1009 5.34252 14.0636 5.58212 14.3679 6.10584L11.5052 8.91669L8.63483 6.09637C8.69195 6.00625 8.74063 5.91115 8.78026 5.81225C8.83047 5.67148 8.83698 5.51906 8.79896 5.37459C8.76094 5.23012 8.68012 5.10021 8.5669 5.00158C8.14439 4.60078 7.81131 4.11688 7.58908 3.581C7.45417 3.25522 7.52401 3.0838 7.85314 2.95027C8.26839 2.78264 8.68554 2.62164 9.09696 2.45685C9.73226 2.20494 10.0069 1.62534 9.79923 0.977559C9.52846 0.131842 9.00511 -0.147538 8.14879 0.0949071C7.29247 0.337352 6.44285 0.57885 5.58845 0.809931C5.41208 0.845964 5.25086 0.934012 5.12602 1.06249C5.00118 1.19096 4.91856 1.35384 4.88905 1.52969C4.75988 2.09792 4.60201 2.66615 4.46232 3.23438C4.45888 3.28153 4.43693 3.32547 4.40116 3.3568C4.3654 3.38813 4.31867 3.40436 4.27097 3.40201C3.86912 3.438 3.46823 3.48914 3.06638 3.53176C2.68999 3.56143 2.33673 3.72333 2.07038 3.98823C1.75846 4.29887 1.44847 4.6095 1.13273 4.9154C0.975286 5.06902 0.850887 5.25259 0.767027 5.45507C0.683165 5.65754 0.641581 5.87472 0.644775 6.09353C0.617029 7.30765 0.63138 8.52556 0.53092 9.73399C0.427588 10.9718 0.206572 12.1963 0.0362644 13.4275C0.0362644 13.4474 0.0142593 13.4654 0.00373459 13.4843V14.062C0.144381 14.3594 0.227619 14.7089 0.440981 14.9418C0.747448 15.2646 1.09972 15.5415 1.48674 15.7639C1.92208 16.0215 2.47318 15.7156 2.56025 15.2136C2.62299 14.9007 2.66772 14.5845 2.69419 14.2666C2.71524 13.9124 2.82528 13.6425 3.18502 13.5146C3.25392 13.4851 3.31832 13.4462 3.37638 13.3991C3.59644 13.2428 3.62705 13.008 3.44622 12.8062C3.33237 12.6793 3.20224 12.5666 3.08552 12.4416C3.04342 12.3962 2.9841 12.327 2.98984 12.2797C3.07595 11.7872 2.96401 11.1925 3.63853 10.9898C3.64543 10.9869 3.65187 10.9831 3.65767 10.9784C3.7037 10.9487 3.74272 10.9095 3.77208 10.8635C3.80143 10.8175 3.82043 10.7658 3.82778 10.7119C3.83514 10.6579 3.83067 10.6031 3.81469 10.551C3.79871 10.499 3.77159 10.4509 3.73517 10.4102C3.64523 10.3022 3.52468 10.2208 3.44814 10.1043C3.38362 10.0233 3.34827 9.92331 3.34768 9.82018C3.407 9.3135 3.4845 8.80873 3.56104 8.30489C3.60221 7.97635 3.72275 7.66247 3.91244 7.3898C4.10214 7.11714 4.3554 6.89372 4.65081 6.73847C4.67353 6.7203 4.69976 6.70692 4.7279 6.69916C4.75603 6.69139 4.78547 6.68939 4.81441 6.6933C4.84335 6.6972 4.87118 6.70691 4.89619 6.72185C4.9212 6.73678 4.94286 6.75662 4.95985 6.78014C5.21052 7.04437 5.47555 7.29628 5.73484 7.55294C6.18835 8.00089 6.42467 8.03688 6.92985 7.76507L9.85951 10.6356C9.53995 10.9443 9.21656 11.2606 8.88551 11.5713C8.86182 11.5906 8.83409 11.6046 8.80432 11.6121C8.77455 11.6197 8.74347 11.6206 8.71329 11.6148C8.18228 11.4595 7.75651 11.6148 7.3738 11.9937C5.11197 14.2476 2.84537 16.4972 0.573975 18.7423C0.329039 18.9848 0.100368 19.232 -9.34601e-05 19.572L0.00182152 20.019ZM8.31814 12.2532C8.43482 12.3181 8.54587 12.3926 8.65014 12.4757C8.97353 12.7844 9.28927 13.1008 9.60692 13.4161C9.84803 13.6567 9.8509 13.8423 9.60692 14.0791C7.25962 16.4075 4.91201 18.7354 2.56407 21.0626C2.33349 21.2909 2.13735 21.2918 1.90485 21.0626C1.59581 20.7615 1.2906 20.4565 0.983475 20.1525C0.67635 19.8485 0.685917 19.7036 0.983475 19.4081C2.03529 18.3638 3.08775 17.3199 4.14084 16.2762C5.41655 15.0135 6.69225 13.7508 7.96796 12.488C8.07734 12.3989 8.19453 12.3197 8.31814 12.2513V12.2532ZM13.169 13.758C13.227 13.6458 13.2955 13.5393 13.3738 13.4398C13.6962 13.1093 14.0263 12.7863 14.3564 12.4643C14.5879 12.2389 14.7793 12.2399 15.0137 12.4719C17.3661 14.8023 19.7178 17.1349 22.069 19.4697C22.2919 19.6903 22.29 19.8779 22.069 20.1023C21.759 20.4139 21.4451 20.7217 21.1332 21.0304C20.8462 21.3079 20.6797 21.307 20.3946 21.0247L16.6201 17.282C15.5562 16.2289 14.4941 15.1745 13.434 14.1188C13.3361 14.0051 13.2475 13.8838 13.169 13.7561V13.758ZM18.7767 4.16723C19.0982 4.20227 19.3852 4.25151 19.6732 4.26193C19.8489 4.26601 20.0216 4.30815 20.1792 4.38537C20.3367 4.4626 20.4752 4.57304 20.585 4.70894C20.7832 4.9316 20.9953 5.14164 21.2203 5.33778C21.5073 5.58307 21.5963 5.8776 21.5867 6.24506C21.5326 8.54187 21.7137 10.8382 22.1273 13.0989C22.1917 13.3782 22.2168 13.6651 22.202 13.9512C22.1417 14.5336 21.6394 14.7647 21.1926 15.0782C21.1323 14.6653 21.0567 14.2808 21.0251 13.8925C20.9935 13.5042 20.895 13.1813 20.4931 13.0269C20.4836 13.0269 20.4798 13.0032 20.4673 12.9795C20.5066 12.9292 20.5501 12.8824 20.5974 12.8394C20.7888 12.6869 20.8261 12.4918 20.7888 12.2617C20.7247 11.8677 20.6874 11.468 20.6051 11.0769C20.5773 10.9424 20.4558 10.8222 20.363 10.7066C20.2989 10.651 20.227 10.6047 20.1497 10.5693C20.5199 10.3609 20.4778 10.055 20.4252 9.73589C20.3448 9.24626 20.276 8.75474 20.2119 8.26322C20.1162 7.55199 19.8291 6.94303 19.2809 6.46383C19.0896 6.29904 18.8724 6.1674 18.6552 6.01208C18.9499 5.44385 18.9833 4.83016 18.7767 4.16723ZM4.22887 4.1587C4.01264 4.83395 4.05282 5.44575 4.34846 6.03481C4.30924 6.06133 4.28627 6.07932 4.26044 6.09353C3.87037 6.29558 3.53498 6.58733 3.28242 6.94427C3.02986 7.30121 2.86751 7.71293 2.80901 8.14484C2.72768 8.64867 2.67028 9.15629 2.58799 9.66012C2.53346 10.0011 2.44161 10.3401 2.86355 10.5949C2.37176 10.7369 2.36793 11.1091 2.33062 11.4643C2.32024 11.5823 2.30299 11.6996 2.27895 11.8156C2.18328 12.2494 2.11056 12.6755 2.53154 13.0127C2.49058 13.0443 2.44706 13.0725 2.40142 13.097C2.28224 13.1428 2.18033 13.224 2.10973 13.3295C2.03913 13.435 2.00332 13.5596 2.00723 13.686C1.99113 13.8767 1.96462 14.0664 1.92782 14.2543C1.88763 14.5204 1.84553 14.7856 1.79961 15.0792C1.59007 14.9305 1.40924 14.814 1.23989 14.6804C0.862921 14.3831 0.72419 14.0005 0.793077 13.5222C0.974865 12.255 1.18918 10.9907 1.29634 9.71695C1.39776 8.52366 1.37863 7.30954 1.4102 6.10395C1.40731 5.97834 1.43072 5.85349 1.47897 5.73728C1.52722 5.62107 1.59925 5.516 1.69053 5.4287C1.99288 5.14458 2.278 4.83585 2.58417 4.55362C2.69266 4.44304 2.82911 4.36325 2.97931 4.32254C3.37446 4.24962 3.77631 4.21742 4.22887 4.16154V4.1587ZM14.9534 5.5575C15.4499 5.08237 15.8443 4.51285 16.113 3.88311C16.4182 3.16051 16.1551 2.53546 15.4232 2.24282C15.0223 2.08182 14.6195 1.92461 14.2176 1.76266C13.8875 1.62913 13.8349 1.47855 13.9583 1.1092C14.0703 0.787201 14.2224 0.705755 14.5573 0.80046C15.4299 1.04196 16.2986 1.28724 17.1655 1.5278C17.2191 1.53831 17.2682 1.56482 17.3062 1.60376C17.3441 1.64269 17.3692 1.69219 17.3779 1.74562C17.6101 2.67941 17.8457 3.61289 18.0849 4.54605C18.1969 4.98359 18.1902 5.42775 17.9041 5.77721C17.4984 6.27442 17.0277 6.72427 16.5933 7.17696L14.9534 5.5575ZM6.44955 7.13718C6.02761 6.73468 5.59515 6.35681 5.20574 5.93821C5.05227 5.77821 4.94221 5.58236 4.88583 5.36891C4.82945 5.15545 4.82858 4.93134 4.8833 4.71746C5.1225 3.7098 5.37796 2.70498 5.63725 1.70205C5.65558 1.66246 5.68207 1.62709 5.71503 1.59822C5.74798 1.56935 5.78666 1.54762 5.8286 1.53443C6.7031 1.27967 7.57951 1.03249 8.45687 0.787202C8.76687 0.70102 8.92282 0.787201 9.03094 1.10825C9.15532 1.46908 9.09791 1.62439 8.78696 1.7513C8.35832 1.92461 7.92586 2.09034 7.49818 2.26555C6.85427 2.52978 6.55958 3.17188 6.84853 3.79409C7.06974 4.2372 7.32099 4.66498 7.60056 5.0745C7.72983 5.24895 7.8725 5.41327 8.02728 5.56602L6.44955 7.13718ZM9.40026 12.1281L14.9496 6.69207L15.4662 7.1779L9.91692 12.6263L9.40026 12.1281ZM8.04546 6.69017L10.9043 9.49344L10.4154 9.99443L7.53071 7.17412L8.04546 6.69017ZM12.5538 11.183L13.5488 12.1575L13.0628 12.6187C12.7365 12.3043 12.4036 11.9813 12.0735 11.6622L12.5538 11.183Z" fill="#0057FF"/>
</svg>
