<svg width="22" height="22" viewBox="0 0 22 22" fill="none" xmlns="http://www.w3.org/2000/svg">
<path fill-rule="evenodd" clip-rule="evenodd" d="M16 6C16 3.23858 13.7614 1 11 1C8.23858 1 6 3.23858 6 6C6 8.76142 8.23858 11 11 11H10C5.02944 11 1 15.0294 1 20C1 20.5523 1.44772 21 2 21H20C20.5523 21 21 20.5523 21 20C21 15.0294 16.9706 11 12 11H11C12.3261 11 13.5979 10.4732 14.5355 9.53553C15.4732 8.59785 16 7.32608 16 6ZM10 13C6.51962 12.9991 3.5672 15.5553 3.07 19H18.93C18.4328 15.5553 15.4804 12.9991 12 13H10ZM8 6C8 7.65685 9.34315 9 11 9C11.7956 9 12.5587 8.68393 13.1213 8.12132C13.6839 7.55871 14 6.79565 14 6C14 4.34315 12.6569 3 11 3C9.34315 3 8 4.34315 8 6Z" fill="#231F20"/>
<path d="M14.5355 9.53553L14.6416 9.6416L14.5355 9.53553ZM3.07 19L2.92154 18.9786L2.8968 19.15H3.07V19ZM10 13L9.99996 13.15H10V13ZM18.93 19V19.15H19.1032L19.0785 18.9786L18.93 19ZM12 13V13.15H12L12 13ZM13.1213 8.12132L13.2274 8.22739V8.22739L13.1213 8.12132ZM11 1.15C13.6786 1.15 15.85 3.32142 15.85 6H16.15C16.15 3.15573 13.8443 0.85 11 0.85V1.15ZM6.15 6C6.15 3.32142 8.32142 1.15 11 1.15V0.85C8.15573 0.85 5.85 3.15573 5.85 6H6.15ZM11 10.85C8.32142 10.85 6.15 8.67858 6.15 6H5.85C5.85 8.84427 8.15573 11.15 11 11.15V10.85ZM10 11.15H11V10.85H10V11.15ZM1.15 20C1.15 15.1123 5.11228 11.15 10 11.15V10.85C4.94659 10.85 0.85 14.9466 0.85 20H1.15ZM2 20.85C1.53056 20.85 1.15 20.4694 1.15 20H0.85C0.85 20.6351 1.36487 21.15 2 21.15V20.85ZM20 20.85H2V21.15H20V20.85ZM20.85 20C20.85 20.4694 20.4694 20.85 20 20.85V21.15C20.6351 21.15 21.15 20.6351 21.15 20H20.85ZM12 11.15C16.8877 11.15 20.85 15.1123 20.85 20H21.15C21.15 14.9466 17.0534 10.85 12 10.85V11.15ZM11 11.15H12V10.85H11V11.15ZM14.4295 9.42947C13.5199 10.339 12.2863 10.85 11 10.85V11.15C12.3659 11.15 13.6758 10.6074 14.6416 9.6416L14.4295 9.42947ZM15.85 6C15.85 7.2863 15.339 8.51992 14.4295 9.42947L14.6416 9.6416C15.6074 8.67579 16.15 7.36586 16.15 6H15.85ZM3.21846 19.0214C3.705 15.6506 6.59416 13.1491 9.99996 13.15L10 12.85C6.44508 12.8491 3.42939 15.4601 2.92154 18.9786L3.21846 19.0214ZM18.93 18.85H3.07V19.15H18.93V18.85ZM12 13.15C15.4058 13.1491 18.295 15.6506 18.7815 19.0214L19.0785 18.9786C18.5706 15.4601 15.5549 12.8491 12 12.85L12 13.15ZM10 13.15H12V12.85H10V13.15ZM11 8.85C9.42599 8.85 8.15 7.57401 8.15 6H7.85C7.85 7.7397 9.2603 9.15 11 9.15V8.85ZM13.0153 8.01525C12.4808 8.54973 11.7559 8.85 11 8.85V9.15C11.8354 9.15 12.6366 8.81813 13.2274 8.22739L13.0153 8.01525ZM13.85 6C13.85 6.75587 13.5497 7.48078 13.0153 8.01525L13.2274 8.22739C13.8181 7.63665 14.15 6.83543 14.15 6H13.85ZM11 3.15C12.574 3.15 13.85 4.42599 13.85 6H14.15C14.15 4.2603 12.7397 2.85 11 2.85V3.15ZM8.15 6C8.15 4.42599 9.42599 3.15 11 3.15V2.85C9.2603 2.85 7.85 4.2603 7.85 6H8.15Z" fill="black"/>
</svg>
