<svg width="22" height="16" viewBox="0 0 22 16" fill="none" xmlns="http://www.w3.org/2000/svg">
<path d="M21.8657 8.32409L14.9907 15.1991C14.8117 15.3781 14.5216 15.3781 14.3426 15.1991C14.1636 15.02 14.1636 14.73 14.3426 14.551L20.4353 8.45836H0.458348C0.205004 8.45836 0 8.25336 0 8.00002C0 7.74667 0.205004 7.54167 0.458348 7.54167H20.4353L14.3426 1.44909C14.1636 1.27004 14.1636 0.979998 14.3426 0.800989C14.4321 0.711486 14.5494 0.666712 14.6667 0.666712C14.784 0.666712 14.9012 0.711486 14.9908 0.800989L21.8658 7.67599C22.0448 7.855 22.0448 8.14504 21.8657 8.32409Z" fill="white"/>
</svg>
