<svg width="14" height="15" viewBox="0 0 14 15" fill="none" xmlns="http://www.w3.org/2000/svg">
<path d="M11.578 8.052L11.004 7.898C11.3587 7.394 11.6107 6.848 11.76 6.26C11.872 5.84933 11.928 5.43867 11.928 5.028C11.928 4.132 11.704 3.30133 11.256 2.536C10.8173 1.79867 10.2247 1.21067 9.478 0.771999C8.71267 0.324 7.88667 0.0999997 7 0.0999997C6.11333 0.0999997 5.28733 0.324 4.522 0.771999C3.77533 1.21067 3.18267 1.79867 2.744 2.536C2.296 3.30133 2.072 4.132 2.072 5.028C2.072 5.43867 2.128 5.84933 2.24 6.26C2.38933 6.848 2.64133 7.394 2.996 7.898L2.422 8.052C1.85267 8.22 1.372 8.50467 0.98 8.906C0.644 9.242 0.392 9.64333 0.224 10.11C0.0746667 10.502 0 10.8893 0 11.272V11.972C0 12.3547 0.0933333 12.7093 0.28 13.036C0.476 13.3627 0.737333 13.6193 1.064 13.806C1.39067 14.002 1.74533 14.1 2.128 14.1H11.872C12.2547 14.1 12.6093 14.002 12.936 13.806C13.2627 13.6193 13.5193 13.3627 13.706 13.036C13.902 12.7093 14 12.3547 14 11.972V11.272C14 10.8893 13.93 10.502 13.79 10.11C13.6127 9.64333 13.3607 9.242 13.034 8.906C12.642 8.50467 12.1567 8.22 11.578 8.052ZM7 1.416C7.65333 1.416 8.25533 1.57933 8.806 1.906C9.35667 2.22333 9.79533 2.662 10.122 3.222C10.4487 3.77267 10.612 4.37467 10.612 5.028C10.612 5.68133 10.4487 6.288 10.122 6.848C9.79533 7.38933 9.35667 7.82333 8.806 8.15C8.25533 8.46733 7.65333 8.626 7 8.626C6.34667 8.626 5.74467 8.46733 5.194 8.15C4.64333 7.82333 4.20467 7.38467 3.878 6.834C3.55133 6.28333 3.388 5.68133 3.388 5.028C3.388 4.37467 3.55133 3.77267 3.878 3.222C4.20467 2.67133 4.64333 2.23267 5.194 1.906C5.74467 1.57933 6.34667 1.416 7 1.416ZM12.684 11.972C12.684 12.196 12.6047 12.3873 12.446 12.546C12.2873 12.7047 12.096 12.784 11.872 12.784H2.128C1.904 12.784 1.71267 12.7047 1.554 12.546C1.39533 12.3873 1.316 12.196 1.316 11.972V11.272C1.316 10.8147 1.45133 10.4087 1.722 10.054C2.002 9.69 2.35667 9.44733 2.786 9.326L4.046 8.962C4.95133 9.61533 5.936 9.942 7 9.942C8.064 9.942 9.04867 9.61533 9.954 8.962L11.214 9.326C11.6433 9.44733 11.9933 9.69 12.264 10.054C12.544 10.4087 12.684 10.8147 12.684 11.272V11.972Z" fill="black"/>
</svg>
