<svg width="22" height="13" viewBox="0 0 22 13" fill="none" xmlns="http://www.w3.org/2000/svg">
<path d="M21.2891 1.10938C21.2109 1.5 20.8984 2.16406 20.3516 3.0625C19.9609 3.72656 19.4922 4.46875 18.9453 5.32812C18.4766 6.03125 18.2031 6.38281 18.2031 6.38281C18.0469 6.61719 17.9688 6.8125 17.9688 6.92969C17.9688 7.08594 18.0469 7.24219 18.2031 7.39844L18.5547 7.78906C20.4297 9.74219 21.4844 11.0703 21.7188 11.7734C21.7969 12.0859 21.7578 12.3594 21.6016 12.5156C21.4453 12.6719 21.25 12.75 20.9375 12.75H18.6328C18.3203 12.75 18.0859 12.6719 17.8516 12.4766C17.6953 12.3984 17.3828 12.125 16.9922 11.6562C16.6016 11.1875 16.25 10.7969 15.9375 10.4844C14.8828 9.50781 14.1016 9 13.6328 9C13.3984 9 13.2422 9.03906 13.1641 9.11719C13.0859 9.19531 13.0469 9.39062 13.0469 9.625C13.0078 9.82031 13.0078 10.2109 13.0078 10.8359V11.8516C13.0078 12.1641 12.9297 12.3984 12.7734 12.5156C12.5391 12.6719 12.0703 12.75 11.3672 12.75C10.1172 12.75 8.90625 12.3984 7.65625 11.6562C6.40625 10.9531 5.3125 9.89844 4.375 8.53125C3.47656 7.35938 2.73438 6.14844 2.14844 4.89844C1.67969 3.96094 1.28906 3.10156 1.01562 2.28125C0.820312 1.65625 0.742188 1.1875 0.742188 0.914062C0.742188 0.484375 0.976562 0.25 1.52344 0.25H3.82812C4.10156 0.25 4.29688 0.328125 4.45312 0.445312C4.60938 0.601562 4.72656 0.835938 4.84375 1.14844C5.19531 2.20312 5.625 3.21875 6.17188 4.19531C6.64062 5.13281 7.10938 5.875 7.57812 6.42188C8.04688 7.00781 8.39844 7.28125 8.67188 7.28125C8.82812 7.28125 8.90625 7.24219 8.98438 7.125C9.0625 7.00781 9.10156 6.77344 9.10156 6.42188V3.02344C9.0625 2.63281 8.98438 2.24219 8.82812 1.92969C8.75 1.77344 8.59375 1.57812 8.4375 1.34375C8.24219 1.10938 8.16406 0.953125 8.16406 0.796875C8.16406 0.640625 8.20312 0.523438 8.32031 0.40625C8.4375 0.328125 8.59375 0.25 8.75 0.25H12.3828C12.6172 0.25 12.7734 0.328125 12.8516 0.445312C12.9297 0.601562 13.0078 0.796875 13.0078 1.10938V5.64062C13.0078 5.875 13.0469 6.07031 13.125 6.14844C13.2031 6.26562 13.2812 6.30469 13.3984 6.30469C13.5156 6.30469 13.6719 6.26562 13.8281 6.1875C13.9844 6.10938 14.1797 5.91406 14.4531 5.60156C14.9219 5.05469 15.4297 4.39062 15.9375 3.57031C16.25 3.02344 16.6016 2.39844 16.9141 1.69531L17.3047 0.914062C17.4609 0.484375 17.8125 0.25 18.2812 0.25H20.5859C21.2109 0.25 21.4453 0.5625 21.2891 1.10938Z" fill="white"/>
</svg>
