<svg width="35" height="29" viewBox="0 0 35 29" fill="none" xmlns="http://www.w3.org/2000/svg">
<path fill-rule="evenodd" clip-rule="evenodd" d="M33.3661 27.9653C33.1126 27.8726 32.6316 27.7103 32.5143 27.5582C32.1579 27.4959 32.1826 27.4134 31.6944 27.2033C31.2467 27.0135 31.5176 26.8339 30.9092 26.8354C30.6108 26.6905 30.5427 26.4732 30.1472 26.3066C29.8533 26.182 29.5732 26.0271 29.3114 25.8445C28.7319 25.4664 27.9656 25.2433 27.4847 25.0304L24.5251 24.0467C24.1775 23.9577 23.8347 23.8509 23.498 23.7266C21.3613 23.0631 20.6312 23.1834 19.171 22.8299C18.4467 22.6532 17.6253 22.6604 16.8821 22.4895C16.2172 22.3359 15.0815 22.2997 14.3224 22.3576C14.1935 22.5025 13.5532 22.4069 13.2779 22.4156L12.2262 22.3895C11.783 22.4156 11.6642 22.3243 11.231 22.4112C10.879 22.4822 10.6052 22.5923 10.2981 22.6097C10.1032 22.5976 9.90757 22.6166 9.71866 22.6662C8.69013 23.0675 7.29365 23.1196 6.31003 23.5223C5.82619 23.7208 5.35104 23.7788 4.75421 23.9482C4.47752 24.025 4.15882 24.1192 3.84881 24.1887L2.13508 24.7073C1.86274 24.8145 1.59909 24.9333 1.30212 25.0289C0.233034 25.3693 0.867533 25.2129 0.51117 25.394C0.221445 25.5388 -0.0682813 25.4534 0.0142905 25.9126C2.59285 26.1067 2.68267 25.8865 4.66584 25.9024C5.10043 25.9024 5.46548 25.83 5.88704 25.8373C6.30859 25.8445 6.69537 25.8691 7.10823 25.8706C7.56745 25.8706 7.78474 25.7895 8.18891 25.7721C8.59308 25.7547 8.94944 25.7721 9.34781 25.7808L13.7603 25.2419C14.1228 25.2207 14.484 25.181 14.8425 25.1231C16.2259 24.9275 17.9614 25.1014 19.3332 25.3172C19.7128 25.3766 20.072 25.3809 20.4646 25.4215C21.1121 25.4896 21.8205 25.7112 22.5159 25.7996C23.6356 25.9445 25.5189 26.2139 26.5155 26.6195C27.6208 27.07 27.3934 26.802 28.7145 27.4713C29.294 27.761 30.3225 28.1956 30.9382 28.3043L31.9667 28.4825C32.3912 28.5679 33.7384 28.7403 34.06 28.6809C34.0643 28.226 33.7949 28.1188 33.3661 27.9653Z" fill="white"/>
<path fill-rule="evenodd" clip-rule="evenodd" d="M12.5375 4.9321C13.8413 4.75681 13.5733 4.80752 13.6109 4.3005C13.8876 4.20344 13.9325 4.28746 14.1237 3.976C13.9905 3.72829 14.0064 3.81376 13.7601 3.70221C13.0749 3.39221 14.2309 3.37772 12.2898 3.36758L12.0942 2.1797C12.4245 2.14638 12.4622 2.06671 12.6592 1.87984C12.7939 1.90736 12.9025 1.94358 13.0387 1.97834L13.3994 2.03484C13.9137 2.12321 13.3733 3.9253 14.9046 3.97311C15.4724 3.99049 15.3391 4.12956 15.8824 3.88764C15.6709 4.51634 15.6998 4.53373 15.4319 4.78289C15.471 5.18416 15.4043 5.17257 15.3652 5.46085L15.5999 7.70043C15.8114 8.90859 16.7805 9.49238 16.7791 9.72851C16.6777 10.0095 16.7298 9.72851 16.5951 10.0009C16.7023 10.1776 17.1239 10.4253 17.6207 10.9468C17.9626 11.3061 17.783 11.1395 18.2596 11.3307C19.1939 11.7059 18.3088 11.5828 19.9255 11.7001C20.2341 11.7233 20.5412 11.8102 20.8222 11.8131C21.0757 11.8131 21.0134 11.7783 21.1496 11.703C21.5755 11.4669 21.3408 11.7421 22.1926 11.1829C22.2939 11.132 22.386 11.0644 22.4649 10.983L23.2849 10.3109C23.55 10.0443 24.0396 9.48949 23.8281 8.88251C23.6832 8.44792 23.7528 8.44792 23.7354 7.96408C23.7079 7.23107 23.3732 7.23977 23.3718 5.25369C23.3514 4.78392 23.201 4.32904 22.9372 3.93979C22.5142 3.26328 22.6909 3.73263 22.0333 3.00832C21.0641 3.24879 21.6552 3.94124 21.7044 4.23965C21.942 5.67814 22.1216 4.90892 22.3273 6.47344C22.4012 7.04275 22.5736 7.61641 22.4548 8.2596C22.336 8.90279 21.8754 9.50687 21.3698 9.88062C20.2341 10.7136 20.6933 10.3456 19.5996 10.237C19.2823 10.2066 19.165 10.0791 18.7173 10.0516C18.5174 9.56337 18.2972 9.4214 18.219 9.27509C17.7975 8.49428 17.9771 8.92162 17.6816 8.45227C17.3861 7.98291 17.4976 7.51211 16.9891 6.43722C16.6849 5.78969 16.9486 5.85777 17.2209 5.05668C17.4744 4.31643 17.3455 5.09869 17.6772 3.73408C17.7441 3.51941 17.824 3.30898 17.9163 3.10393C18.0754 2.92521 18.2943 2.81083 18.5319 2.78233C18.7246 2.7606 19.0592 2.83159 19.32 2.83014C19.7372 2.83014 20.5629 2.84173 20.9135 2.64906C21.4929 2.33471 21.3481 2.48826 21.477 2.27097L20.8352 1.83638C19.7097 1.12655 19.1114 1.64661 18.361 1.7031C17.7846 1.75821 17.2351 1.97347 16.7747 2.32457C16.3923 2.59256 16.5212 2.72728 16.3401 2.9721C16.2735 3.06047 16.1678 3.08944 16.0649 3.23865L15.8549 3.58342C15.597 3.40235 15.5767 3.38496 15.4304 3.04598C15.2957 2.73018 15.2146 2.8113 15.1088 2.40569C14.9639 1.85666 14.9103 1.35253 14.7945 0.829579C14.7278 0.52247 14.722 0.37471 14.428 0.261717C14.1663 0.19082 13.9008 0.135196 13.6327 0.0951242C13.3399 0.0151384 13.0358 -0.0147387 12.7331 0.0067578C12.2362 0.0197955 12.2767 0.0676002 12.058 0.38485C11.3337 0.277652 11.6987 0.431206 10.6383 0.929535C10.0429 1.21057 10.4051 1.26417 10.1139 1.48436C9.8711 1.61022 9.61874 1.71678 9.3592 1.80306L9.25055 2.28111L10.4283 2.10872C11.267 3.41104 10.2443 5.23921 12.5375 4.9321Z" fill="white"/>
<path fill-rule="evenodd" clip-rule="evenodd" d="M23.3213 18.4044C23.1864 18.2893 23.0409 18.1875 22.8867 18.1002C22.4854 17.8423 22.3927 17.6409 21.974 17.3845C21.797 17.2937 21.6248 17.1936 21.4583 17.0847C21.2975 16.9615 21.2613 16.8572 21.0585 16.7355C20.5833 16.4458 20.4182 16.6226 20.2313 15.9446C20.1198 15.539 20.2444 15.7012 20.0343 15.3217C19.8895 15.0609 19.9923 15.0812 19.8069 14.8031C19.5809 14.4626 19.4694 14.0874 19.2723 13.7137C18.9681 13.1343 18.9826 13.2183 18.9667 12.4418C18.5162 12.1796 18.4712 12.365 18.0367 12.2969C17.7745 12.2593 17.5224 12.126 17.1211 12.0985C16.8082 12.6243 16.9299 12.1492 16.785 12.5794C16.9111 12.7822 16.7995 12.6185 16.9632 12.7634L17.3196 13.0922C17.4746 13.2284 17.7324 13.7412 17.957 14.0049C18.2148 14.3047 18.1801 14.496 18.4321 14.8219C18.5335 14.9537 18.4423 14.7857 18.5596 15.0378L18.8493 15.6172C18.9942 15.8765 19.1391 16.1967 19.2955 16.4675C19.6823 17.1774 19.4143 16.7138 19.7113 17.0658C20.1835 17.6236 21.015 17.7235 21.2845 18.2783C20.0908 18.3059 20.2704 18.2914 18.9667 17.7423L17.6122 16.9934L15.7884 15.3695C15.6847 15.2257 15.5591 15.099 15.4161 14.9943C14.9308 14.5452 14.8149 13.8803 14.4368 13.9324C13.9877 14.1671 13.6299 14.4699 13.2127 14.7495C12.8219 15.0075 12.4479 15.29 12.0929 15.5955C11.2687 16.3198 10.8732 16.3198 9.89246 17.399L7.51236 20.5179C7.44282 20.6005 7.35736 20.6628 7.28348 20.7613C7.12841 20.9501 6.98335 21.1469 6.84889 21.3509C6.48818 21.9303 6.52439 21.5783 6.53743 22.0086C6.59906 22.0576 6.6725 22.0896 6.75038 22.1013C6.80252 22.1173 6.85663 22.1261 6.91118 22.1273C7.25595 22.1273 7.37909 21.7623 7.52974 21.5479C7.72676 21.2727 8.12513 20.9684 8.30766 20.7019C8.62491 20.2282 8.70603 20.2152 9.17683 19.9443L10.9775 18.4232C11.2962 18.1856 11.5685 17.9582 11.9234 17.7394L13.8182 16.398C13.9935 16.5312 14.1613 16.6739 14.3209 16.8254C14.5426 17.005 14.6802 17.0209 14.9004 17.1962C15.1553 17.4005 15.7536 17.8872 16.01 17.9886C16.404 18.1422 16.772 18.6173 17.1559 18.7303C17.6774 18.8839 19.7924 19.3561 20.2646 19.3605C20.8441 19.3605 21.4685 19.4083 22.0928 19.4083C22.7447 19.4083 23.1778 19.5227 23.766 19.6473C24.2701 19.7545 25.0929 19.9602 24.8684 19.275C24.6482 19.2228 24.4961 19.233 24.2889 19.0606C24.1166 18.9157 24.2614 18.9577 24.0572 18.8839C23.5125 18.6941 24.0745 19.1041 23.3213 18.4044Z" fill="white"/>
<path fill-rule="evenodd" clip-rule="evenodd" d="M5.35817 21.7362L5.88402 21.7159C6.51997 21.1104 6.54315 20.05 7.36887 19.2243C7.5963 18.9969 7.51373 19.0794 7.63831 18.8172C7.78317 18.5347 7.76145 18.6999 7.90921 18.4739L8.43506 17.6438C8.67988 17.2324 9.62728 16.1141 9.94888 15.9055C10.2024 15.7389 10.1893 15.8765 10.4255 15.7693L10.8238 15.497C11.4424 15.1435 13.3923 13.4428 14.1948 12.9575C15.3537 12.2564 15.064 12.0579 14.6627 11.6059C14.5535 11.4891 14.4342 11.382 14.3064 11.2858C14.1615 11.1554 14.2107 11.1293 14.0326 10.9758C13.5618 10.9425 13.4531 11.1525 13.1402 11.364C12.8273 11.5755 12.6694 11.5958 12.3869 11.829L9.69392 14.0194C9.43751 14.2251 9.24919 14.3612 9.0203 14.5626C8.59586 14.9378 8.80301 14.7712 8.56688 15.0595C8.20907 15.4941 8.25108 15.4086 7.98743 15.9576C7.76697 16.3434 7.51757 16.712 7.24139 17.06C6.53735 18.0538 6.53156 18.3855 6.12594 19.1939C5.9072 19.6285 5.98108 19.3677 5.79276 19.882C5.47696 20.7511 5.83477 20.2108 5.54649 20.8554C5.43495 21.1176 5.26256 21.4668 5.35817 21.7362Z" fill="white"/>
<path fill-rule="evenodd" clip-rule="evenodd" d="M20.0792 4.15564C19.4998 3.80507 19.4273 3.55011 18.9942 3.73119C18.8697 3.80236 18.7568 3.89226 18.6596 3.99773C18.3191 4.29615 18.2568 4.1426 18.1366 4.70901C17.237 5.22183 17.4253 5.07696 17.4398 6.02292C17.4398 6.45026 17.6122 6.42419 17.6557 6.8921L18.0729 8.19586C18.1287 8.33729 18.1996 8.47231 18.2844 8.59858C18.7088 9.25047 18.9131 9.1592 19.3839 9.18528C19.7402 9.20411 19.6287 9.25916 19.8692 9.33014C20.4486 9.475 20.1995 9.10416 20.6688 9.5286L21.6148 9.33594C22.0059 8.90135 21.861 7.63959 21.7843 7.11519C21.7538 6.90369 21.5308 6.61106 21.4207 6.35755C21.3279 6.1446 21.2063 5.66076 21.1121 5.50866C20.6398 4.73798 21.0426 4.73943 20.0792 4.15564Z" fill="white"/>
<path fill-rule="evenodd" clip-rule="evenodd" d="M4.39319 9.81687C4.64291 9.79865 4.89351 9.79575 5.14358 9.80817C5.40723 9.82411 5.56079 9.88205 5.81575 9.89509C6.94568 9.95014 6.31408 9.80962 7.75257 10.1848C8.1779 10.2565 8.60776 10.2982 9.03895 10.3094C10.6469 10.292 10.589 10.0718 11.5871 10.0805C12.1434 10.0805 13.1719 10.0805 13.7267 9.97477C14.241 9.87626 14.509 10.2167 14.5756 9.4663C14.0469 8.87236 14.4467 9.32144 14.2265 8.92741C14.1028 8.7222 14.0054 8.5022 13.9368 8.27263C13.592 8.25959 13.111 8.40155 12.788 8.50441C12.3983 8.62754 11.9637 8.50441 10.8946 8.7188C10.1124 8.87526 10.1558 8.80717 9.05488 9.08965C8.28711 9.28812 7.22671 9.07951 6.36768 9.10559C5.78822 9.12152 4.5989 9.12732 4.08753 9.34751C3.79781 9.4692 3.95571 9.2519 3.89197 9.60247C3.90935 9.64158 3.90935 9.83425 4.39319 9.81687Z" fill="white"/>
<path fill-rule="evenodd" clip-rule="evenodd" d="M3.72254 22.7502C3.74716 22.4373 3.86016 22.3157 3.88478 22.0636C3.90059 21.7783 3.94033 21.4948 4.00357 21.2161L4.41498 17.1209C4.41498 16.3241 4.93938 13.1313 4.94663 12.1738L4.99443 10.4659C4.767 10.3717 4.8177 10.4919 4.62069 10.3007C4.20783 10.799 4.33096 9.96029 4.24549 11.3582C4.21652 11.8594 4.01806 12.3303 3.91231 12.7924C3.85291 13.0517 3.89637 13.3935 3.89202 13.6615C3.88478 14.2178 3.54001 16.1836 3.53566 16.7746C3.53566 17.3353 3.59795 17.964 3.48641 18.513C3.38066 19.0215 3.41108 19.6313 3.34155 20.1268C3.30678 20.3716 3.22421 20.657 3.19668 20.8627C3.15902 21.1263 3.09528 23.011 3.30968 23.292C3.71674 23.3398 3.69211 23.1414 3.72254 22.7502Z" fill="white"/>
<path fill-rule="evenodd" clip-rule="evenodd" d="M4.93805 8.4885C5.32484 8.50444 5.8391 8.67682 6.64888 8.52906C6.98047 8.48345 7.31559 8.4689 7.64989 8.4856C8.68276 8.4856 9.26221 7.77867 10.6514 7.76129L11.9103 7.35277C12.0276 7.28759 12.1059 7.20791 12.2334 7.13258C12.3608 7.05725 13.6327 6.44014 13.2851 6.07508C13.1706 5.95485 13.2286 6.05191 13.0794 6.00989C12.9301 5.96788 12.9736 5.99396 12.8592 5.89256C12.3782 5.46521 11.5641 5.64919 11.1121 5.94616C10.4284 6.39813 8.92468 7.34119 8.12649 7.44549C7.6919 7.50343 7.59194 7.45418 7.13273 7.58021C6.60832 7.72507 6.78361 7.71348 6.1578 7.77577C5.32484 7.84676 3.91967 7.79171 4.02107 8.48271C4.32528 8.48995 4.63384 8.47691 4.93805 8.4885Z" fill="white"/>
</svg>
