<svg width="13" height="13" viewBox="0 0 13 13" fill="none" xmlns="http://www.w3.org/2000/svg">
<path d="M6.5 0C2.91587 0 0 2.91587 0 6.5C0 10.0841 2.91587 13 6.5 13C10.0841 13 13 10.0841 13 6.5C13 2.91592 10.0841 0 6.5 0ZM6.5 12.352C3.27311 12.352 0.647866 9.72685 0.647866 6.5C0.647866 3.27315 3.27311 0.647866 6.5 0.647866C9.72689 0.647866 12.3521 3.27311 12.3521 6.49996C12.3521 9.72681 9.72685 12.352 6.5 12.352Z" fill="#4A4A4A"/>
<path d="M6.17612 6.17577H3.59131V6.82364H6.82399V1.89502H6.17612V6.17577Z" fill="#4A4A4A"/>
</svg>
