<svg width="37" height="33" viewBox="0 0 37 33" fill="none" xmlns="http://www.w3.org/2000/svg">
<path fill-rule="evenodd" clip-rule="evenodd" d="M35.6643 31.274C35.5694 30.7878 35.6856 31.2112 35.2221 30.6783C34.7132 30.6489 34.1856 30.2308 33.8864 29.9944L32.7457 29.2584C32.7177 29.2347 32.6962 29.2044 32.6829 29.1702C32.3757 29.0513 32.174 28.8109 31.9576 28.6052C31.5849 28.2512 29.954 27.4231 29.6868 27.188C29.25 26.7953 28.1534 26.3224 27.7714 26.0392C27.567 25.887 27.4922 25.7454 27.0501 25.5049C26.8831 25.4155 26.8377 25.4355 26.6681 25.3326L24.3973 24.2266C24.2757 24.1505 24.4187 24.2453 24.2918 24.1385C24.054 23.9368 23.7174 23.89 23.3955 23.7271C23.0976 23.5761 22.8612 23.4599 22.554 23.3143C22.2641 23.1808 22.0905 23.0565 21.7739 22.9136C21.2249 22.6612 20.6225 22.4247 20.0842 22.1576C19.2213 21.7301 16.6874 20.9554 15.5427 20.5226C15.0551 20.3396 14.1081 20.2047 13.5391 20.0765C13.3694 20.0378 13.2465 19.9549 13.0782 19.9282C12.9129 19.9123 12.749 19.8838 12.588 19.8427C11.9201 19.6477 11.1895 19.637 10.4508 19.5382C9.44635 19.4046 8.15736 19.0961 7.07675 19.2216C6.46765 19.2911 6.60791 19.2737 6.09899 19.1415C6.08296 19.1415 4.04329 19.2751 3.82823 19.3071L1.83798 19.5449C1.50477 19.6176 1.16353 19.6467 0.822816 19.6317C0.629134 19.621 0.510253 19.6103 0.365993 19.6998L0 19.967C0.0935018 20.3677 0.320578 20.2622 1.0913 20.3864C1.30635 20.4211 1.48267 20.4705 1.7191 20.5106C1.97556 20.5534 2.23202 20.5413 2.46978 20.5801C2.86249 20.6429 3.34603 20.7417 3.72404 20.8125C4.24231 20.9087 4.54552 20.8966 5.05177 21.0649C6.103 21.4176 8.99621 21.8731 10.2091 22.0187C11.0884 22.1019 11.9593 22.2588 12.8124 22.4875C13.0315 22.5423 13.2345 22.5262 13.4576 22.593L14.6344 22.919L19.5165 24.9706C21.8901 26.3892 24.3626 27.2414 26.7949 28.3808C26.982 28.4676 27.0808 28.5678 27.2745 28.6613L32.1913 30.6769C32.9514 30.9214 33.6206 31.2767 34.406 31.5251C34.8882 31.6787 36.1278 32.7767 36.5325 32.2825C36.801 31.9606 35.9888 31.3528 35.6643 31.274Z" fill="#0057FF"/>
<path fill-rule="evenodd" clip-rule="evenodd" d="M35.3824 12.364C35.154 11.8938 35.3423 12.1783 34.963 11.843L34.3645 11.5011C34.1121 11.3675 34.0974 11.3568 33.9211 11.5331C33.8262 11.4289 33.8556 11.5986 33.8209 11.3007C33.3387 11.27 32.9139 10.7437 32.6187 10.4325C32.0925 9.87012 31.7278 9.19691 31.1988 8.66262C31.0204 8.48193 30.8672 8.27794 30.7434 8.05619C30.6565 7.90792 30.6699 7.84114 30.5911 7.70489C30.4281 7.42171 30.3426 7.40168 30.2064 7.03702C30.1156 6.78857 30.0942 6.87005 30.0127 6.65901L30.3974 6.27966C31.1988 6.46666 31.7892 6.63229 32.4558 6.02854C32.8284 5.69193 32.8658 5.72399 32.946 5.28319C33.0048 4.96128 32.9393 5.27652 33.0649 5.00937C33.1229 4.84266 33.1676 4.67159 33.1984 4.49778L32.8966 4.30677C32.7149 4.41096 32.743 4.46706 32.5747 4.58193C32.2982 4.77161 32.4411 4.53919 32.2608 4.89182C32.1098 5.19236 31.9215 5.33662 31.6463 5.52096C31.3792 5.44081 30.6752 5.22175 30.4856 5.07348C30.4902 5.05146 30.4933 5.02914 30.4949 5.0067C30.4949 5.0067 30.4949 4.99334 30.4949 5.0067C30.4949 5.02005 30.5096 5.0067 30.5377 4.97464C30.6552 4.83171 30.5123 5.08818 30.6565 4.84106C30.5323 4.80233 30.4255 4.84106 30.2839 4.76893C30.0635 4.64738 30.169 4.54319 29.8497 4.37623C29.7522 4.32413 29.8497 4.44301 29.7162 4.2707C29.5158 4.00356 29.5505 3.95948 29.246 3.74309C29.1533 3.66903 29.0663 3.58822 28.9855 3.50132L28.2028 2.78135C28.0211 2.65713 28.0385 2.72926 27.8608 2.56229C27.6551 2.36861 27.4895 2.33789 27.2531 2.16958L26.6814 1.67803C26.3316 1.343 25.9433 1.05066 25.5246 0.807129C25.4739 0.884602 25.5006 0.820486 25.3817 0.868573C25.2668 1.21587 25.0331 1.28132 24.9583 1.41623C24.8618 1.74254 24.8168 2.08187 24.8247 2.42204C25.3977 2.38731 25.0771 2.11348 25.9267 2.7533L27.2317 3.44922C27.3399 3.49865 27.4027 3.48796 27.5082 3.54139C27.6722 3.64647 27.8206 3.77418 27.949 3.92074C28.2161 4.17186 28.697 4.30009 28.8145 4.62067C27.2477 4.70482 27.6444 4.6554 26.0242 5.59175C25.3951 5.95641 25.1319 6.00716 24.4106 6.53879C24.1314 6.74449 23.8763 6.88875 23.6439 7.08511C22.781 7.79973 21.6991 8.33937 21.277 9.77395C21.1354 10.2535 21.2195 11.4223 21.4359 11.9325C21.5815 12.2718 22.2547 13.2322 22.4351 13.4967C23.0655 14.417 23.7281 14.2487 23.7521 13.474C23.6626 13.4152 23.6185 13.4098 23.525 13.3404C23.3914 11.9913 22.8264 11.3555 22.7823 10.5353C22.8705 10.5861 23.2672 10.9815 23.5958 11.079C23.9017 11.1685 23.7761 11.1685 24.0032 11.3675C24.2704 11.5986 24.4133 11.4329 24.5562 11.6867C24.5562 11.6867 24.615 11.8123 24.6163 11.8203C24.6671 11.9432 24.6898 12.03 24.7352 12.1476C24.9075 12.583 25.4111 13.6169 25.2695 14.0697L25.554 14.9032C25.8479 16.092 25.6809 15.8382 24.9035 16.5368L23.3754 18.0034C23.1083 18.2706 22.6888 18.5124 22.9747 18.8824C23.2499 18.9184 23.35 18.7955 23.5304 18.6633C23.7107 18.5311 23.9017 18.4416 24.0553 18.312C24.261 18.1384 24.3705 18.1116 24.5762 17.958C25.0224 17.6228 25.0104 17.5186 25.7517 17.011C25.9868 16.8507 25.8225 16.991 25.9734 16.7919C26.1064 16.6302 26.2681 16.4943 26.4503 16.3912C27.2103 16.0199 26.8804 15.7928 27.1182 14.4918C27.209 13.9949 26.8978 12.925 26.6961 12.412C26.3995 11.66 26.5184 11.8777 26.0936 11.266C25.9747 11.0815 25.8917 10.8762 25.8492 10.6609C26.4009 10.379 27.0073 10.196 27.4655 9.77929C27.7486 9.52283 27.8902 9.49879 28.2669 9.33316C28.5755 9.19958 28.7691 8.688 28.0946 8.68933C28.0786 8.49966 28.339 7.82644 27.1075 8.37143C26.3795 8.69467 25.4458 9.53085 24.6831 9.36255C24.1248 9.24099 23.6532 9.27839 23.0308 9.25969L25.379 7.75298C25.7797 7.48583 26.5598 6.98493 26.9645 6.90211C27.2718 7.12251 27.1703 7.29081 27.6845 7.61673C28.0038 7.81709 28.1974 8.06821 28.4713 8.26724C28.717 8.44489 28.9241 8.80153 29.1752 9.00323C29.7175 9.44803 30.2959 9.77262 30.889 10.1653C31.2389 10.3977 31.7946 10.9668 32.0671 11.1084L32.5386 11.3889C32.7269 11.481 32.8939 11.4717 33.0916 11.5879C33.3761 11.7562 33.2839 11.7629 33.6513 11.7869C33.5751 11.9739 33.5925 11.8443 33.6005 12.0968C33.8262 12.1997 33.8743 12.3559 34.0012 12.6137C34.1172 12.8246 34.2069 13.0489 34.2684 13.2816C34.0613 13.4232 33.8316 13.4846 33.6486 13.6516C33.1357 14.1231 32.4785 14.5145 31.9589 14.962C31.7599 15.1329 31.6436 15.2451 31.4126 15.4188L30.8689 15.8769C30.2865 16.2857 30.2959 16.2189 29.6761 16.7452C29.5892 16.8282 29.4912 16.8988 29.3849 16.9549L26.664 18.7982C26.2112 19.1629 25.6862 19.5382 25.2975 19.9323C25.0144 20.2194 25.2054 20.2969 25.2054 20.2996C25.6208 20.4064 29.6133 17.6962 30.0902 17.2848C30.6539 16.8066 31.2162 16.4834 31.7879 15.9811C31.9789 15.8128 32.1005 15.6966 32.3222 15.5136L32.8471 15.0394C33.2986 14.6828 34.0226 14.4584 34.6517 13.7919C35.0017 13.9254 35.1032 14.0897 35.6108 14.0376L36.0115 13.5902C36.053 13.3406 36.0328 13.0848 35.9527 12.8448C36.2853 12.4908 36.9078 12.2945 37 11.493C36.288 11.3475 35.9901 12.2477 35.3824 12.364Z" fill="#0057FF"/>
<path fill-rule="evenodd" clip-rule="evenodd" d="M16.3642 18.3694C16.658 18.503 17.1656 18.658 17.2992 18.9037C17.6505 18.9679 17.9457 19.243 18.2342 19.438L20.9898 21.0583C21.4054 21.3694 21.8532 21.635 22.3256 21.8504C23.1016 22.1723 23.2673 22.4034 23.7241 22.6385C24.2116 22.8909 24.0353 23.0472 24.5696 23.2943C24.9169 23.4546 25.2161 23.5802 25.5527 23.7485C25.9347 23.9381 26.2206 23.9809 26.5812 24.1585C26.9673 24.3482 26.8484 24.1812 27.6405 24.5379C28.1307 24.7583 27.9651 24.7663 28.6757 25.0027C29.6294 25.3206 30.0114 25.4662 31.1521 25.4596C31.9322 25.4596 33.1477 25.3714 33.5899 24.98L33.5992 24.7129L33.109 24.3829C32.6963 24.1158 32.0404 24.4537 31.6557 24.4684C30.8062 24.4992 29.393 24.3549 28.6476 24.033C28.0172 23.7658 27.7513 23.7872 26.9018 23.2142C26.6707 23.0579 26.5492 23.0485 26.3168 22.9243C25.3938 22.4301 24.4467 21.7542 23.6266 21.2987L20.8883 19.7827C20.6118 19.6063 20.6425 19.5516 20.4208 19.3819L18.3384 18.0235C17.919 17.7977 17.7079 17.5586 17.3032 17.3049C16.7569 16.9602 17.2524 17.0631 16.3241 16.5969C15.6268 16.2483 15.6562 15.9357 15.2221 15.877C15.0217 16.1267 14.8735 15.877 14.5021 16.0653C14.1308 16.2536 13.9879 16.1481 13.7755 16.466C13.6793 16.8761 15.9942 18.2092 16.3642 18.3694Z" fill="#0057FF"/>
<path fill-rule="evenodd" clip-rule="evenodd" d="M31.2856 4.28006C31.6516 4.09974 32.1378 4.25602 32.3395 4.25201C32.4303 4.25201 32.5973 4.18389 32.839 4.16653C34.4206 4.04898 32.7616 2.51421 32.5519 1.68873C32.4183 1.17714 32.4183 1.47234 32.437 1.24125C32.4784 0.831182 32.6267 0.76306 32.2767 0.395731C32.0096 0.119233 31.8506 -0.0357129 31.4245 0.00703074C31.396 0.0914579 31.3584 0.172526 31.3123 0.2488C31.2976 0.274179 31.2562 0.343637 31.2442 0.359666C31.1907 0.429125 31.1841 0.417103 31.168 0.43046C31.1427 0.868583 31.176 0.740352 31.3136 1.00483C30.8501 1.40555 31.2682 1.45631 30.9129 2.39934C30.4374 3.64959 30.0928 3.55609 30.6297 4.17187C30.8221 4.40562 30.8435 4.5058 31.2856 4.28006Z" fill="#0057FF"/>
<path fill-rule="evenodd" clip-rule="evenodd" d="M22.4993 17.6909C22.6094 17.6162 22.7111 17.5298 22.8025 17.4331C22.9481 17.2929 22.9521 17.3196 23.0964 17.166C23.8885 16.3004 23.9486 16.2764 24.3453 15.2345C24.5296 14.7496 24.4922 15.2131 24.5791 14.3462L24.2732 14.2981C23.4036 14.4771 22.7932 15.6178 22.4125 15.694C22.2669 16.0172 21.7286 16.5168 21.3653 17.1887C20.9645 17.93 21.1435 17.8285 21.054 18.1357C20.9779 18.4029 20.5197 18.499 20.6079 18.9372C21.2664 19.1335 21.5683 18.3721 22.4993 17.6909Z" fill="#0057FF"/>
<path fill-rule="evenodd" clip-rule="evenodd" d="M29.5986 11.5211L30.6578 12.0274C30.9837 12.209 31.3911 12.3546 31.6356 12.591C31.997 12.5995 32.3565 12.5345 32.6921 12.4C32.6921 12.0233 32.6013 12.0607 32.3275 11.9245C32.0536 11.7883 31.9895 11.6814 31.7624 11.5492C31.5674 11.4356 31.3884 11.4009 31.1774 11.2606C30.8835 11.0656 30.9102 11.0002 30.6885 10.8092C30.4214 10.5807 29.5491 10.1092 29.1297 9.61902C28.9307 9.38793 28.8626 9.35187 28.4618 9.35187C28.1506 9.67512 28.0611 9.33183 27.9596 9.78598C27.9442 9.91083 27.9182 10.0341 27.8821 10.1546C27.8247 10.3123 27.8354 10.2655 27.6951 10.3791C27.682 10.3875 27.6699 10.3973 27.6591 10.4084C27.9262 10.8479 27.9596 10.4979 28.5727 10.9855C28.8986 11.2379 29.1524 11.3354 29.5986 11.5211Z" fill="#0057FF"/>
</svg>
