<svg width="22" height="15" viewBox="0 0 22 15" fill="none" xmlns="http://www.w3.org/2000/svg">
<path d="M21.4844 2.34375C21.6406 3.04688 21.7969 4.14062 21.875 5.54688L21.9141 7.5L21.875 9.45312C21.7969 10.9375 21.6406 11.9922 21.4844 12.6953C21.3281 13.1641 21.0938 13.5547 20.7812 13.8672C20.4297 14.2188 20.0391 14.4531 19.5703 14.5703C18.8672 14.7656 17.3047 14.8828 14.8047 14.9609L11.25 15L7.69531 14.9609C5.19531 14.8828 3.59375 14.7656 2.92969 14.5703C2.46094 14.4531 2.03125 14.2188 1.71875 13.8672C1.36719 13.5547 1.13281 13.1641 1.01562 12.6953C0.820312 11.9922 0.703125 10.9375 0.625 9.45312L0.585938 7.5C0.585938 6.95312 0.585938 6.28906 0.625 5.54688C0.703125 4.14062 0.820312 3.04688 1.01562 2.34375C1.13281 1.875 1.36719 1.48438 1.71875 1.13281C2.03125 0.820312 2.46094 0.585938 2.92969 0.429688C3.59375 0.273438 5.19531 0.117188 7.69531 0.0390625L11.25 0L14.8047 0.0390625C17.3047 0.117188 18.8672 0.273438 19.5703 0.429688C20.0391 0.585938 20.4297 0.820312 20.7812 1.13281C21.0938 1.48438 21.3281 1.875 21.4844 2.34375ZM9.0625 10.7031L14.6484 7.5L9.0625 4.33594V10.7031Z" fill="white"/>
</svg>
